<svg width="65" height="65" viewBox="0 0 65 65" fill="none" xmlns="http://www.w3.org/2000/svg">
<path fill-rule="evenodd" clip-rule="evenodd" d="M31.4228 50.4728C31.7694 50.6807 32.1399 50.7727 32.5 50.7682C32.86 50.7727 33.2305 50.6807 33.5771 50.4728L36.6518 48.6279C42.6819 45.0099 50.0567 44.419 56.5859 47.0307C58.9945 47.9941 61.6145 46.2203 61.6145 43.6261V12.05C61.6145 10.4847 60.6616 9.07715 59.2082 8.49582C50.7986 5.13197 41.3 5.89308 33.5333 10.5531L32.5 11.1731L31.4666 10.5531C23.7 5.89308 14.2013 5.13197 5.79168 8.49582C4.33836 9.07715 3.38538 10.4847 3.38538 12.05V43.6261C3.38538 46.2203 6.0054 47.9941 8.41398 47.0307C14.9432 44.419 22.318 45.0099 28.3481 48.6279L31.4228 50.4728ZM7.44788 12.2093V43.0485C15.0198 40.2101 23.4861 40.9731 30.4383 45.1444L30.4687 45.1627V14.692L29.3765 14.0367C22.7438 10.0571 14.6421 9.38447 7.44788 12.2093ZM34.5617 45.1444L34.5312 45.1627V14.692L35.6234 14.0367C42.2561 10.0571 50.3578 9.38447 57.552 12.2093V43.0485C49.9801 40.2101 41.5139 40.9731 34.5617 45.1444Z" fill=""/>
<path d="M25.1202 51.573C19.6389 48.3755 12.861 48.3755 7.37973 51.573L7.10147 51.7353C6.13246 52.3005 5.80515 53.5443 6.37041 54.5133C6.93567 55.4823 8.17944 55.8096 9.14845 55.2444L9.42671 55.0821C13.6431 52.6225 18.8568 52.6225 23.0732 55.0821L26.0179 56.7998C30.0234 59.1363 34.9765 59.1363 38.9821 56.7998L41.9267 55.0821C46.1431 52.6225 51.3568 52.6225 55.5732 55.0821L55.8515 55.2444C56.8205 55.8096 58.0643 55.4823 58.6295 54.5133C59.1948 53.5443 58.8675 52.3005 57.8984 51.7353L57.6202 51.573C52.1389 48.3755 45.361 48.3755 39.8797 51.573L36.9351 53.2907C34.1944 54.8894 30.8055 54.8894 28.0648 53.2907L25.1202 51.573Z" fill=""/>
</svg>
