<svg width="65" height="65" viewBox="0 0 65 65" fill="none" xmlns="http://www.w3.org/2000/svg">
<path fill-rule="evenodd" clip-rule="evenodd" d="M31.1183 11.1334C23.5331 6.58221 14.2563 5.83889 6.04318 9.12415C4.84692 9.60265 4.0625 10.7613 4.0625 12.0497V43.6258C4.0625 45.7409 6.19873 47.1872 8.16256 46.4017C14.8883 43.7114 22.485 44.3201 28.6965 48.047L31.7712 49.8918C32.0057 50.0325 32.2565 50.094 32.5 50.0897C32.7435 50.094 32.9943 50.0325 33.2288 49.8918L36.3035 48.047C42.515 44.3201 50.1117 43.7114 56.8374 46.4017C58.8013 47.1872 60.9375 45.7409 60.9375 43.6258V12.0497C60.9375 10.7613 60.1531 9.60265 58.9568 9.12415C50.7437 5.83889 41.4669 6.58221 33.8817 11.1334L32.5 11.9624L31.1183 11.1334ZM34.5312 17.6041C34.5312 16.4822 33.6218 15.5728 32.5 15.5728C31.3782 15.5728 30.4688 16.4822 30.4688 17.6041V43.3332C30.4688 44.4551 31.3782 45.3645 32.5 45.3645C33.6218 45.3645 34.5312 44.4551 34.5312 43.3332V17.6041Z" fill="#304F45"/>
<path d="M7.37977 51.5726C12.861 48.3752 19.6389 48.3752 25.1202 51.5726L28.0649 53.2903C30.8055 54.889 34.1945 54.889 36.9351 53.2903L39.8798 51.5726C45.3611 48.3752 52.139 48.3752 57.6202 51.5726L57.8985 51.7349C58.8675 52.3002 59.1948 53.544 58.6296 54.513C58.0643 55.482 56.8205 55.8093 55.8515 55.244L55.5732 55.0817C51.3569 52.6222 46.1431 52.6222 41.9268 55.0817L38.9821 56.7994C34.9765 59.136 30.0235 59.136 26.0179 56.7994L23.0732 55.0817C18.8569 52.6222 13.6431 52.6222 9.42675 55.0817L9.14849 55.244C8.17948 55.8093 6.93571 55.482 6.37045 54.513C5.80519 53.544 6.1325 52.3002 7.10151 51.7349L7.37977 51.5726Z" fill="#304F45"/>
</svg>
