<svg width="50" height="50" viewBox="0 0 50 50" fill="none" xmlns="http://www.w3.org/2000/svg">
<path d="M26.0385 26.8735L15.7411 16.4519C15.3893 16.0958 15.3859 15.5018 15.7336 15.1415C16.0813 14.7812 16.6614 14.7777 17.0132 15.1338L27.3106 25.5554C27.6625 25.9114 27.6659 26.5055 27.3182 26.8658C26.9705 27.2261 26.3904 27.2296 26.0385 26.8735Z" fill="#292D32"/>
<path d="M15.6074 25.4594L25.9089 15.1413C26.2609 14.7888 26.8409 14.7981 27.1884 15.1619C27.5358 15.5257 27.5321 16.1197 27.1801 16.4723L16.8786 26.7904C16.5267 27.1429 15.9466 27.1336 15.5992 26.7698C15.2517 26.406 15.2555 25.812 15.6074 25.4594Z" fill="#292D32"/>
</svg>
