<svg width="65" height="65" viewBox="0 0 65 65" fill="none" xmlns="http://www.w3.org/2000/svg">
<path d="M19.7415 13.2918C28.2312 12.5538 36.7688 12.5538 45.2585 13.2918L49.3487 13.6473C52.0716 13.884 54.4036 15.5081 55.612 17.8313C55.7665 18.1285 55.6507 18.4883 55.3658 18.6646L38.3955 29.1701C34.7559 31.4232 30.1666 31.4704 26.4813 29.2928L9.39759 19.1979C9.12159 19.0348 8.9949 18.699 9.11928 18.4036C10.2247 15.7777 12.71 13.903 15.6513 13.6473L19.7415 13.2918Z" fill="#304F45"/>
<path d="M9.10538 23.744C8.68298 23.4944 8.14401 23.763 8.09478 24.2511C7.40758 31.0643 7.5739 37.942 8.59374 44.7239C9.13138 48.2992 12.0494 51.0402 15.6513 51.3533L19.7415 51.7088C28.2312 52.4468 36.7688 52.4468 45.2585 51.7088L49.3487 51.3533C52.9506 51.0402 55.8686 48.2992 56.4063 44.7239C57.4558 37.7443 57.6014 30.6634 56.843 23.6557C56.7898 23.164 56.2416 22.9004 55.8212 23.1607L40.5338 32.6243C35.6096 35.6726 29.4005 35.7365 24.4146 32.7903L9.10538 23.744Z" fill="#304F45"/>
</svg>
