<svg width="65" height="65" viewBox="0 0 65 65" fill="none" xmlns="http://www.w3.org/2000/svg">
<path fill-rule="evenodd" clip-rule="evenodd" d="M31.4479 8.94316C32.1074 8.75548 32.8029 8.75531 33.4623 8.94244C34.864 9.3402 36.2785 9.70914 37.6978 10.0793C44.3626 11.8175 51.1313 13.5829 57.1533 18.4877L59.9264 20.7464C61.0513 21.6626 61.614 23.0188 61.6145 24.3752V43.3335C61.6145 44.4553 60.7051 45.3647 59.5833 45.3647C58.4615 45.3647 57.552 44.4553 57.552 43.3335V29.9453L57.1108 30.3054C55.0241 32.0082 52.847 33.3304 50.6156 34.4037C50.7221 34.6505 50.7812 34.9226 50.7812 35.2085V46.8379C50.7812 49.9072 48.8983 52.6622 46.0386 53.7771L35.2053 58.0006C33.4655 58.6789 31.5344 58.6789 29.7946 58.0006L18.9613 53.7771C16.1016 52.6622 14.2187 49.9072 14.2187 46.8379V35.2085C14.2187 34.9154 14.2808 34.6368 14.3925 34.3851C12.1437 33.3054 9.94963 31.9754 7.84666 30.2626L5.07349 28.0039C2.82379 26.1715 2.8226 22.5793 5.07035 20.7451L7.88913 18.4449C13.8676 13.5663 20.5885 11.8115 27.2039 10.0842C28.6262 9.71286 30.0438 9.34276 31.4479 8.94316ZM57.552 24.3768C57.5519 24.1328 57.4534 23.9717 57.3609 23.8963L54.5877 21.6376C48.75 17.6043 43.5482 15.8255 36.9414 14.0893C35.4886 13.7076 33.9947 13.315 32.4565 12.8799C30.9115 13.3182 29.4122 13.7126 27.9546 14.0961C21.4007 15.8203 15.69 17.3227 10.4576 21.5924L7.63882 23.8926C7.54622 23.9682 7.44778 24.1295 7.44788 24.3735C7.44798 24.6175 7.54655 24.7786 7.63904 24.854L10.4122 27.1127C15.6889 31.4105 21.4517 32.9249 28.0586 34.661C29.5114 35.0427 31.0051 35.4353 32.5434 35.8704C34.0883 35.4322 35.5875 35.0378 37.045 34.6543C43.5989 32.9301 49.31 31.4276 54.5423 27.1579L57.3611 24.8577C57.4536 24.7822 57.5519 24.6204 57.552 24.3768ZM37.796 38.6661C40.7747 37.8884 43.7747 37.1051 46.7187 36.0336V46.8379C46.7187 48.233 45.8629 49.4853 44.563 49.9921L33.7297 54.2156C32.9388 54.5239 32.0611 54.5239 31.2703 54.2156L20.4369 49.9921C19.1371 49.4853 18.2812 48.233 18.2812 46.8379V36.0106C21.2571 37.0944 24.2902 37.8855 27.3021 38.671C28.7214 39.0412 30.1359 39.4101 31.5376 39.8079C32.197 39.995 32.8925 39.9948 33.552 39.8072C34.9561 39.4076 36.3738 39.0374 37.796 38.6661Z" fill=""/>
</svg>
