<svg width="65" height="65" viewBox="0 0 65 65" fill="none" xmlns="http://www.w3.org/2000/svg">
<path fill-rule="evenodd" clip-rule="evenodd" d="M33.0769 7.14019C32.4176 6.95306 31.722 6.95324 31.0625 7.14091C29.6584 7.54051 28.2409 7.91062 26.8185 8.28199C20.4711 9.93928 13.4822 11.7641 7.50376 16.6427L4.68498 18.9429C2.43723 20.7771 2.43841 24.3693 4.68811 26.2016L7.46129 28.4604C9.51004 30.129 11.6452 31.4343 13.8333 32.4988V45.0356C13.8333 48.105 15.7162 50.86 18.5759 51.9748L29.4092 56.1984C31.149 56.8766 33.0801 56.8766 34.8199 56.1984L45.6533 51.9748C48.5129 50.86 50.3958 48.1049 50.3958 45.0356V32.5213C52.5694 31.4624 54.6904 30.1638 56.7254 28.5032L57.1667 28.1431V41.5312C57.1667 42.6531 58.0761 43.5625 59.1979 43.5625C60.3197 43.5625 61.2292 42.6531 61.2292 41.5312V22.5729C61.2286 21.2165 60.6659 19.8604 59.5411 18.9442L56.7679 16.6855C50.7459 11.7806 43.4633 9.88127 37.3125 8.27706C35.8932 7.90689 34.4786 7.53796 33.0769 7.14019ZM22.0914 32.8977C21.0627 32.4503 19.866 32.9215 19.4186 33.9503C18.9711 34.979 19.4424 36.1757 20.4711 36.6231C23.932 38.1284 27.5144 39.3599 31.1858 40.3022C31.8256 40.4664 32.4967 40.4662 33.1365 40.3015C36.798 39.3591 40.3698 38.1275 43.8196 36.6221C44.8478 36.1735 45.3176 34.9762 44.869 33.948C44.4203 32.9198 43.223 32.45 42.1948 32.8987C38.954 34.3129 35.5989 35.4708 32.1599 36.358C28.7102 35.4706 25.3439 34.3123 22.0914 32.8977Z" fill="#304F45"/>
</svg>
