<svg width="65" height="65" viewBox="0 0 65 65" fill="none" xmlns="http://www.w3.org/2000/svg">
<path d="M37.3642 11.2016C34.7035 8.45365 30.2964 8.45364 27.6356 11.2016L14.6398 24.6233C13.8934 25.3942 13.3919 26.3687 13.1983 27.424C11.62 36.031 11.5035 44.8425 12.8537 53.4882L13.3317 56.5492C13.4827 57.516 14.3154 58.2288 15.294 58.2288H24.3749C25.1228 58.2288 25.7291 57.6225 25.7291 56.8746V37.9163H39.2707V56.8746C39.2707 57.6225 39.877 58.2288 40.6249 58.2288H49.7057C50.6843 58.2288 51.517 57.516 51.668 56.5492L52.146 53.4882C53.4962 44.8425 53.3797 36.031 51.8014 27.424C51.6078 26.3687 51.1063 25.3942 50.3599 24.6233L37.3642 11.2016Z" fill="#304F45"/>
</svg>
