<svg width="60" height="60" viewBox="0 0 69 69" fill="none" xmlns="http://www.w3.org/2000/svg">
<path fill-rule="evenodd" clip-rule="evenodd" d="M34.5 0C15.4462 0 0 15.4462 0 34.5C0 53.5538 15.4462 69 34.5 69C53.5538 69 69 53.5538 69 34.5C69 15.4462 53.5538 0 34.5 0ZM26.9147 16.2112C28.8774 16.1219 29.5045 16.1 34.5017 16.1H34.496C39.4947 16.1 40.1195 16.1219 42.0822 16.2112C44.0411 16.3009 45.3789 16.611 46.5519 17.066C47.7633 17.5356 48.7868 18.1643 49.8103 19.1878C50.8338 20.2105 51.4625 21.2371 51.934 22.4473C52.3863 23.6172 52.6968 24.9543 52.7888 26.9132C52.877 28.8759 52.9 29.503 52.9 34.5002C52.9 39.4974 52.877 40.123 52.7888 42.0857C52.6968 44.0438 52.3863 45.3812 51.934 46.5516C51.4625 47.7614 50.8338 48.7879 49.8103 49.8107C48.7879 50.8342 47.7629 51.4644 46.5531 51.9344C45.3824 52.3894 44.0438 52.6995 42.0849 52.7892C40.1222 52.8785 39.497 52.9004 34.4994 52.9004C29.5026 52.9004 28.8759 52.8785 26.9132 52.7892C24.9547 52.6995 23.6172 52.3894 22.4465 51.9344C21.2371 51.4644 20.2105 50.8342 19.1882 49.8107C18.165 48.7879 17.5364 47.7614 17.066 46.5512C16.6114 45.3812 16.3013 44.0441 16.2112 42.0853C16.1222 40.1226 16.1 39.4974 16.1 34.5002C16.1 29.503 16.123 28.8755 16.2108 26.9128C16.299 24.9547 16.6095 23.6172 17.0656 22.4469C17.5371 21.2371 18.1658 20.2105 19.1893 19.1878C20.2121 18.1647 21.2386 17.536 22.4488 17.066C23.6188 16.611 24.9559 16.3009 26.9147 16.2112Z" fill="white"/>
<path fill-rule="evenodd" clip-rule="evenodd" d="M32.8516 19.4159C33.1722 19.4154 33.5169 19.4155 33.889 19.4157L34.5023 19.4159C39.4151 19.4159 39.9974 19.4335 41.9375 19.5217C43.7315 19.6037 44.7052 19.9035 45.3538 20.1553C46.2125 20.4888 46.8247 20.8875 47.4683 21.5315C48.1123 22.1755 48.511 22.7888 48.8452 23.6475C49.0971 24.2954 49.3972 25.269 49.4789 27.0631C49.5671 29.0027 49.5862 29.5854 49.5862 34.496C49.5862 39.4065 49.5671 39.9892 49.4789 41.9289C49.3969 43.7229 49.0971 44.6966 48.8452 45.3444C48.5117 46.2031 48.1123 46.8145 47.4683 47.4581C46.8243 48.1021 46.2129 48.5008 45.3538 48.8343C44.706 49.0873 43.7315 49.3863 41.9375 49.4684C39.9978 49.5565 39.4151 49.5757 34.5023 49.5757C29.5891 49.5757 29.0068 49.5565 27.0671 49.4684C25.2731 49.3856 24.2994 49.0858 23.6504 48.8339C22.7917 48.5004 22.1784 48.1018 21.5344 47.4577C20.8904 46.8137 20.4917 46.2019 20.1574 45.3429C19.9056 44.695 19.6054 43.7214 19.5238 41.9273C19.4356 39.9877 19.418 39.405 19.418 34.4914C19.418 29.5777 19.4356 28.9981 19.5238 27.0585C19.6058 25.2644 19.9056 24.2908 20.1574 23.6421C20.4909 22.7835 20.8904 22.1701 21.5344 21.5261C22.1784 20.8821 22.7917 20.4834 23.6504 20.1492C24.299 19.8962 25.2731 19.5972 27.0671 19.5148C28.7645 19.4381 29.4223 19.4151 32.8516 19.4113V19.4159ZM44.3242 22.4711C43.1051 22.4711 42.1161 23.4589 42.1161 24.6783C42.1161 25.8973 43.1051 26.8863 44.3242 26.8863C45.5432 26.8863 46.5322 25.8973 46.5322 24.6783C46.5322 23.4593 45.5432 22.4703 44.3242 22.4703V22.4711ZM25.053 34.5002C25.053 29.2818 29.2839 25.0509 34.5023 25.0509H34.5019C39.7203 25.0509 43.95 29.2818 43.95 34.5002C43.95 39.7185 39.7207 43.9475 34.5023 43.9475C29.2839 43.9475 25.053 39.7185 25.053 34.5002Z" fill="white"/>
<path d="M34.5006 28.3668C37.8878 28.3668 40.634 31.1127 40.634 34.5002C40.634 37.8874 37.8878 40.6336 34.5006 40.6336C31.113 40.6336 28.3672 37.8874 28.3672 34.5002C28.3672 31.1127 31.113 28.3668 34.5006 28.3668Z" fill="white"/>
</svg>
