<svg width="65" height="65" viewBox="0 0 65 65" fill="" xmlns="http://www.w3.org/2000/svg">
<path fill-rule="evenodd" clip-rule="evenodd" d="M26.9183 6.80389C31.1417 6.32318 35.4059 6.32318 39.6293 6.80389L43.95 7.29567C44.5688 7.36611 45.1212 7.71659 45.4485 8.24652C45.7757 8.77646 45.8418 9.42726 45.6277 10.0122L39.6626 26.307H46.0417C46.708 26.307 47.332 26.6339 47.7114 27.1816C48.0909 27.7294 48.1775 28.4284 47.9433 29.0523L47.4275 30.426C43.8492 39.9566 38.7902 48.8633 32.437 56.8177L31.3788 58.1425C30.8403 58.8168 29.9345 59.0772 29.1201 58.7919C28.3057 58.5066 27.7604 57.7378 27.7604 56.8749V37.5037H22.8274C21.7751 37.5037 20.8971 36.7001 20.8041 35.652L20.472 31.9097C19.9101 25.5778 19.9101 19.2085 20.472 12.8766L20.8041 9.13433C20.8894 8.17325 21.639 7.40479 22.5977 7.29567L26.9183 6.80389ZM39.1699 10.8403C35.2518 10.3944 31.2958 10.3944 27.3778 10.8403L24.7042 11.1446L24.5186 13.2358C23.9779 19.3287 23.9779 25.4576 24.5186 31.5506L24.6864 33.4412H29.7917C30.9135 33.4412 31.8229 34.3506 31.8229 35.4724V50.9228C36.4328 44.579 40.2219 37.6732 43.0969 30.3695H36.756C36.0926 30.3695 35.471 30.0456 35.091 29.5018C34.711 28.958 34.6204 28.263 34.8485 27.64L40.9252 11.0401L39.1699 10.8403Z" fill=""/>
</svg>
