<svg width="65" height="65" viewBox="0 0 65 65" fill="none" xmlns="http://www.w3.org/2000/svg">
<path d="M37.8251 9.35619C33.6526 8.88127 29.4398 8.88127 25.2673 9.35619L20.9466 9.84797C20.3075 9.92071 19.8078 10.433 19.7509 11.0737L19.4188 14.8161C18.8604 21.1081 18.8604 27.4373 19.4188 33.7294L19.7509 37.4717C19.8129 38.1704 20.3983 38.7062 21.0998 38.7062H26.7099V58.7544C26.7099 59.3297 27.0734 59.8422 27.6163 60.0324C28.1593 60.2226 28.7631 60.049 29.1221 59.5995L30.1803 58.2747C36.4891 50.3759 41.5127 41.5315 45.066 32.0676L45.5818 30.6938C45.738 30.2779 45.6802 29.8119 45.4272 29.4467C45.1743 29.0816 44.7583 28.8637 44.3141 28.8637H36.9661L43.2643 11.659C43.407 11.269 43.363 10.8352 43.1448 10.4819C42.9266 10.1286 42.5583 9.89493 42.1458 9.84797L37.8251 9.35619Z" fill="#304F45"/>
</svg>
