<svg width="54" height="49" viewBox="0 0 54 49" fill="none" xmlns="http://www.w3.org/2000/svg">
<path d="M18 40.8333L18 41.5833L18 41.5833L18 40.8333ZM39.0609 40.8333L39.0609 40.0833L39.0609 40.0833L39.0609 40.8333ZM43.4735 37.5508L42.7411 37.3893L42.7411 37.3893L43.4735 37.5508ZM46.1735 25.3008L46.9059 25.4622L46.9059 25.4622L46.1735 25.3008ZM31.5 20.4166L30.8956 19.9726C30.7282 20.2004 30.7032 20.5031 30.8308 20.7553C30.9585 21.0076 31.2173 21.1666 31.5 21.1666V20.4166ZM36.958 12.9878L37.5624 13.4318L37.5624 13.4318L36.958 12.9878ZM34.3051 6.76131L34.1392 7.49273L34.1392 7.49273L34.3051 6.76131ZM34.1981 6.73704L34.364 6.00562L34.364 6.00562L34.1981 6.73704ZM9 20.4166L9 19.6666C8.80109 19.6666 8.61032 19.7456 8.46967 19.8863C8.32902 20.027 8.25 20.2177 8.25 20.4166H9ZM9 40.8333H8.25C8.25 41.2475 8.58578 41.5833 9 41.5833L9 40.8333ZM29.6901 8.04105L29.1448 7.52604L29.1448 7.52604L29.6901 8.04105ZM17.25 20.4167V40.8333H18.75V20.4167H17.25ZM18 41.5833L39.0609 41.5833L39.0609 40.0833L18 40.0833L18 41.5833ZM44.2059 37.7122L46.9059 25.4622L45.4411 25.1393L42.7411 37.3893L44.2059 37.7122ZM41.7609 19.6666H31.5V21.1666H41.7609V19.6666ZM32.1044 20.8607L37.5624 13.4318L36.3535 12.5437L30.8956 19.9726L32.1044 20.8607ZM34.4711 6.0299L34.364 6.00562L34.0322 7.46845L34.1392 7.49273L34.4711 6.0299ZM18 19.6667L9 19.6666L9 21.1666L18 21.1667L18 19.6667ZM8.25 20.4166V40.8333H9.75V20.4166H8.25ZM9 41.5833L18 41.5833L18 40.0833L9 40.0833L9 41.5833ZM34.364 6.00562C32.4675 5.57539 30.447 6.14751 29.1448 7.52604L30.2353 8.55607C31.1516 7.58598 32.6215 7.14844 34.0322 7.46845L34.364 6.00562ZM37.5624 13.4318C39.657 10.5807 37.9344 6.81556 34.4711 6.0299L34.1392 7.49273C36.7139 8.07679 37.7112 10.6958 36.3535 12.5437L37.5624 13.4318ZM46.9059 25.4622C47.5854 22.3795 44.9855 19.6666 41.7609 19.6666V21.1666C44.2157 21.1666 45.8754 23.1686 45.4411 25.1393L46.9059 25.4622ZM39.0609 41.5833C41.509 41.5833 43.6994 40.0103 44.2059 37.7122L42.7411 37.3893C42.4062 38.9085 40.903 40.0833 39.0609 40.0833V41.5833ZM29.1448 7.52604L17.4548 19.9017L18.5452 20.9317L30.2353 8.55607L29.1448 7.52604Z" fill="#87D4AA"/>
</svg>
