<svg height="300" viewBox="0 0 540 541" fill="none" xmlns="http://www.w3.org/2000/svg">
<path d="M367.95 348.404C366.858 357.755 364.912 367.063 361.291 375.755C356.21 387.97 348.037 397.765 336.622 404.499C313.541 418.121 286.202 421.807 261.878 432.607C245.652 439.817 232.809 451.99 223.988 467.416C217.448 478.864 213.037 492.788 216.464 505.955C219.512 517.684 227.501 528.689 237.62 535.262C237.512 535.641 236.766 535.37 236.398 535.316C224.453 533.608 213.729 526.571 205.718 517.544C197.47 508.258 191.211 496.658 187.049 485.005C183.092 473.913 181.135 462.097 181.654 450.314C182.195 437.893 185.568 425.623 191.286 414.596C213.523 371.787 265.219 374.349 306.525 370.847C318.19 369.852 329.898 368.133 341.021 364.393C346.827 362.447 352.329 359.907 357.605 356.804C360.307 355.226 367.529 351.95 367.95 348.404Z" fill="url(#paint0_linear_207_125)"/>
<path d="M333.425 250.16C267.622 282.613 188.187 256.019 156.005 190.757C123.822 125.494 151.075 46.2865 216.878 13.8336C282.681 -18.6192 362.116 7.9744 394.299 73.2368C426.481 138.499 399.228 217.707 333.425 250.16Z" fill="url(#paint1_radial_207_125)"/>
<path d="M455.974 179.157C455.185 196.378 452.806 213.642 447.315 229.988C439.596 252.971 425.91 271.911 405.922 285.694C365.491 313.552 315.979 323.79 272.921 346.643C244.187 361.896 222.274 385.798 208.134 415.105C197.648 436.856 191.367 462.887 199.313 486.508C206.383 507.556 222.404 526.647 241.733 537.371C241.593 538.063 240.187 537.663 239.506 537.619C217.453 536.02 196.956 524.539 181.152 509.069C164.893 493.156 151.964 472.757 142.861 452.001C134.202 432.25 129.121 410.889 128.559 389.301C127.954 366.534 132.537 343.67 141.596 322.784C176.752 241.706 271.57 239.76 346.605 228.064C367.793 224.766 388.971 220.118 408.83 211.859C419.186 207.556 428.915 202.205 438.158 195.859C442.882 192.605 455.671 185.708 455.974 179.157Z" fill="url(#paint2_linear_207_125)"/>
<path d="M195.849 119.514C194.833 119.514 194.001 120.347 194.001 121.374V144.476C194.001 150.908 191.244 152.021 187.969 152.021C187.255 152.021 186.617 152 186.023 151.946C185.028 151.859 184.153 152.583 184.034 153.578L183.504 158.151C183.385 159.134 184.055 160.032 185.028 160.205C186.163 160.399 187.536 160.529 189.006 160.529C197.287 160.529 205.384 158.389 205.384 144.043V121.384C205.384 120.357 204.552 119.525 203.536 119.525H195.849V119.514Z" fill="url(#paint3_linear_207_125)"/>
<path d="M212.659 99.7637C212.875 100.056 212.962 100.445 212.875 100.964C212.421 103.612 211.74 106.228 210.432 108.498C209.535 110.044 208.335 111.428 206.854 112.401C205.243 113.46 203.232 113.612 201.6 114.585C200.919 114.985 200.043 116.498 199.135 116.314C198.508 116.185 198.097 114.909 197.957 114.412C196.843 110.477 198.724 105.861 201.2 103.201C202.67 101.623 204.562 100.445 206.638 99.7745C207.913 99.3745 211.546 98.2718 212.659 99.7637Z" fill="url(#paint4_linear_207_125)"/>
<path d="M257.62 152.497C257.847 151.33 259.025 150.605 260.15 150.951C262.387 151.632 265.209 152.086 267.641 152.086C272.992 152.086 275.576 149.719 275.576 146.465C275.576 142.843 272.992 141.071 268.074 138.336C260.139 134.195 257.123 128.941 257.123 124.433C257.123 116.444 263.328 109.796 275.49 109.796C278.289 109.796 280.992 110.282 282.905 110.888C283.889 111.201 284.484 112.218 284.268 113.245L283.327 117.558C283.078 118.725 281.879 119.417 280.743 119.039C279.295 118.563 277.511 118.217 275.392 118.217C270.56 118.217 268.236 120.736 268.236 123.396C268.236 126.358 269.965 127.903 276.257 131.157C283.932 135.146 286.776 140.184 286.776 145.427C286.776 154.519 278.927 160.508 267.544 160.508C263.955 160.508 260.42 159.891 258.117 159.167C257.133 158.864 256.55 157.859 256.744 156.854L257.62 152.497Z" fill="url(#paint5_linear_207_125)"/>
<path d="M240.757 149.211L227.125 143.114C226.001 142.616 225.665 141.168 226.455 140.227L228.973 137.179C229.503 136.541 230.39 136.336 231.146 136.671L242.886 141.925C243.654 142.27 244.097 143.092 243.957 143.924L243.319 147.827C243.135 149.005 241.859 149.697 240.757 149.211Z" fill="url(#paint6_linear_207_125)"/>
<path d="M228.702 110.682H239.329C240.193 110.682 240.939 111.288 241.134 112.131L251.588 158.248C251.847 159.416 250.971 160.518 249.782 160.518H242.691C241.804 160.518 241.037 159.881 240.874 158.994L235.437 129.374C235.069 127.363 232.204 127.341 231.804 129.352L225.924 159.027C225.751 159.902 224.994 160.518 224.107 160.518H217.048C215.838 160.518 214.962 159.372 215.254 158.194L226.897 112.077C227.113 111.255 227.859 110.682 228.702 110.682Z" fill="url(#paint7_linear_207_125)"/>
<g opacity="0.51">
<path opacity="0.51" d="M199.197 116.228C200.732 104.953 209.835 100.974 209.835 100.974L199.197 116.228Z" fill="url(#paint8_linear_207_125)"/>
<path opacity="0.51" d="M200.227 111.828C199.049 109.817 200.443 107.677 200.746 107.482L200.227 111.828Z" fill="url(#paint9_linear_207_125)"/>
<path opacity="0.51" d="M202.387 107.483C201.706 105.926 202.56 105.386 202.885 105.148L202.387 107.483Z" fill="url(#paint10_linear_207_125)"/>
<path opacity="0.51" d="M205.388 104.066C204.966 102.672 205.691 102.336 206.448 101.926L205.388 104.066Z" fill="url(#paint11_linear_207_125)"/>
<path opacity="0.51" d="M200.309 111.86C202.514 111.958 204.276 110.185 204.276 110.185L200.309 111.86Z" fill="url(#paint12_linear_207_125)"/>
<path opacity="0.51" d="M202.182 108.055C203.9 108.304 204.927 106.931 204.906 106.607L202.182 108.055Z" fill="url(#paint13_linear_207_125)"/>
<path opacity="0.51" d="M205.178 104.283C206.529 105.115 208.064 103.558 208.205 103.31L205.178 104.283Z" fill="url(#paint14_linear_207_125)"/>
</g>
<path d="M363.81 150.346L350.178 144.249C349.053 143.751 348.718 142.303 349.507 141.362L352.026 138.314C352.556 137.676 353.442 137.471 354.199 137.806L365.939 143.06C366.707 143.405 367.15 144.227 367.009 145.059L366.372 148.962C366.188 150.151 364.912 150.843 363.81 150.346Z" fill="url(#paint15_linear_207_125)"/>
<path d="M351.897 110.682H362.524C363.389 110.682 364.135 111.288 364.329 112.131L374.783 158.248C375.042 159.416 374.167 160.518 372.977 160.518H365.886C364.999 160.518 364.232 159.881 364.07 158.994L358.632 129.374C358.265 127.363 355.4 127.341 355 129.352L349.119 159.027C348.946 159.902 348.189 160.518 347.303 160.518H340.244C339.033 160.518 338.157 159.372 338.449 158.194L350.092 112.077C350.319 111.255 351.054 110.682 351.897 110.682Z" fill="url(#paint16_linear_207_125)"/>
<path d="M320.092 141.6L303.671 134.249C302.525 133.73 302.201 132.238 303.055 131.298L305.736 128.314C306.277 127.72 307.131 127.536 307.855 127.86L322.081 134.217C322.827 134.552 323.26 135.33 323.162 136.141L322.676 140.108C322.535 141.362 321.227 142.108 320.092 141.6Z" fill="url(#paint17_linear_207_125)"/>
<path d="M304.798 110.682H297.512C296.409 110.682 295.512 111.58 295.512 112.693V158.508C295.512 159.621 296.409 160.518 297.512 160.518H304.809C305.911 160.518 306.809 159.621 306.809 158.508V112.693C306.798 111.58 305.901 110.682 304.798 110.682ZM327.9 110.682H320.613C319.511 110.682 318.614 111.58 318.614 112.693V158.508C318.614 159.621 319.511 160.518 320.613 160.518H327.911C329.013 160.518 329.91 159.621 329.91 158.508V112.704C329.9 111.58 329.002 110.682 327.9 110.682Z" fill="url(#paint18_linear_207_125)"/>
<defs>
<linearGradient id="paint0_linear_207_125" x1="189.055" y1="411.085" x2="361.978" y2="458.372" gradientUnits="userSpaceOnUse">
<stop offset="0.0136" stop-color="#427E7C"/>
<stop offset="0.364" stop-color="#519B9A"/>
<stop offset="0.9631" stop-color="#7EAA78"/>
</linearGradient>
<radialGradient id="paint1_radial_207_125" cx="0" cy="0" r="1" gradientUnits="userSpaceOnUse" gradientTransform="translate(202.523 28.6702) rotate(50.5715) scale(279.07 282.936)">
<stop offset="0.00495515" stop-color="white"/>
<stop offset="0.0258" stop-color="#F9FCFC"/>
<stop offset="0.0854" stop-color="#EEF8F7"/>
<stop offset="0.1486" stop-color="#EAF6F5"/>
<stop offset="0.1722" stop-color="#E4F1EE"/>
<stop offset="0.2315" stop-color="#D9E8E2"/>
<stop offset="0.2908" stop-color="#D5E5DE"/>
<stop offset="0.5859" stop-color="#B6D2CB"/>
<stop offset="0.6475" stop-color="#B1CEC8"/>
<stop offset="0.7188" stop-color="#A3C4BE"/>
<stop offset="0.7948" stop-color="#8CB3AE"/>
<stop offset="0.8742" stop-color="#6B9A98"/>
<stop offset="0.9555" stop-color="#427B7C"/>
<stop offset="0.9955" stop-color="#2B6A6C"/>
</radialGradient>
<linearGradient id="paint2_linear_207_125" x1="137.004" y1="316.63" x2="459.085" y2="380.904" gradientUnits="userSpaceOnUse">
<stop offset="0.0591" stop-color="#519B9A"/>
<stop offset="0.9631" stop-color="#7EAA78"/>
</linearGradient>
<linearGradient id="paint3_linear_207_125" x1="183.482" y1="140.016" x2="205.378" y2="140.016" gradientUnits="userSpaceOnUse">
<stop offset="0.0136" stop-color="#427E7C"/>
<stop offset="0.364" stop-color="#519998"/>
<stop offset="0.9631" stop-color="#7EA978"/>
</linearGradient>
<linearGradient id="paint4_linear_207_125" x1="197.633" y1="107.673" x2="212.91" y2="107.673" gradientUnits="userSpaceOnUse">
<stop offset="0.0136" stop-color="#427E7C"/>
<stop offset="0.364" stop-color="#519998"/>
<stop offset="0.9631" stop-color="#7EA978"/>
</linearGradient>
<linearGradient id="paint5_linear_207_125" x1="256.728" y1="135.159" x2="286.792" y2="135.159" gradientUnits="userSpaceOnUse">
<stop offset="0.0136" stop-color="#427E7C"/>
<stop offset="0.364" stop-color="#519998"/>
<stop offset="0.9631" stop-color="#7EA978"/>
</linearGradient>
<linearGradient id="paint6_linear_207_125" x1="226.03" y1="142.931" x2="243.99" y2="142.931" gradientUnits="userSpaceOnUse">
<stop offset="0.0136" stop-color="#427E7C"/>
<stop offset="0.364" stop-color="#519998"/>
<stop offset="0.9631" stop-color="#7EA978"/>
</linearGradient>
<linearGradient id="paint7_linear_207_125" x1="215.203" y1="135.602" x2="251.626" y2="135.602" gradientUnits="userSpaceOnUse">
<stop offset="0.0136" stop-color="#427E7C"/>
<stop offset="0.364" stop-color="#519998"/>
<stop offset="0.9631" stop-color="#7EA978"/>
</linearGradient>
<linearGradient id="paint8_linear_207_125" x1="199.2" y1="108.594" x2="209.838" y2="108.594" gradientUnits="userSpaceOnUse">
<stop offset="0.0136" stop-color="#427E7C"/>
<stop offset="0.364" stop-color="#519998"/>
<stop offset="0.9631" stop-color="#7EA978"/>
</linearGradient>
<linearGradient id="paint9_linear_207_125" x1="199.76" y1="109.651" x2="200.742" y2="109.651" gradientUnits="userSpaceOnUse">
<stop offset="0.0136" stop-color="#427E7C"/>
<stop offset="0.364" stop-color="#519998"/>
<stop offset="0.9631" stop-color="#7EA978"/>
</linearGradient>
<linearGradient id="paint10_linear_207_125" x1="202.128" y1="106.31" x2="202.887" y2="106.31" gradientUnits="userSpaceOnUse">
<stop offset="0.0136" stop-color="#427E7C"/>
<stop offset="0.364" stop-color="#519998"/>
<stop offset="0.9631" stop-color="#7EA978"/>
</linearGradient>
<linearGradient id="paint11_linear_207_125" x1="205.265" y1="102.991" x2="206.449" y2="102.991" gradientUnits="userSpaceOnUse">
<stop offset="0.0136" stop-color="#427E7C"/>
<stop offset="0.364" stop-color="#519998"/>
<stop offset="0.9631" stop-color="#7EA978"/>
</linearGradient>
<linearGradient id="paint12_linear_207_125" x1="200.311" y1="111.023" x2="204.284" y2="111.023" gradientUnits="userSpaceOnUse">
<stop offset="0.0136" stop-color="#427E7C"/>
<stop offset="0.364" stop-color="#519998"/>
<stop offset="0.9631" stop-color="#7EA978"/>
</linearGradient>
<linearGradient id="paint13_linear_207_125" x1="202.186" y1="107.342" x2="204.912" y2="107.342" gradientUnits="userSpaceOnUse">
<stop offset="0.0136" stop-color="#427E7C"/>
<stop offset="0.364" stop-color="#519998"/>
<stop offset="0.9631" stop-color="#7EA978"/>
</linearGradient>
<linearGradient id="paint14_linear_207_125" x1="205.178" y1="103.924" x2="208.2" y2="103.924" gradientUnits="userSpaceOnUse">
<stop offset="0.0136" stop-color="#427E7C"/>
<stop offset="0.364" stop-color="#519998"/>
<stop offset="0.9631" stop-color="#7EA978"/>
</linearGradient>
<linearGradient id="paint15_linear_207_125" x1="349.081" y1="144.077" x2="367.041" y2="144.077" gradientUnits="userSpaceOnUse">
<stop offset="0.0136" stop-color="#427E7C"/>
<stop offset="0.364" stop-color="#519998"/>
<stop offset="0.9631" stop-color="#7EA978"/>
</linearGradient>
<linearGradient id="paint16_linear_207_125" x1="338.403" y1="135.602" x2="374.826" y2="135.602" gradientUnits="userSpaceOnUse">
<stop offset="0.0136" stop-color="#427E7C"/>
<stop offset="0.364" stop-color="#519998"/>
<stop offset="0.9631" stop-color="#7EA978"/>
</linearGradient>
<linearGradient id="paint17_linear_207_125" x1="302.572" y1="134.734" x2="323.179" y2="134.734" gradientUnits="userSpaceOnUse">
<stop offset="0.0136" stop-color="#427E7C"/>
<stop offset="0.364" stop-color="#519998"/>
<stop offset="0.9631" stop-color="#7EA978"/>
</linearGradient>
<linearGradient id="paint18_linear_207_125" x1="295.5" y1="135.602" x2="329.903" y2="135.602" gradientUnits="userSpaceOnUse">
<stop offset="0.0136" stop-color="#427E7C"/>
<stop offset="0.364" stop-color="#519998"/>
<stop offset="0.9631" stop-color="#7EA978"/>
</linearGradient>
</defs>
</svg>
