<?xml version="1.0" encoding="utf-8"?>
<!-- Generator: Adobe Illustrator 25.2.3, SVG Export Plug-In . SVG Version: 6.00 Build 0)  -->
<svg version="1.1" xmlns="http://www.w3.org/2000/svg" xmlns:xlink="http://www.w3.org/1999/xlink" x="0px" y="0px"
	 viewBox="0 0 1799.72 550.47" style="enable-background:new 0 0 1799.72 550.47;" xml:space="preserve">
<style type="text/css">
	.st0{fill:url(#SVGID_1_);}
	.st1{fill:none;}
	.st2{fill:url(#SVGID_2_);}
	.st3{fill:url(#SVGID_3_);}
	.st4{fill:url(#SVGID_4_);}
	.st5{fill:url(#SVGID_5_);}
	.st6{fill:url(#SVGID_6_);}
	.st7{fill:url(#SVGID_7_);stroke:url(#SVGID_8_);stroke-miterlimit:10;}
	.st8{fill:url(#SVGID_9_);}
	.st9{opacity:0.51;}
	.st10{fill:none;stroke:#0A8371;stroke-linecap:round;stroke-linejoin:round;stroke-miterlimit:10;}
	.st11{fill:url(#SVGID_10_);stroke:url(#SVGID_11_);stroke-miterlimit:10;}
	.st12{fill:url(#SVGID_12_);}
	.st13{fill:url(#SVGID_13_);stroke:url(#SVGID_14_);stroke-miterlimit:10;}
	.st14{fill:url(#SVGID_15_);}
</style>
<g id="Layer_1">
	
		<linearGradient id="SVGID_1_" gradientUnits="userSpaceOnUse" x1="223.068" y1="422.5658" x2="385.6871" y2="455.0181" gradientTransform="matrix(0.9976 0.0699 -0.0699 0.9976 30.6276 -31.4028)">
		<stop  offset="0.0136" style="stop-color:#437F7D"/>
		<stop  offset="0.364" style="stop-color:#529B9A"/>
		<stop  offset="0.9631" style="stop-color:#7EAA78"/>
	</linearGradient>
	<path class="st0" d="M389.1,347.75c-1.01,8.65-2.81,17.26-6.16,25.3c-4.7,11.3-12.26,20.36-22.82,26.59
		c-21.35,12.6-46.64,16.01-69.14,26c-15.01,6.67-26.89,17.93-35.05,32.2c-6.05,10.59-10.13,23.47-6.96,35.65
		c2.82,10.85,10.21,21.03,19.57,27.11c-0.1,0.35-0.79,0.1-1.13,0.05c-11.05-1.58-20.97-8.09-28.38-16.44
		c-7.63-8.59-13.42-19.32-17.27-30.1c-3.66-10.26-5.47-21.19-4.99-32.09c0.5-11.49,3.62-22.84,8.91-33.04
		c20.57-39.6,68.39-37.23,106.6-40.47c10.79-0.92,21.62-2.51,31.91-5.97c5.37-1.8,10.46-4.15,15.34-7.02
		C382.04,354.07,388.72,351.04,389.1,347.75z"/>
	<g>
		<circle class="st1" cx="298.49" cy="275.25" r="249.75"/>
	</g>
	
		<radialGradient id="SVGID_2_" cx="223.2388" cy="85.9583" r="258.1549" gradientTransform="matrix(0.6351 0.7724 -0.7831 0.6439 161.6126 -175.7851)" gradientUnits="userSpaceOnUse">
		<stop  offset="4.955147e-03" style="stop-color:#FFFFFF"/>
		<stop  offset="0.0161" style="stop-color:#FAFDFD"/>
		<stop  offset="0.0804" style="stop-color:#EEF8F6"/>
		<stop  offset="0.1486" style="stop-color:#EAF6F5"/>
		<stop  offset="0.1719" style="stop-color:#E4F0ED"/>
		<stop  offset="0.2314" style="stop-color:#D9E7E2"/>
		<stop  offset="0.2908" style="stop-color:#D5E4DE"/>
		<stop  offset="0.5859" style="stop-color:#B5D1CB"/>
		<stop  offset="0.6477" style="stop-color:#AFCCC6"/>
		<stop  offset="0.7191" style="stop-color:#9FBEB9"/>
		<stop  offset="0.7953" style="stop-color:#88AAA8"/>
		<stop  offset="0.8749" style="stop-color:#6A9191"/>
		<stop  offset="0.9563" style="stop-color:#447778"/>
		<stop  offset="0.9955" style="stop-color:#2C6A6C"/>
	</radialGradient>
	<path class="st2" d="M357.16,256.88c-60.87,30.02-134.35,5.42-164.12-54.95s-4.56-133.64,56.31-163.66s134.35-5.42,164.12,54.95
		S418.03,226.86,357.16,256.88z"/>
	<linearGradient id="SVGID_3_" gradientUnits="userSpaceOnUse" x1="175.4676" y1="318.3663" x2="473.4034" y2="377.8224">
		<stop  offset="0.0591" style="stop-color:#529B9A"/>
		<stop  offset="0.9631" style="stop-color:#7EAA78"/>
	</linearGradient>
	<path class="st3" d="M470.53,191.2c-0.73,15.93-2.93,31.9-8.01,47.02c-7.14,21.26-19.8,38.78-38.29,51.53
		c-37.4,25.77-83.2,35.24-123.03,56.38c-26.58,14.11-46.85,36.22-59.93,63.33c-9.7,20.12-15.51,44.2-8.16,66.05
		c6.54,19.47,21.36,37.13,39.24,47.05c-0.13,0.64-1.43,0.27-2.06,0.23c-20.4-1.48-39.36-12.1-53.98-26.41
		c-15.04-14.72-27-33.59-35.42-52.79c-8.01-18.27-12.71-38.03-13.23-58c-0.56-21.06,3.68-42.21,12.06-61.53
		c32.52-75,120.23-76.8,189.64-87.62c19.6-3.05,39.19-7.35,57.56-14.99c9.58-3.98,18.58-8.93,27.13-14.8
		C458.42,203.64,470.25,197.26,470.53,191.2z"/>
	<rect x="1455.21" y="849.64" class="st1" width="478.86" height="384.08"/>
	<rect x="1862.24" y="-31.26" class="st1" width="21.95" height="6.98"/>
</g>
<g id="Layer_2">
	<linearGradient id="SVGID_4_" gradientUnits="userSpaceOnUse" x1="548.231" y1="306.6516" x2="686.511" y2="306.6516">
		<stop  offset="0.0136" style="stop-color:#437F7D"/>
		<stop  offset="0.364" style="stop-color:#529B9A"/>
		<stop  offset="0.9631" style="stop-color:#7EAA78"/>
	</linearGradient>
	<path class="st4" d="M615.21,179.03V334.4c0,40.04-17.29,46.94-37.81,46.94c-9.19,0-16.21-0.46-23.23-2.3l-5.94,50.62
		c8.1,2.76,21.06,4.61,35.65,4.61c51.85,0,102.63-13.35,102.63-102.63V179.03H615.21z"/>
	<linearGradient id="SVGID_5_" gradientUnits="userSpaceOnUse" x1="637.9939" y1="105.3697" x2="733.699" y2="105.3697">
		<stop  offset="0.0136" style="stop-color:#437F7D"/>
		<stop  offset="0.364" style="stop-color:#529B9A"/>
		<stop  offset="0.9631" style="stop-color:#7EAA78"/>
	</linearGradient>
	<path class="st5" d="M732.16,56.12c1.35,1.79,1.88,4.23,1.33,7.5c-2.82,16.48-7.1,32.79-15.28,46.9
		c-5.59,9.65-13.11,18.23-22.44,24.3c-10.1,6.58-22.66,7.57-32.89,13.62c-4.24,2.5-9.75,11.91-15.41,10.76
		c-3.92-0.79-6.51-8.73-7.41-11.87c-7-24.48,4.82-53.2,20.3-69.74c9.23-9.86,21.05-17.16,34.09-21.31
		C702.39,53.75,725.16,46.87,732.16,56.12z"/>
	<linearGradient id="SVGID_6_" gradientUnits="userSpaceOnUse" x1="1006.5327" y1="276.4215" x2="1196.5392" y2="276.4215">
		<stop  offset="0.0136" style="stop-color:#437F7D"/>
		<stop  offset="0.364" style="stop-color:#529B9A"/>
		<stop  offset="0.9631" style="stop-color:#7EAA78"/>
	</linearGradient>
	<path class="st6" d="M1016.44,371.04c0.12-0.61,0.77-0.94,1.34-0.68c14.71,6.64,38.84,11.46,58.86,11.46
		c33.49,0,49.69-14.73,49.69-34.98c0-22.55-16.2-33.59-46.99-50.62c-49.69-25.77-68.6-58.45-68.6-86.52
		c0-49.7,38.89-91.12,115.05-91.12c23.29,0,45.54,5.3,56.59,10.71c0.4,0.19,0.6,0.63,0.5,1.06l-10.92,50.04
		c-0.13,0.62-0.82,0.93-1.38,0.64c-10.27-5.29-25.54-10-45.34-10c-30.25,0-44.83,15.65-44.83,32.21c0,18.41,10.8,28.07,50.23,48.32
		c48.07,24.85,65.9,56.15,65.9,88.82c0,56.6-49.15,93.88-120.45,93.88c-28.64,0-56.77-6.21-69.02-12.1
		c-0.39-0.19-0.6-0.62-0.51-1.05L1016.44,371.04z"/>
	<linearGradient id="SVGID_7_" gradientUnits="userSpaceOnUse" x1="808.7645" y1="326.0577" x2="929.6843" y2="326.0577">
		<stop  offset="0.0782" style="stop-color:#386E6C"/>
		<stop  offset="0.364" style="stop-color:#529B9A"/>
		<stop  offset="0.9631" style="stop-color:#7EAA78"/>
	</linearGradient>
	<linearGradient id="SVGID_8_" gradientUnits="userSpaceOnUse" x1="807.9572" y1="326.1125" x2="930.2401" y2="326.1125">
		<stop  offset="0.0136" style="stop-color:#2A5A58"/>
		<stop  offset="0.364" style="stop-color:#529B9A"/>
		<stop  offset="0.9631" style="stop-color:#7EAA78"/>
	</linearGradient>
	<polygon class="st7" points="921.86,369.93 808.76,319.69 839.97,282.19 929.68,322.04 	"/>
	<linearGradient id="SVGID_9_" gradientUnits="userSpaceOnUse" x1="744.7552" y1="279.1815" x2="979.1752" y2="279.1815">
		<stop  offset="0.0136" style="stop-color:#437F7D"/>
		<stop  offset="0.364" style="stop-color:#529B9A"/>
		<stop  offset="0.9631" style="stop-color:#7EAA78"/>
	</linearGradient>
	<polygon class="st8" points="823.62,124.09 908.42,124.09 979.18,434.27 910.58,434.27 863.85,181.16 813.35,434.27 744.76,434.27 
			"/>
	<g class="st9">
		<path class="st10" d="M647.83,158.58c9.6-70.16,66.65-94.96,66.65-94.96"/>
		<path class="st10" d="M654.25,131.2c-7.41-12.51,1.35-25.83,3.22-27.04"/>
		<path class="st10" d="M667.79,104.16c-4.29-9.69,1.07-13.07,3.13-14.55"/>
		<path class="st10" d="M686.62,82.89c-2.63-8.67,1.91-10.75,6.64-13.32"/>
		<path class="st10" d="M654.8,131.41c13.83,0.58,24.89-10.4,24.89-10.4"/>
		<path class="st10" d="M666.53,107.73c10.8,1.53,17.22-7,17.07-9.03"/>
		<path class="st10" d="M685.26,84.3c8.46,5.16,18.07-4.52,18.93-6.02"/>
	</g>
	<linearGradient id="SVGID_10_" gradientUnits="userSpaceOnUse" x1="1579.6512" y1="333.1846" x2="1700.571" y2="333.1846">
		<stop  offset="0.0782" style="stop-color:#386E6C"/>
		<stop  offset="0.364" style="stop-color:#529B9A"/>
		<stop  offset="0.9631" style="stop-color:#7EAA78"/>
	</linearGradient>
	<linearGradient id="SVGID_11_" gradientUnits="userSpaceOnUse" x1="1578.8439" y1="333.2393" x2="1701.1267" y2="333.2393">
		<stop  offset="0.0136" style="stop-color:#2A5A58"/>
		<stop  offset="0.364" style="stop-color:#529B9A"/>
		<stop  offset="0.9631" style="stop-color:#7EAA78"/>
	</linearGradient>
	<polygon class="st11" points="1692.74,377.06 1579.65,326.81 1610.86,289.31 1700.57,329.17 	"/>
	<linearGradient id="SVGID_12_" gradientUnits="userSpaceOnUse" x1="1516.5608" y1="279.1815" x2="1750.9808" y2="279.1815">
		<stop  offset="0.0136" style="stop-color:#437F7D"/>
		<stop  offset="0.364" style="stop-color:#529B9A"/>
		<stop  offset="0.9631" style="stop-color:#7EAA78"/>
	</linearGradient>
	<polygon class="st12" points="1595.42,124.09 1680.22,124.09 1750.98,434.27 1682.38,434.27 1635.65,181.16 1585.15,434.27 
		1516.56,434.27 	"/>
	
		<linearGradient id="SVGID_13_" gradientUnits="userSpaceOnUse" x1="1300.975" y1="276.5605" x2="1421.8948" y2="276.5605" gradientTransform="matrix(1.1385 0.0615 0.0615 1.0273 -210.0921 -93.3415)">
		<stop  offset="0.0782" style="stop-color:#386E6C"/>
		<stop  offset="0.364" style="stop-color:#529B9A"/>
		<stop  offset="0.9631" style="stop-color:#7EAA78"/>
	</linearGradient>
	
		<linearGradient id="SVGID_14_" gradientUnits="userSpaceOnUse" x1="1300.1676" y1="276.6153" x2="1422.4506" y2="276.6153" gradientTransform="matrix(1.1385 0.0615 0.0615 1.0273 -210.0921 -93.3415)">
		<stop  offset="0.0136" style="stop-color:#2A5A58"/>
		<stop  offset="0.364" style="stop-color:#529B9A"/>
		<stop  offset="0.9631" style="stop-color:#7EAA78"/>
	</linearGradient>
	<polygon class="st13" points="1419.49,322.84 1287.65,264.27 1320.86,227.66 1425.45,274.13 	"/>
	<linearGradient id="SVGID_15_" gradientUnits="userSpaceOnUse" x1="1251.0873" y1="279.1808" x2="1466.6073" y2="279.1808">
		<stop  offset="0.0136" style="stop-color:#437F7D"/>
		<stop  offset="0.364" style="stop-color:#529B9A"/>
		<stop  offset="0.9631" style="stop-color:#7EAA78"/>
	</linearGradient>
	<path class="st14" d="M1320.9,124.1h-68.85c-0.53,0-0.96,0.43-0.96,0.96v308.26c0,0.53,0.43,0.95,0.96,0.95h68.85
		c0.53,0,0.95-0.42,0.95-0.95V125.06C1321.85,124.53,1321.43,124.1,1320.9,124.1z M1465.65,124.1h-68.84
		c-0.53,0-0.96,0.43-0.96,0.96v308.26c0,0.53,0.43,0.95,0.96,0.95h68.84c0.53,0,0.96-0.42,0.96-0.95V125.06
		C1466.61,124.53,1466.18,124.1,1465.65,124.1z"/>
</g>
</svg>
