<svg width="50" height="34" viewBox="0 0 50 34" fill="none" xmlns="http://www.w3.org/2000/svg">
<g clip-path="url(#clip0_409_309)">
<path d="M0 4.16667C0 1.86548 1.86548 0 4.16667 0H45.8333C48.1345 0 50 1.86548 50 4.16667V29.1667C50 31.4679 48.1345 33.3333 45.8333 33.3333H4.16667C1.86548 33.3333 0 31.4679 0 29.1667V4.16667Z" fill="#FDEACE"/>
<path d="M30.2164 6.79943L19.457 6.83643L19.7831 26.5342L30.5425 26.4972L30.2164 6.79943Z" fill="#FF5F00"/>
<path d="M20.1645 16.7249C20.098 12.7186 21.8927 9.15876 24.7038 6.84969C22.5819 5.18464 19.9218 4.18339 17.0382 4.19327C10.2067 4.21667 4.7729 9.8445 4.88811 16.7773C5.00331 23.71 10.6235 29.3 17.455 29.2766C20.3386 29.2667 22.9652 28.2474 25.0315 26.568C22.1445 24.3133 20.2311 20.7313 20.1645 16.7249Z" fill="#EB001B"/>
<path d="M45.1098 16.5561C45.225 23.4889 39.7913 29.1167 32.9598 29.1401C30.0761 29.15 27.416 28.1487 25.2941 26.4837C28.1396 24.1745 29.9 20.6148 29.8334 16.6084C29.7668 12.6021 27.854 9.05496 24.9665 6.76541C27.0327 5.08602 29.6593 4.06666 32.5429 4.05678C39.3744 4.03339 44.9952 9.6582 45.1098 16.5561Z" fill="#F79E1B"/>
</g>
<defs>
<clipPath id="clip0_409_309">
<rect width="50" height="33.3333" fill="white"/>
</clipPath>
</defs>
</svg>
