<svg width="53" height="53" viewBox="0 0 53 53" fill="none" xmlns="http://www.w3.org/2000/svg">
<path d="M27.25 15.4583C27.25 15.0441 26.9142 14.7083 26.5 14.7083C26.0858 14.7083 25.75 15.0441 25.75 15.4583H27.25ZM25.75 37.5417C25.75 37.9559 26.0858 38.2917 26.5 38.2917C26.9142 38.2917 27.25 37.9559 27.25 37.5417H25.75ZM15.4583 25.75C15.0441 25.75 14.7083 26.0858 14.7083 26.5C14.7083 26.9142 15.0441 27.25 15.4583 27.25V25.75ZM37.5417 27.25C37.9559 27.25 38.2917 26.9142 38.2917 26.5C38.2917 26.0858 37.9559 25.75 37.5417 25.75V27.25ZM25.75 15.4583V37.5417H27.25V15.4583H25.75ZM15.4583 27.25H37.5417V25.75H15.4583V27.25ZM45.625 26.5C45.625 37.0624 37.0624 45.625 26.5 45.625V47.125C37.8909 47.125 47.125 37.8909 47.125 26.5H45.625ZM26.5 45.625C15.9376 45.625 7.375 37.0624 7.375 26.5H5.875C5.875 37.8909 15.1091 47.125 26.5 47.125V45.625ZM7.375 26.5C7.375 15.9376 15.9376 7.375 26.5 7.375V5.875C15.1091 5.875 5.875 15.1091 5.875 26.5H7.375ZM26.5 7.375C37.0624 7.375 45.625 15.9376 45.625 26.5H47.125C47.125 15.1091 37.8909 5.875 26.5 5.875V7.375Z" fill="#87D4AA"/>
</svg>
