<svg width="53" height="41" viewBox="0 0 53 41" fill="none" xmlns="http://www.w3.org/2000/svg">
<path d="M42.7273 25.3951C42.3131 25.3951 41.9773 25.7309 41.9773 26.1451C41.9773 26.5593 42.3131 26.8951 42.7273 26.8951V25.3951ZM47.3636 38.9666C46.9494 38.9666 46.6136 39.3023 46.6136 39.7166C46.6136 40.1308 46.9494 40.4666 47.3636 40.4666V38.9666ZM38.0909 17.2523C37.6767 17.2523 37.3409 17.5881 37.3409 18.0023C37.3409 18.4165 37.6767 18.7523 38.0909 18.7523V17.2523ZM38.0909 0.966553C37.6767 0.966553 37.3409 1.30234 37.3409 1.71655C37.3409 2.13077 37.6767 2.46655 38.0909 2.46655V0.966553ZM10.2727 26.8951C10.6869 26.8951 11.0227 26.5593 11.0227 26.1451C11.0227 25.7309 10.6869 25.3951 10.2727 25.3951V26.8951ZM5.63636 40.4666C6.05058 40.4666 6.38636 40.1308 6.38636 39.7166C6.38636 39.3023 6.05058 38.9666 5.63636 38.9666V40.4666ZM14.9091 18.7523C15.3233 18.7523 15.6591 18.4165 15.6591 18.0023C15.6591 17.5881 15.3233 17.2523 14.9091 17.2523V18.7523ZM14.9091 2.46655C15.3233 2.46655 15.6591 2.13077 15.6591 1.71655C15.6591 1.30234 15.3233 0.966553 14.9091 0.966553V2.46655ZM52.75 35.6451C52.75 33.3806 51.611 30.8343 49.8418 28.8668C48.0661 26.8922 45.5592 25.3951 42.7273 25.3951V26.8951C45.0165 26.8951 47.146 28.1124 48.7264 29.8698C50.3133 31.6345 51.25 33.8382 51.25 35.6451H52.75ZM48.5227 38.9666H47.3636V40.4666H48.5227V38.9666ZM51.25 35.6451C51.25 37.5948 49.9223 38.9666 48.5227 38.9666V40.4666C50.964 40.4666 52.75 38.1926 52.75 35.6451H51.25ZM44.2955 9.85941C44.2955 14.0577 41.411 17.2523 38.0909 17.2523V18.7523C42.4526 18.7523 45.7955 14.6555 45.7955 9.85941H44.2955ZM38.0909 2.46655C41.411 2.46655 44.2955 5.66112 44.2955 9.85941H45.7955C45.7955 5.06335 42.4526 0.966553 38.0909 0.966553V2.46655ZM36.9318 38.9666H16.0682V40.4666H36.9318V38.9666ZM26.5 25.3951C22.9426 25.3951 19.32 26.0866 16.5586 27.7032C13.7631 29.3398 11.8409 31.9403 11.8409 35.6451H13.3409C13.3409 32.5643 14.8959 30.4147 17.3164 28.9977C19.7709 27.5608 23.1028 26.8951 26.5 26.8951V25.3951ZM26.5 26.8951C29.8972 26.8951 33.2291 27.5608 35.6836 28.9977C38.1041 30.4147 39.6591 32.5643 39.6591 35.6451H41.1591C41.1591 31.9403 39.2369 29.3398 36.4414 27.7032C33.68 26.0866 30.0574 25.3951 26.5 25.3951V26.8951ZM11.8409 35.6451C11.8409 38.1926 13.6269 40.4666 16.0682 40.4666V38.9666C14.6686 38.9666 13.3409 37.5948 13.3409 35.6451H11.8409ZM39.6591 35.6451C39.6591 37.5948 38.3314 38.9666 36.9318 38.9666V40.4666C39.3731 40.4666 41.1591 38.1926 41.1591 35.6451H39.6591ZM32.7045 9.85941C32.7045 14.0577 29.8201 17.2523 26.5 17.2523V18.7523C30.8617 18.7523 34.2045 14.6555 34.2045 9.85941H32.7045ZM26.5 17.2523C23.1799 17.2523 20.2955 14.0577 20.2955 9.85941H18.7955C18.7955 14.6555 22.1383 18.7523 26.5 18.7523V17.2523ZM20.2955 9.85941C20.2955 5.66112 23.1799 2.46655 26.5 2.46655V0.966553C22.1383 0.966553 18.7955 5.06335 18.7955 9.85941H20.2955ZM26.5 2.46655C29.8201 2.46655 32.7045 5.66112 32.7045 9.85941H34.2045C34.2045 5.06335 30.8617 0.966553 26.5 0.966553V2.46655ZM1.75 35.6451C1.75 33.8382 2.68674 31.6345 4.2736 29.8698C5.85397 28.1124 7.98347 26.8951 10.2727 26.8951V25.3951C7.4408 25.3951 4.93394 26.8922 3.15824 28.8668C1.38903 30.8343 0.25 33.3806 0.25 35.6451H1.75ZM4.47727 40.4666H5.63636V38.9666H4.47727V40.4666ZM0.25 35.6451C0.25 38.1926 2.03601 40.4666 4.47727 40.4666V38.9666C3.07765 38.9666 1.75 37.5948 1.75 35.6451H0.25ZM7.20455 9.85941C7.20455 14.6555 10.5474 18.7523 14.9091 18.7523V17.2523C11.589 17.2523 8.70455 14.0577 8.70455 9.85941H7.20455ZM14.9091 0.966553C10.5474 0.966553 7.20455 5.06335 7.20455 9.85941H8.70455C8.70455 5.66112 11.589 2.46655 14.9091 2.46655V0.966553Z" fill="#87D4AA"/>
</svg>
