<svg width="60" height="60" viewBox="0 0 73 69" fill="none" xmlns="http://www.w3.org/2000/svg">
<path fill-rule="evenodd" clip-rule="evenodd" d="M4 34.5C4 53.5538 19.4462 69 38.5 69C57.5538 69 73 53.5538 73 34.5C73 15.4462 57.5538 0 38.5 0C19.4462 0 4 15.4462 4 34.5ZM32.175 50.3125L32.762 41.5182L32.7615 41.5179L48.7593 27.0811C49.4614 26.4579 48.606 26.1541 47.674 26.7193L27.9305 39.1752L19.4024 36.5135C17.5607 35.9495 17.5474 34.684 19.8158 33.7742L53.048 20.96C54.5658 20.2709 56.0307 21.3245 55.4513 23.6476L49.7919 50.317C49.3967 52.2121 48.2516 52.6654 46.665 51.79L38.0439 45.4206L33.9 49.45C33.8869 49.4627 33.8739 49.4754 33.861 49.488C33.3975 49.9392 33.0141 50.3125 32.175 50.3125Z" fill="white"/>
</svg>
