<svg width="60" height="60" viewBox="0 0 69 69" fill="none" xmlns="http://www.w3.org/2000/svg">
<path fill-rule="evenodd" clip-rule="evenodd" d="M0 34.5C0 53.5538 15.4462 69 34.5 69C53.5538 69 69 53.5538 69 34.5C69 15.4462 53.5538 0 34.5 0C15.4462 0 0 15.4462 0 34.5ZM56.1518 33.1797C56.1473 44.4881 46.948 53.6896 35.6372 53.6942H35.6287C32.1953 53.6931 28.8216 52.8316 25.8252 51.1972L14.95 54.05L17.8604 43.4195C16.0651 40.3082 15.1205 36.7791 15.122 33.1635C15.1265 21.8524 24.3294 12.65 35.637 12.65C41.1249 12.6524 46.2757 14.7888 50.1489 18.6665C54.0221 22.5441 56.154 27.6982 56.1518 33.1797Z" fill="white"/>
<path fill-rule="evenodd" clip-rule="evenodd" d="M19.8758 49.1762L26.3293 47.4833L26.9519 47.8529C29.5699 49.4064 32.5708 50.2284 35.6305 50.2296H35.6374C45.0355 50.2296 52.6845 42.5804 52.6883 33.1785C52.69 28.6223 50.9182 24.3384 47.6989 21.1154C44.4796 17.8924 40.1985 16.1166 35.6441 16.115C26.2388 16.115 18.5897 23.7635 18.5859 33.1646C18.5846 36.3865 19.4861 39.5242 21.1929 42.239L21.5983 42.8841L19.8758 49.1762ZM45.2706 37.5965C45.6281 37.7692 45.8695 37.8859 45.9726 38.058C46.1007 38.2717 46.1007 39.298 45.6738 40.4956C45.2465 41.6929 43.1986 42.7857 42.2137 42.9328C41.3306 43.0649 40.2131 43.12 38.9852 42.7297C38.2407 42.4935 37.2859 42.1781 36.063 41.6499C31.2575 39.575 28.01 34.9174 27.3962 34.0372C27.3532 33.9755 27.3231 33.9324 27.3064 33.91L27.3022 33.9044C27.0309 33.5425 25.2133 31.1173 25.2133 28.6074C25.2133 26.2462 26.3731 25.0086 26.907 24.4389C26.9436 24.3999 26.9772 24.364 27.0073 24.3311C27.4772 23.8179 28.0326 23.6896 28.3743 23.6896C28.7159 23.6896 29.058 23.6928 29.3567 23.7078C29.3935 23.7096 29.4319 23.7094 29.4715 23.7092C29.7702 23.7074 30.1426 23.7053 30.51 24.5877C30.6513 24.9273 30.8581 25.4308 31.0763 25.9618C31.5173 27.0356 32.0047 28.2221 32.0904 28.3938C32.2186 28.6504 32.304 28.9496 32.1332 29.2919C32.1075 29.3432 32.0838 29.3916 32.0611 29.4379C31.9328 29.6999 31.8384 29.8926 31.6206 30.1469C31.5349 30.2469 31.4464 30.3547 31.3579 30.4625C31.1815 30.6773 31.0052 30.892 30.8517 31.045C30.5951 31.3006 30.3279 31.5779 30.6269 32.0911C30.9259 32.6043 31.9547 34.2828 33.4785 35.6421C35.1166 37.1032 36.5403 37.7207 37.2619 38.0337C37.4029 38.0948 37.517 38.1444 37.6007 38.1863C38.1131 38.4429 38.4122 38.4 38.7112 38.058C39.0102 37.7159 39.9926 36.5612 40.3343 36.0481C40.6759 35.5351 41.0178 35.6205 41.4876 35.7915C41.9575 35.9627 44.4777 37.2027 44.9903 37.4592C45.0903 37.5093 45.1839 37.5545 45.2706 37.5965Z" fill="white"/>
</svg>
