<?xml version="1.0" encoding="utf-8"?>
<!-- Generator: Adobe Illustrator 25.2.3, SVG Export Plug-In . SVG Version: 6.00 Build 0)  -->
<svg version="1.1" xmlns="http://www.w3.org/2000/svg" xmlns:xlink="http://www.w3.org/1999/xlink" x="0px" y="0px"
	 viewBox="0 0 560 560" style="enable-background:new 0 0 560 560;" xml:space="preserve">
<style type="text/css">
	.st0{fill:url(#SVGID_1_);}
	.st1{fill:none;}
	.st2{fill:url(#SVGID_2_);}
	.st3{fill:url(#SVGID_3_);}
	.st4{fill:url(#SVGID_4_);}
	.st5{fill:url(#SVGID_5_);}
	.st6{fill:url(#SVGID_6_);}
	.st7{fill:url(#SVGID_7_);}
	.st8{fill:url(#SVGID_8_);}
	.st9{opacity:0.51;}
	.st10{fill:url(#SVGID_9_);}
	.st11{fill:url(#SVGID_10_);}
	.st12{fill:url(#SVGID_11_);}
	.st13{fill:url(#SVGID_12_);}
	.st14{fill:url(#SVGID_13_);}
	.st15{fill:url(#SVGID_14_);}
	.st16{fill:url(#SVGID_15_);}
	.st17{fill:url(#SVGID_16_);}
	.st18{fill:url(#SVGID_17_);}
	.st19{fill:url(#SVGID_18_);}
	.st20{fill:url(#SVGID_19_);}
</style>
<g id="Layer_3">
	
		<linearGradient id="SVGID_1_" gradientUnits="userSpaceOnUse" x1="203.7139" y1="411.3232" x2="366.333" y2="443.7755" gradientTransform="matrix(0.9976 0.0699 -0.0699 0.9976 30.6821 -13.8935)">
		<stop  offset="0.0136" style="stop-color:#427E7C"/>
		<stop  offset="0.364" style="stop-color:#519B9A"/>
		<stop  offset="0.9631" style="stop-color:#7EAA78"/>
	</linearGradient>
	<path class="st0" d="M370.64,352.7c-1.01,8.65-2.81,17.26-6.16,25.3c-4.7,11.3-12.26,20.36-22.82,26.59
		c-21.35,12.6-46.64,16.01-69.14,26c-15.01,6.67-26.89,17.93-35.05,32.2c-6.05,10.59-10.13,23.47-6.96,35.65
		c2.82,10.85,10.21,21.03,19.57,27.11c-0.1,0.35-0.79,0.1-1.13,0.05c-11.05-1.58-20.97-8.09-28.38-16.44
		c-7.63-8.59-13.42-19.32-17.27-30.1c-3.66-10.26-5.47-21.19-4.99-32.09c0.5-11.49,3.62-22.84,8.91-33.04
		c20.57-39.6,68.39-37.23,106.6-40.47c10.79-0.92,21.62-2.51,31.91-5.97c5.37-1.8,10.46-4.15,15.34-7.02
		C363.57,359.01,370.25,355.98,370.64,352.7z"/>
</g>
<g id="Layer_2">
	<g>
		<circle class="st1" cx="280.02" cy="280.19" r="249.75"/>
	</g>
	
		<radialGradient id="SVGID_2_" cx="202.4514" cy="62.4651" r="258.1549" gradientTransform="matrix(0.6351 0.7724 -0.7831 0.6439 137.9505 -139.6604)" gradientUnits="userSpaceOnUse">
		<stop  offset="4.955147e-03" style="stop-color:#FFFFFF"/>
		<stop  offset="0.0258" style="stop-color:#F9FCFC"/>
		<stop  offset="0.0854" style="stop-color:#EEF8F7"/>
		<stop  offset="0.1486" style="stop-color:#EAF6F5"/>
		<stop  offset="0.1722" style="stop-color:#E4F1EE"/>
		<stop  offset="0.2315" style="stop-color:#D9E8E2"/>
		<stop  offset="0.2908" style="stop-color:#D5E5DE"/>
		<stop  offset="0.5859" style="stop-color:#B6D2CB"/>
		<stop  offset="0.6475" style="stop-color:#B1CEC8"/>
		<stop  offset="0.7188" style="stop-color:#A3C4BE"/>
		<stop  offset="0.7948" style="stop-color:#8CB3AE"/>
		<stop  offset="0.8742" style="stop-color:#6B9A98"/>
		<stop  offset="0.9555" style="stop-color:#427B7C"/>
		<stop  offset="0.9955" style="stop-color:#2B6A6C"/>
	</radialGradient>
	<path class="st2" d="M338.7,261.82c-60.87,30.02-134.35,5.42-164.12-54.95s-4.56-133.64,56.31-163.66s134.35-5.42,164.12,54.95
		S399.57,231.8,338.7,261.82z"/>
	<linearGradient id="SVGID_3_" gradientUnits="userSpaceOnUse" x1="157.0018" y1="323.3068" x2="454.9375" y2="382.7629">
		<stop  offset="0.0591" style="stop-color:#519B9A"/>
		<stop  offset="0.9631" style="stop-color:#7EAA78"/>
	</linearGradient>
	<path class="st3" d="M452.06,196.14c-0.73,15.93-2.93,31.9-8.01,47.02c-7.14,21.26-19.8,38.78-38.29,51.53
		c-37.4,25.77-83.2,35.24-123.03,56.38c-26.58,14.11-46.85,36.22-59.93,63.33c-9.7,20.12-15.51,44.2-8.16,66.05
		c6.54,19.47,21.36,37.13,39.24,47.05c-0.13,0.64-1.43,0.27-2.06,0.23c-20.4-1.48-39.36-12.1-53.98-26.41
		c-15.04-14.72-27-33.59-35.42-52.79c-8.01-18.27-12.71-38.03-13.23-58c-0.56-21.06,3.68-42.21,12.06-61.53
		c32.52-75,120.23-76.8,189.64-87.62c19.6-3.05,39.19-7.35,57.56-14.99c9.58-3.98,18.58-8.93,27.13-14.8
		C439.95,208.58,451.78,202.2,452.06,196.14z"/>
</g>
<g id="Layer_4">
	<g>
		<linearGradient id="SVGID_4_" gradientUnits="userSpaceOnUse" x1="200" y1="159.9349" x2="220.2544" y2="159.9349">
			<stop  offset="0.0136" style="stop-color:#427E7C"/>
			<stop  offset="0.364" style="stop-color:#519998"/>
			<stop  offset="0.9631" style="stop-color:#7EA978"/>
		</linearGradient>
		<path class="st4" d="M211.44,140.97c-0.94,0-1.71,0.77-1.71,1.72v21.37c0,5.95-2.55,6.98-5.58,6.98c-0.66,0-1.25-0.02-1.8-0.07
			c-0.92-0.08-1.73,0.59-1.84,1.51l-0.49,4.23c-0.11,0.91,0.51,1.74,1.41,1.9c1.05,0.18,2.32,0.3,3.68,0.3
			c7.66,0,15.15-1.98,15.15-15.25v-20.96c0-0.95-0.77-1.72-1.71-1.72H211.44z"/>
		<linearGradient id="SVGID_5_" gradientUnits="userSpaceOnUse" x1="213.0904" y1="130.0165" x2="227.2222" y2="130.0165">
			<stop  offset="0.0136" style="stop-color:#427E7C"/>
			<stop  offset="0.364" style="stop-color:#519998"/>
			<stop  offset="0.9631" style="stop-color:#7EA978"/>
		</linearGradient>
		<path class="st5" d="M226.99,122.7c0.2,0.27,0.28,0.63,0.2,1.11c-0.42,2.45-1.05,4.87-2.26,6.97c-0.83,1.43-1.94,2.71-3.31,3.61
			c-1.49,0.98-3.35,1.12-4.86,2.02c-0.63,0.37-1.44,1.77-2.28,1.6c-0.58-0.12-0.96-1.3-1.09-1.76c-1.03-3.64,0.71-7.91,3-10.37
			c1.36-1.46,3.11-2.55,5.03-3.17C222.6,122.34,225.96,121.32,226.99,122.7z"/>
		<linearGradient id="SVGID_6_" gradientUnits="userSpaceOnUse" x1="267.7552" y1="155.4415" x2="295.5648" y2="155.4415">
			<stop  offset="0.0136" style="stop-color:#427E7C"/>
			<stop  offset="0.364" style="stop-color:#519998"/>
			<stop  offset="0.9631" style="stop-color:#7EA978"/>
		</linearGradient>
		<path class="st6" d="M268.58,171.48c0.21-1.08,1.3-1.75,2.34-1.43c2.07,0.63,4.68,1.05,6.93,1.05c4.95,0,7.34-2.19,7.34-5.2
			c0-3.35-2.39-4.99-6.94-7.52c-7.34-3.83-10.13-8.69-10.13-12.86c0-7.39,5.74-13.54,16.99-13.54c2.59,0,5.09,0.45,6.86,1.01
			c0.91,0.29,1.46,1.23,1.26,2.18l-0.87,3.99c-0.23,1.08-1.34,1.72-2.39,1.37c-1.34-0.44-2.99-0.76-4.95-0.76
			c-4.47,0-6.62,2.33-6.62,4.79c0,2.74,1.6,4.17,7.42,7.18c7.1,3.69,9.73,8.35,9.73,13.2c0,8.41-7.26,13.95-17.79,13.95
			c-3.32,0-6.59-0.57-8.72-1.24c-0.91-0.28-1.45-1.21-1.27-2.14L268.58,171.48z"/>
		<linearGradient id="SVGID_7_" gradientUnits="userSpaceOnUse" x1="239.3569" y1="162.6314" x2="255.9707" y2="162.6314">
			<stop  offset="0.0136" style="stop-color:#427E7C"/>
			<stop  offset="0.364" style="stop-color:#519998"/>
			<stop  offset="0.9631" style="stop-color:#7EA978"/>
		</linearGradient>
		<path class="st7" d="M252.98,168.44l-12.61-5.64c-1.04-0.46-1.35-1.8-0.62-2.67l2.33-2.82c0.49-0.59,1.31-0.78,2.01-0.47
			l10.86,4.86c0.71,0.32,1.12,1.08,0.99,1.85l-0.59,3.61C255.18,168.25,254,168.89,252.98,168.44z"/>
		<linearGradient id="SVGID_8_" gradientUnits="userSpaceOnUse" x1="229.3431" y1="155.8517" x2="263.0357" y2="155.8517">
			<stop  offset="0.0136" style="stop-color:#427E7C"/>
			<stop  offset="0.364" style="stop-color:#519998"/>
			<stop  offset="0.9631" style="stop-color:#7EA978"/>
		</linearGradient>
		<path class="st8" d="M241.83,132.8h9.83c0.8,0,1.49,0.56,1.67,1.34l9.67,42.66c0.24,1.08-0.57,2.1-1.67,2.1h-6.56
			c-0.82,0-1.53-0.59-1.68-1.41l-5.03-27.4c-0.34-1.86-2.99-1.88-3.36-0.02l-5.44,27.45c-0.16,0.81-0.86,1.38-1.68,1.38h-6.53
			c-1.12,0-1.93-1.06-1.66-2.15l10.77-42.66C240.36,133.33,241.05,132.8,241.83,132.8z"/>
		<g class="st9">
			<linearGradient id="SVGID_9_" gradientUnits="userSpaceOnUse" x1="214.5421" y1="130.8682" x2="224.3833" y2="130.8682">
				<stop  offset="0.0136" style="stop-color:#427E7C"/>
				<stop  offset="0.364" style="stop-color:#519998"/>
				<stop  offset="0.9631" style="stop-color:#7EA978"/>
			</linearGradient>
			<path class="st10" d="M214.54,137.93c1.42-10.43,9.84-14.11,9.84-14.11"/>
			<linearGradient id="SVGID_10_" gradientUnits="userSpaceOnUse" x1="215.058" y1="131.8463" x2="215.966" y2="131.8463">
				<stop  offset="0.0136" style="stop-color:#427E7C"/>
				<stop  offset="0.364" style="stop-color:#519998"/>
				<stop  offset="0.9631" style="stop-color:#7EA978"/>
			</linearGradient>
			<path class="st11" d="M215.49,133.86c-1.09-1.86,0.2-3.84,0.48-4.02"/>
			<linearGradient id="SVGID_11_" gradientUnits="userSpaceOnUse" x1="217.2501" y1="128.7556" x2="217.952" y2="128.7556">
				<stop  offset="0.0136" style="stop-color:#427E7C"/>
				<stop  offset="0.364" style="stop-color:#519998"/>
				<stop  offset="0.9631" style="stop-color:#7EA978"/>
			</linearGradient>
			<path class="st12" d="M217.49,129.84c-0.63-1.44,0.16-1.94,0.46-2.16"/>
			<linearGradient id="SVGID_12_" gradientUnits="userSpaceOnUse" x1="220.1563" y1="125.6856" x2="221.2516" y2="125.6856">
				<stop  offset="0.0136" style="stop-color:#427E7C"/>
				<stop  offset="0.364" style="stop-color:#519998"/>
				<stop  offset="0.9631" style="stop-color:#7EA978"/>
			</linearGradient>
			<path class="st13" d="M220.27,126.68c-0.39-1.29,0.28-1.6,0.98-1.98"/>
			<linearGradient id="SVGID_13_" gradientUnits="userSpaceOnUse" x1="215.5726" y1="133.115" x2="219.2472" y2="133.115">
				<stop  offset="0.0136" style="stop-color:#427E7C"/>
				<stop  offset="0.364" style="stop-color:#519998"/>
				<stop  offset="0.9631" style="stop-color:#7EA978"/>
			</linearGradient>
			<path class="st14" d="M215.57,133.89c2.04,0.09,3.67-1.55,3.67-1.55"/>
			<linearGradient id="SVGID_14_" gradientUnits="userSpaceOnUse" x1="217.3042" y1="129.71" x2="219.8256" y2="129.71">
				<stop  offset="0.0136" style="stop-color:#427E7C"/>
				<stop  offset="0.364" style="stop-color:#519998"/>
				<stop  offset="0.9631" style="stop-color:#7EA978"/>
			</linearGradient>
			<path class="st15" d="M217.3,130.37c1.59,0.23,2.54-1.04,2.52-1.34"/>
			<linearGradient id="SVGID_15_" gradientUnits="userSpaceOnUse" x1="220.0703" y1="126.5481" x2="222.8655" y2="126.5481">
				<stop  offset="0.0136" style="stop-color:#427E7C"/>
				<stop  offset="0.364" style="stop-color:#519998"/>
				<stop  offset="0.9631" style="stop-color:#7EA978"/>
			</linearGradient>
			<path class="st16" d="M220.07,126.88c1.25,0.77,2.67-0.67,2.8-0.9"/>
		</g>
		<linearGradient id="SVGID_16_" gradientUnits="userSpaceOnUse" x1="353.1855" y1="163.6908" x2="369.7994" y2="163.6908">
			<stop  offset="0.0136" style="stop-color:#427E7C"/>
			<stop  offset="0.364" style="stop-color:#519998"/>
			<stop  offset="0.9631" style="stop-color:#7EA978"/>
		</linearGradient>
		<path class="st17" d="M366.81,169.49l-12.61-5.64c-1.04-0.46-1.35-1.8-0.62-2.67l2.33-2.82c0.49-0.59,1.31-0.78,2.01-0.47
			l10.86,4.86c0.71,0.32,1.12,1.08,0.99,1.85l-0.59,3.61C369.01,169.31,367.83,169.95,366.81,169.49z"/>
		<linearGradient id="SVGID_17_" gradientUnits="userSpaceOnUse" x1="343.3074" y1="155.8517" x2="377" y2="155.8517">
			<stop  offset="0.0136" style="stop-color:#427E7C"/>
			<stop  offset="0.364" style="stop-color:#519998"/>
			<stop  offset="0.9631" style="stop-color:#7EA978"/>
		</linearGradient>
		<path class="st18" d="M355.79,132.8h9.83c0.8,0,1.49,0.56,1.67,1.34l9.67,42.66c0.24,1.08-0.57,2.1-1.67,2.1h-6.56
			c-0.82,0-1.53-0.59-1.68-1.41l-5.03-27.4c-0.34-1.86-2.99-1.88-3.36-0.02l-5.44,27.45c-0.16,0.81-0.86,1.38-1.68,1.38h-6.53
			c-1.12,0-1.93-1.06-1.66-2.15l10.77-42.66C354.33,133.33,355.01,132.8,355.79,132.8z"/>
		<linearGradient id="SVGID_18_" gradientUnits="userSpaceOnUse" x1="310.1631" y1="155.0488" x2="329.2251" y2="155.0488">
			<stop  offset="0.0136" style="stop-color:#427E7C"/>
			<stop  offset="0.364" style="stop-color:#519998"/>
			<stop  offset="0.9631" style="stop-color:#7EA978"/>
		</linearGradient>
		<path class="st19" d="M326.37,161.4l-15.19-6.8c-1.06-0.48-1.36-1.86-0.57-2.73l2.48-2.76c0.5-0.55,1.29-0.72,1.96-0.42
			l13.16,5.88c0.69,0.31,1.09,1.03,1,1.78l-0.45,3.67C328.63,161.18,327.42,161.87,326.37,161.4z"/>
		<linearGradient id="SVGID_19_" gradientUnits="userSpaceOnUse" x1="303.6194" y1="155.8516" x2="335.4429" y2="155.8516">
			<stop  offset="0.0136" style="stop-color:#427E7C"/>
			<stop  offset="0.364" style="stop-color:#519998"/>
			<stop  offset="0.9631" style="stop-color:#7EA978"/>
		</linearGradient>
		<path class="st20" d="M312.22,132.8h-6.74c-1.02,0-1.85,0.83-1.85,1.86v42.38c0,1.03,0.83,1.86,1.85,1.86h6.75
			c1.02,0,1.85-0.83,1.85-1.86v-42.38C314.07,133.63,313.24,132.8,312.22,132.8z M333.59,132.8h-6.74c-1.02,0-1.85,0.83-1.85,1.86
			v42.38c0,1.03,0.83,1.86,1.85,1.86h6.75c1.02,0,1.85-0.83,1.85-1.86v-42.37C335.44,133.63,334.61,132.8,333.59,132.8z"/>
	</g>
</g>
</svg>
