<svg width="50" height="34" viewBox="0 0 50 34" fill="none" xmlns="http://www.w3.org/2000/svg">
<g clip-path="url(#clip0_410_348)">
<path d="M0 4.16667C0 1.86548 1.86548 0 4.16667 0H45.8333C48.1345 0 50 1.86548 50 4.16667V29.1667C50 31.4679 48.1345 33.3333 45.8333 33.3333H4.16667C1.86548 33.3333 0 31.4679 0 29.1667V4.16667Z" fill="#FDE8CE"/>
<path d="M37.5 16.6719C37.4974 23.5758 31.8979 29.1699 24.9947 29.1666C18.0915 29.164 12.4974 23.5652 12.5 16.6613C12.5026 9.76009 18.0974 4.16729 24.9987 4.16663C31.9026 4.16596 37.4993 9.76273 37.5 16.6666V16.6719Z" fill="#F7931A"/>
<path d="M27.2779 14.2418C27.2779 15.8392 24.7701 15.6527 23.972 15.6527V12.8295C24.7701 12.8282 27.2746 12.5743 27.2746 14.2405L27.2779 14.2418ZM27.9351 18.6333C27.9351 20.3886 24.9301 20.189 23.9714 20.1896V17.0769C24.9301 17.0762 27.9357 16.8005 27.9357 18.6319L27.9351 18.6333ZM29.9133 13.6084C29.7526 11.9337 28.3066 11.3723 26.4818 11.2123V8.88965H25.0683V11.1515C24.6967 11.1515 24.3165 11.1588 23.939 11.1667V8.89031H22.5261V11.2123C22.2199 11.2183 21.9191 11.2242 21.6262 11.2242V11.217H19.6758V12.729C19.6758 12.729 20.7198 12.7092 20.7026 12.729C21.0973 12.6781 21.4603 12.9545 21.5158 13.3486V15.9932C21.5654 15.9932 21.6156 15.9965 21.6652 16.0031H21.5158V19.7103C21.4993 19.986 21.2632 20.1956 20.9882 20.1791H20.9869C21.0047 20.1949 19.9594 20.1791 19.9594 20.1791L19.6784 21.8677H21.5185C21.8609 21.8677 22.1975 21.8736 22.5281 21.8763V24.2254H23.9403V21.9007C24.3277 21.9087 24.7033 21.912 25.0696 21.912V24.2261H26.4812V21.8809C28.8614 21.7447 30.5222 21.1457 30.7285 18.9136C30.8951 17.1159 30.0495 16.3139 28.7007 15.9899C29.5992 15.5641 30.0971 14.5856 29.9133 13.6084Z" fill="white"/>
</g>
<defs>
<clipPath id="clip0_410_348">
<rect width="50" height="33.3333" fill="white"/>
</clipPath>
</defs>
</svg>
