<svg width="30" height="15" viewBox="0 0 18 10" fill="none" xmlns="http://www.w3.org/2000/svg">
<path d="M1.53033 0.46967C1.23744 0.176777 0.762563 0.176777 0.46967 0.46967C0.176777 0.762563 0.176777 1.23744 0.46967 1.53033L1.53033 0.46967ZM9 9L8.46967 9.53033C8.76256 9.82322 9.23744 9.82322 9.53033 9.53033L9 9ZM17.5303 1.53033C17.8232 1.23744 17.8232 0.762563 17.5303 0.46967C17.2374 0.176777 16.7626 0.176777 16.4697 0.46967L17.5303 1.53033ZM0.46967 1.53033L8.46967 9.53033L9.53033 8.46967L1.53033 0.46967L0.46967 1.53033ZM9.53033 9.53033L17.5303 1.53033L16.4697 0.46967L8.46967 8.46967L9.53033 9.53033Z" fill="#001A72"/>
</svg>
