<svg width="40" height="40" viewBox="0 0 22 18" fill="none" xmlns="http://www.w3.org/2000/svg">
<path d="M3.29452 3.29452L2.79177 2.73796H2.79177L3.29452 3.29452ZM12.4142 9.58577L11.8839 9.05543L11.8839 9.05544L12.4142 9.58577ZM11 15.75C7.37353 15.75 5.23757 15.2966 3.99047 14.3121C2.80182 13.3737 2.25 11.802 2.25 9H0.75C0.75 11.9333 1.31583 14.1116 3.061 15.4894C4.74772 16.821 7.36176 17.25 11 17.25V15.75ZM19.75 9C19.75 11.802 19.1982 13.3737 18.0095 14.3121C16.7624 15.2966 14.6265 15.75 11 15.75V17.25C14.6382 17.25 17.2523 16.821 18.939 15.4894C20.6842 14.1116 21.25 11.9333 21.25 9H19.75ZM11 2.25C14.829 2.25 16.9904 2.75598 18.2027 3.85107L19.2082 2.73796C17.5332 1.22491 14.8306 0.75 11 0.75V2.25ZM18.2027 3.85107C19.2547 4.80132 19.75 6.34846 19.75 9H21.25C21.25 6.22801 20.7459 4.12693 19.2082 2.73796L18.2027 3.85107ZM2.25 9C2.25 6.34846 2.7453 4.80132 3.79726 3.85107L2.79177 2.73796C1.25414 4.12693 0.75 6.22801 0.75 9H2.25ZM3.79726 3.85107C5.00955 2.75598 7.17099 2.25 11 2.25V0.75C7.16941 0.75 4.46677 1.22491 2.79177 2.73796L3.79726 3.85107ZM9.05544 10.1161C10.1294 11.19 11.8706 11.19 12.9445 10.1161L11.8839 9.05544C11.3957 9.54359 10.6043 9.54359 10.1161 9.05544L9.05544 10.1161ZM2.76419 3.82485L9.05544 10.1161L10.1161 9.05544L3.82485 2.76419L2.76419 3.82485ZM12.9445 10.1161L19.2358 3.82485L18.1752 2.76418L11.8839 9.05543L12.9445 10.1161Z" fill="#001A72"/>
</svg>
