<svg width="65" height="65" viewBox="0 0 65 65" fill="none" xmlns="http://www.w3.org/2000/svg">
<path fill-rule="evenodd" clip-rule="evenodd" d="M7.59331 22.6237C6.83459 29.6732 6.86841 37.8036 7.92418 44.8244C8.50836 48.7092 11.6789 51.6875 15.5927 52.0277L19.6829 52.3832C28.2115 53.1246 36.7885 53.1246 45.3171 52.3832L49.4073 52.0277C53.3211 51.6875 56.4916 48.7092 57.0758 44.8244C58.1316 37.8035 58.1655 29.6736 57.4067 22.6241C57.3086 21.8068 57.1983 20.9907 57.0758 20.1759C56.4916 16.291 53.3211 13.3128 49.4073 12.9726L45.3171 12.6171C36.7884 11.8757 28.2115 11.8757 19.6829 12.6171L15.5927 12.9726C11.6789 13.3128 8.50836 16.291 7.92418 20.1759C7.80168 20.9905 7.69139 21.8065 7.59331 22.6237ZM20.0347 16.6643C28.3292 15.9433 36.6707 15.9433 44.9653 16.6643L49.0555 17.0199C51.0985 17.1975 52.7535 18.7521 53.0585 20.78C53.0901 20.9906 53.1209 21.2012 53.1509 21.412L38.0898 29.7793C34.6134 31.7106 30.3863 31.7106 26.9099 29.7793L11.8491 21.4121C11.879 21.2013 11.9098 20.9906 11.9415 20.78C12.2465 18.7521 13.9015 17.1975 15.9445 17.0199L20.0347 16.6643ZM53.648 25.7832C54.1734 31.925 53.9768 38.1131 53.0585 44.2203C52.7535 46.2482 51.0985 47.8028 49.0555 47.9804L44.9653 48.336C36.6707 49.057 28.3292 49.057 20.0347 48.336L15.9445 47.9804C13.9015 47.8028 12.2465 46.2482 11.9415 44.2203C11.0231 38.1132 10.8266 31.9251 11.352 25.7833L24.937 33.3305C29.6404 35.9435 35.3594 35.9435 40.0628 33.3305L53.648 25.7832Z" fill=""/>
</svg>
