<svg width="65" height="65" viewBox="0 0 65 65" fill="none" xmlns="http://www.w3.org/2000/svg">
<path fill-rule="evenodd" clip-rule="evenodd" d="M36.7191 14.9888C34.3613 12.7264 30.6387 12.7264 28.2809 14.9888L15.751 27.012C15.444 27.3066 15.2375 27.6903 15.1607 28.1088C13.6599 36.293 13.5492 44.6716 14.833 52.8926L15.1378 54.844H23.199V38.0216C23.199 36.8998 24.1084 35.9904 25.2303 35.9904H39.7697C40.8916 35.9904 41.801 36.8998 41.801 38.0216V54.844H49.8622L50.167 52.8926C51.4508 44.6716 51.3401 36.293 49.8393 28.1088C49.7626 27.6903 49.556 27.3066 49.2491 27.012L36.7191 14.9888ZM25.4682 12.0575C29.3978 8.28681 35.6022 8.28681 39.5318 12.0575L52.0618 24.0807C52.9842 24.9658 53.6046 26.1187 53.8352 27.3761C55.4183 36.0092 55.5351 44.8475 54.1808 53.5194L53.6913 56.6543C53.4888 57.9507 52.3722 58.9065 51.06 58.9065H39.7697C38.6479 58.9065 37.7385 57.997 37.7385 56.8752V40.0529H27.2615V56.8752C27.2615 57.997 26.3521 58.9065 25.2303 58.9065H13.94C12.6278 58.9065 11.5112 57.9507 11.3088 56.6543L10.8192 53.5194C9.46489 44.8474 9.58175 36.0092 11.1648 27.3761C11.3954 26.1187 12.0159 24.9658 12.9382 24.0807L25.4682 12.0575Z" fill=""/>
</svg>
