<svg width="47" height="44" viewBox="0 0 47 44" fill="none" xmlns="http://www.w3.org/2000/svg">
<path d="M25.4793 24.0885C25.1812 24.3761 25.1726 24.8509 25.4602 25.149C25.7478 25.4471 26.2226 25.4557 26.5207 25.1681L25.4793 24.0885ZM33.5 17.393L34.0207 17.9328C34.1672 17.7914 34.25 17.5966 34.25 17.393C34.25 17.1894 34.1672 16.9946 34.0207 16.8533L33.5 17.393ZM26.5207 9.61796C26.2226 9.33037 25.7478 9.3389 25.4602 9.63701C25.1726 9.93512 25.1812 10.4099 25.4793 10.6975L26.5207 9.61796ZM13.5 16.643C13.0858 16.643 12.75 16.9788 12.75 17.393C12.75 17.8072 13.0858 18.143 13.5 18.143V16.643ZM3.5 3.3244L3.90569 3.9552L3.5 3.3244ZM43.5 3.3244L43.0943 3.9552L43.5 3.3244ZM33.5 43.4666C33.9142 43.4666 34.25 43.1308 34.25 42.7166C34.25 42.3023 33.9142 41.9666 33.5 41.9666V43.4666ZM13.5 41.9666C13.0858 41.9666 12.75 42.3023 12.75 42.7166C12.75 43.1308 13.0858 43.4666 13.5 43.4666V41.9666ZM26.5207 25.1681L34.0207 17.9328L32.9793 16.8533L25.4793 24.0885L26.5207 25.1681ZM34.0207 16.8533L26.5207 9.61796L25.4793 10.6975L32.9793 17.9328L34.0207 16.8533ZM33.5 16.643H13.5V18.143H33.5V16.643ZM3.90569 3.9552C3.95445 3.92384 4.12738 3.84694 4.49779 3.75011C4.84513 3.65932 5.30346 3.56635 5.86712 3.47419C6.99289 3.29011 8.4951 3.11623 10.2814 2.96638C13.8517 2.66688 18.5181 2.46655 23.5 2.46655V0.966553C18.4819 0.966553 13.7733 1.16819 10.1561 1.47163C8.34865 1.62325 6.80398 1.80108 5.62507 1.99385C5.03638 2.0901 4.52792 2.19183 4.11843 2.29888C3.73199 2.39989 3.35805 2.52397 3.09431 2.69359L3.90569 3.9552ZM23.5 2.46655C28.4819 2.46655 33.1483 2.66688 36.7186 2.96638C38.5049 3.11623 40.0071 3.29011 41.1329 3.47419C41.6965 3.56635 42.1549 3.65932 42.5022 3.75011C42.8726 3.84694 43.0456 3.92384 43.0943 3.9552L43.9057 2.69359C43.6419 2.52397 43.268 2.39989 42.8816 2.29888C42.4721 2.19183 41.9636 2.0901 41.3749 1.99385C40.196 1.80108 38.6514 1.62325 36.8439 1.47163C33.2267 1.16819 28.5181 0.966553 23.5 0.966553V2.46655ZM43.0943 3.9552C43.0938 3.95484 43.1764 4.01896 43.311 4.26068C43.4355 4.48446 43.5702 4.79745 43.7085 5.20069C43.9845 6.00536 44.2499 7.09512 44.4805 8.38086C44.9412 10.9487 45.25 14.2205 45.25 17.393H46.75C46.75 14.1341 46.4338 10.7736 45.957 8.11597C45.7189 6.78897 45.4373 5.61769 45.1274 4.71404C44.9727 4.26311 44.8047 3.86011 44.6216 3.53119C44.4486 3.22022 44.2188 2.89493 43.9057 2.69359L43.0943 3.9552ZM45.25 17.393C45.25 20.5655 44.9412 23.8373 44.4805 26.4052C44.2499 27.6909 43.9845 28.7807 43.7085 29.5854C43.5702 29.9886 43.4355 30.3016 43.311 30.5254C43.1764 30.7671 43.0938 30.8312 43.0943 30.8308L43.9057 32.0925C44.2188 31.8911 44.4486 31.5658 44.6216 31.2549C44.8047 30.9259 44.9727 30.5229 45.1274 30.072C45.4373 29.1684 45.7189 27.9971 45.957 26.6701C46.4338 24.0124 46.75 20.6519 46.75 17.393H45.25ZM43.0943 30.8308C43.0456 30.8622 42.8726 30.9391 42.5022 31.0359C42.1549 31.1267 41.6965 31.2197 41.1329 31.3119C40.0071 31.4959 38.5049 31.6698 36.7186 31.8197C33.1483 32.1192 28.4819 32.3195 23.5 32.3195V33.8195C28.5181 33.8195 33.2267 33.6179 36.8439 33.3144C38.6514 33.1628 40.196 32.985 41.3749 32.7922C41.9636 32.6959 42.4721 32.5942 42.8816 32.4872C43.268 32.3862 43.6419 32.2621 43.9057 32.0925L43.0943 30.8308ZM23.5 32.3195C18.5181 32.3195 13.8517 32.1192 10.2814 31.8197C8.4951 31.6698 6.99289 31.4959 5.86712 31.3119C5.30346 31.2197 4.84513 31.1267 4.49779 31.0359C4.12738 30.9391 3.95445 30.8622 3.90569 30.8308L3.09431 32.0925C3.35805 32.2621 3.73199 32.3862 4.11843 32.4872C4.52792 32.5942 5.03638 32.6959 5.62507 32.7922C6.80398 32.985 8.34865 33.1628 10.1561 33.3144C13.7733 33.6179 18.4819 33.8195 23.5 33.8195V32.3195ZM3.90569 30.8308C3.90625 30.8312 3.82356 30.7671 3.68903 30.5254C3.56448 30.3016 3.42977 29.9886 3.29146 29.5854C3.01547 28.7807 2.75014 27.6909 2.51946 26.4052C2.05877 23.8373 1.75 20.5655 1.75 17.393H0.25C0.25 20.6519 0.566231 24.0124 1.04304 26.6701C1.28111 27.9971 1.56266 29.1684 1.8726 30.072C2.02726 30.5229 2.19529 30.9259 2.37836 31.2549C2.55144 31.5658 2.78125 31.8911 3.09431 32.0925L3.90569 30.8308ZM1.75 17.393C1.75 14.2205 2.05877 10.9487 2.51946 8.38086C2.75014 7.09512 3.01547 6.00536 3.29146 5.20069C3.42977 4.79745 3.56448 4.48446 3.68903 4.26068C3.82356 4.01896 3.90625 3.95484 3.90569 3.9552L3.09431 2.69359C2.78125 2.89493 2.55144 3.22022 2.37836 3.53119C2.19529 3.86011 2.02726 4.26311 1.8726 4.71404C1.56266 5.61769 1.28111 6.78897 1.04304 8.11597C0.566231 10.7736 0.25 14.1341 0.25 17.393H1.75ZM22.75 33.0695V42.7166H24.25V33.0695H22.75ZM23.5 43.4666H33.5V41.9666H23.5V43.4666ZM23.5 41.9666H13.5V43.4666H23.5V41.9666Z" fill="#87D4AA"/>
</svg>
