<svg width="50" height="34" viewBox="0 0 50 34" fill="none" xmlns="http://www.w3.org/2000/svg">
<g clip-path="url(#clip0_409_340)">
<path d="M0 4.16667C0 1.86548 1.86548 0 4.16667 0H45.8333C48.1345 0 50 1.86548 50 4.16667V29.1667C50 31.4679 48.1345 33.3333 45.8333 33.3333H4.16667C1.86548 33.3333 0 31.4679 0 29.1667V4.16667Z" fill="#FAD1D7"/>
<path d="M12.846 4.16797H22.8209C24.2133 4.16797 25.0793 5.3029 24.7545 6.69993L20.1105 26.6386C19.7827 28.0307 18.3886 29.1666 16.9952 29.1666H7.02129C5.63082 29.1666 4.76285 28.0307 5.08767 26.6386L9.73365 6.69993C10.0585 5.3029 11.4518 4.16797 12.846 4.16797Z" fill="#E21836"/>
<path d="M21.9899 4.16663H33.4608C34.8529 4.16663 34.2252 5.30156 33.8977 6.69859L29.2544 26.6372C28.9286 28.0294 29.0302 29.1653 27.6351 29.1653H16.1642C14.7691 29.1653 13.9058 28.0294 14.2335 26.6372L18.8766 6.69859C19.2063 5.30156 20.5967 4.16663 21.9899 4.16663Z" fill="#00447C"/>
<path d="M33.005 4.16663H42.9799C44.3743 4.16663 45.2403 5.30156 44.9128 6.69859L40.2695 26.6372C39.9418 28.0294 38.5467 29.1653 37.1526 29.1653H27.1823C25.7872 29.1653 24.9219 28.0294 25.2487 26.6372L29.8927 6.69859C30.2175 5.30156 31.6099 4.16663 33.005 4.16663Z" fill="#007B84"/>
<path d="M15.4492 10.5563C14.4234 10.5668 14.1205 10.5563 14.0237 10.5335C13.9865 10.7102 13.2943 13.9033 13.2924 13.9059C13.1433 14.5519 13.0349 15.0124 12.6666 15.3098C12.4575 15.4826 12.2134 15.566 11.9304 15.566C11.4755 15.566 11.2105 15.3402 11.166 14.9118L11.1575 14.7647C11.1575 14.7647 11.296 13.8994 11.296 13.8945C11.296 13.8945 12.0225 10.9847 12.1526 10.6001C12.1594 10.5782 12.1613 10.5668 12.163 10.5563C10.749 10.5687 10.4983 10.5563 10.4811 10.5335C10.4716 10.5648 10.4366 10.7452 10.4366 10.7452L9.69478 14.0248L9.63108 14.303L9.50781 15.2128C9.50781 15.4826 9.56081 15.7029 9.66633 15.8891C10.0043 16.4797 10.9683 16.5682 11.5136 16.5682C12.2163 16.5682 12.8754 16.4189 13.3208 16.1464C14.094 15.6895 14.2963 14.9755 14.4767 14.3409L14.5603 14.0153C14.5603 14.0153 15.3087 10.9932 15.4358 10.6001C15.4407 10.5782 15.4426 10.5668 15.4492 10.5563ZM17.9954 12.9943C17.815 12.9943 17.4853 13.0381 17.1892 13.1832C17.0817 13.2384 16.9801 13.3021 16.8729 13.3655L16.9697 13.0162L16.9166 12.9573C16.2886 13.0845 16.1481 13.1015 15.568 13.1832L15.5194 13.2155C15.452 13.774 15.3922 14.1939 15.1425 15.2916C15.0475 15.6962 14.9488 16.1047 14.8498 16.5083L14.8765 16.5596C15.471 16.5282 15.6514 16.5282 16.168 16.5367L16.2099 16.4912C16.2755 16.155 16.284 16.0762 16.4294 15.3952C16.4977 15.0723 16.6402 14.3629 16.7105 14.1103C16.8396 14.0504 16.967 13.9916 17.0885 13.9916C17.3781 13.9916 17.3429 14.2442 17.3317 14.3449C17.3193 14.5139 17.2138 15.0658 17.1056 15.5396L17.0334 15.8455C16.983 16.0713 16.9278 16.2909 16.8775 16.5148L16.8994 16.5596C17.4853 16.5282 17.664 16.5282 18.1644 16.5367L18.2232 16.4912C18.3137 15.9661 18.3402 15.8255 18.5006 15.0609L18.5814 14.7096C18.7382 14.022 18.817 13.6734 18.6983 13.3894C18.5729 13.0711 18.2719 12.9943 17.9954 12.9943ZM20.8398 13.7142C20.5284 13.774 20.3298 13.8139 20.1323 13.8396C19.9366 13.871 19.7458 13.8994 19.4448 13.9413L19.4209 13.9629L19.3991 13.9802C19.3677 14.2043 19.3458 14.3981 19.3042 14.6259C19.269 14.8615 19.2148 15.1292 19.1265 15.5138C19.0582 15.8083 19.0229 15.9109 18.984 16.0144C18.9461 16.118 18.9043 16.2187 18.8275 16.5082L18.8454 16.535L18.8605 16.5595C19.1418 16.5462 19.3259 16.5367 19.515 16.535C19.7039 16.5282 19.8997 16.535 20.2026 16.5367L20.2291 16.515L20.2575 16.4912C20.3013 16.2301 20.3079 16.1598 20.3346 16.0324C20.3611 15.8958 20.4068 15.7066 20.5189 15.2014C20.5719 14.9641 20.631 14.7275 20.6859 14.4854C20.7431 14.2442 20.8029 14.0067 20.8598 13.7694L20.8513 13.7407L20.8398 13.7142ZM20.8465 12.7435C20.5635 12.5765 20.0668 12.6295 19.7325 12.8603C19.3991 13.0864 19.3612 13.4073 19.6432 13.5765C19.9214 13.7389 20.42 13.6905 20.7514 13.4579C21.084 13.2269 21.1256 12.9089 20.8465 12.7435ZM22.558 16.6119C23.1306 16.6119 23.7175 16.4541 24.1593 15.9858C24.4992 15.606 24.655 15.041 24.709 14.8083C24.8848 14.0371 24.7479 13.677 24.576 13.4577C24.3149 13.1234 23.8534 13.0162 23.3747 13.0162C23.0868 13.0162 22.4012 13.0447 21.8656 13.5385C21.4809 13.8946 21.3032 14.378 21.196 14.8414C21.0878 15.3136 20.9633 16.1635 21.745 16.4799C21.9862 16.5834 22.3338 16.6119 22.558 16.6119ZM22.5133 14.8767C22.6453 14.2927 22.8011 13.8025 23.1989 13.8025C23.5106 13.8025 23.5332 14.1672 23.3946 14.7531C23.3698 14.8832 23.256 15.3668 23.1021 15.5727C22.9947 15.7247 22.8675 15.8168 22.727 15.8168C22.6852 15.8168 22.4364 15.8168 22.4325 15.4475C22.4306 15.2652 22.4678 15.0789 22.5133 14.8767ZM26.1403 16.5368L26.185 16.4913C26.2485 16.1551 26.2589 16.076 26.3995 15.3953C26.4697 15.0724 26.6151 14.3629 26.6834 14.1103C26.8128 14.0503 26.938 13.9914 27.0634 13.9914C27.3511 13.9914 27.3161 14.2441 27.3046 14.3447C27.2942 14.5139 27.1887 15.0656 27.0785 15.5394L27.0102 15.8453C26.9579 16.0714 26.901 16.2907 26.8507 16.5149L26.8726 16.5596C27.4605 16.5283 27.6324 16.5283 28.1357 16.5368L28.1964 16.4913C28.2847 15.9659 28.3085 15.8254 28.4738 15.061L28.5526 14.7094C28.7102 14.0218 28.7899 13.6734 28.6732 13.3894C28.5441 13.0712 28.2412 12.9944 27.9686 12.9944C27.788 12.9944 27.4566 13.0379 27.1622 13.1833C27.0569 13.2385 26.9514 13.3019 26.8478 13.3656L26.938 13.0162L26.8896 12.9572C26.2618 13.0846 26.1184 13.1016 25.539 13.1833L25.4945 13.2156C25.4243 13.7741 25.3671 14.1937 25.1174 15.2917C25.0224 15.6963 24.9237 16.1047 24.8249 16.5083L24.8514 16.5596C25.4469 16.5283 25.6246 16.5283 26.1403 16.5368ZM30.4596 16.5595C30.4966 16.3791 30.7161 15.3098 30.7181 15.3098C30.7181 15.3098 30.905 14.5252 30.9165 14.4968C30.9165 14.4968 30.9753 14.4151 31.0341 14.3828H31.1207C31.9374 14.3828 32.8596 14.3828 33.5824 13.851C34.0742 13.4863 34.4105 12.9478 34.5605 12.2933C34.5994 12.1328 34.6281 11.942 34.6281 11.7511C34.6281 11.5004 34.5778 11.2525 34.4324 11.0587C34.0638 10.543 33.3298 10.5335 32.4825 10.5296C32.4798 10.5296 32.0648 10.5335 32.0648 10.5335C30.9802 10.5469 30.5452 10.543 30.3665 10.5211C30.3514 10.6001 30.323 10.7407 30.323 10.7407C30.323 10.7407 29.9345 12.5413 29.9345 12.5442C29.9345 12.5442 29.0047 16.3725 28.961 16.5529C29.908 16.5415 30.2962 16.5415 30.4596 16.5595ZM31.1795 13.3609C31.1795 13.3609 31.5926 11.5639 31.5907 11.5707L31.604 11.4786L31.6099 11.4083L31.7749 11.4253C31.7749 11.4253 32.6269 11.4985 32.6468 11.5004C32.9831 11.6305 33.1216 11.9658 33.0249 12.4034C32.9366 12.8034 32.6772 13.1396 32.3439 13.302C32.0694 13.4397 31.7331 13.4511 31.3867 13.4511H31.1625L31.1795 13.3609ZM33.7515 14.9099C33.6423 15.3753 33.5168 16.2253 34.2946 16.5282C34.5426 16.6337 34.7648 16.6651 34.9907 16.6537C35.2292 16.6408 35.4502 16.5212 35.6549 16.349C35.6364 16.4198 35.618 16.4905 35.5995 16.5615L35.6347 16.607C36.1942 16.5834 36.3678 16.5834 36.9739 16.588L37.0288 16.5462C37.1173 16.0259 37.2007 15.5207 37.4307 14.5253C37.5428 14.0485 37.6547 13.5764 37.7697 13.1015L37.7517 13.0493C37.1259 13.1652 36.9586 13.19 36.3566 13.2754L36.3109 13.3126C36.3048 13.361 36.2985 13.4074 36.2926 13.4538C36.199 13.3026 36.0634 13.1735 35.854 13.093C35.5864 12.9877 34.9576 13.1234 34.4171 13.6155C34.0374 13.9668 33.855 14.4482 33.7515 14.9099ZM35.0658 14.9384C35.1998 14.3648 35.3537 13.8796 35.7524 13.8796C36.0045 13.8796 36.1373 14.1122 36.1103 14.509C36.0889 14.608 36.0658 14.7123 36.0383 14.8302C35.9985 15.0006 35.9552 15.1696 35.9131 15.3388C35.8703 15.4545 35.8205 15.5637 35.7658 15.6364C35.6632 15.7818 35.4191 15.872 35.2786 15.872C35.2387 15.872 34.9926 15.872 34.9841 15.5093C34.9822 15.3286 35.0194 15.1426 35.0658 14.9384ZM41.9295 13.0446L41.8811 12.9894C41.2619 13.1149 41.1498 13.1348 40.5809 13.2116L40.539 13.2535C40.5371 13.2603 40.5354 13.2707 40.5325 13.2802L40.5305 13.2707C40.107 14.2479 40.1194 14.0371 39.7746 14.8063C39.7727 14.7713 39.7727 14.7494 39.7707 14.7122L39.6844 13.0446L39.6302 12.9894C38.9815 13.1149 38.9662 13.1348 38.3672 13.2116L38.3205 13.2535C38.3139 13.2734 38.3139 13.2953 38.31 13.3191L38.3139 13.3276C38.3888 13.7103 38.3708 13.625 38.4459 14.2289C38.4809 14.5253 38.5276 14.8234 38.5626 15.1161C38.6217 15.606 38.6548 15.8472 38.727 16.5948C38.3224 17.2624 38.2266 17.5151 37.8371 18.101L37.8398 18.1068L37.5656 18.5406C37.5342 18.5863 37.5057 18.6176 37.4659 18.631C37.4221 18.6527 37.3652 18.6566 37.2862 18.6566H37.1342L36.9084 19.4078L37.6832 19.4212C38.1381 19.4192 38.424 19.2065 38.578 18.9206L39.0652 18.0857H39.0574L39.1087 18.0268C39.4364 17.3213 41.9295 13.0446 41.9295 13.0446ZM33.7514 22.9115H33.4227L34.6393 18.8874H35.0429L35.1711 18.4729L35.1835 18.9338C35.1684 19.2188 35.3926 19.4714 35.9814 19.4296H36.6624L36.8968 18.6547H36.6405C36.4932 18.6547 36.4249 18.6175 36.4334 18.5378L36.421 18.0688H35.1599V18.0712C34.7522 18.0797 33.5346 18.1104 33.288 18.176C32.9897 18.2528 32.6753 18.4789 32.6753 18.4789L32.7988 18.0639H31.6192L31.3734 18.8874L30.1405 22.973H29.9012L29.6666 23.7422H32.0162L31.9374 23.9987H33.0952L33.172 23.7422H33.4969L33.7514 22.9115ZM32.7874 19.705C32.5985 19.7573 32.2469 19.9158 32.2469 19.9158L32.5596 18.8874H33.4969L33.2708 19.6367C33.2708 19.6367 32.9812 19.6537 32.7874 19.705ZM32.8054 21.1743C32.8054 21.1743 32.511 21.2112 32.3172 21.255C32.1263 21.3129 31.7685 21.4952 31.7685 21.4952L32.0913 20.425H33.0335L32.8054 21.1743ZM32.2802 22.9209H31.3401L31.6126 22.0177H32.5499L32.2802 22.9209ZM34.5444 20.425H35.8996L35.7049 21.0556H34.3317L34.1255 21.7452H35.3271L34.4173 23.0262C34.3536 23.1203 34.2964 23.1536 34.233 23.1801C34.1693 23.2124 34.0856 23.2504 33.9889 23.2504H33.6555L33.4265 24.0055H34.2984C34.7516 24.0055 35.0193 23.7994 35.2169 23.5288L35.8408 22.6749L35.9748 23.5419C36.0032 23.7043 36.1199 23.7994 36.1989 23.8363C36.2862 23.8801 36.3764 23.9552 36.5038 23.9664C36.6404 23.9722 36.7392 23.9768 36.8048 23.9768H37.2332L37.4904 23.1317H37.3215C37.2244 23.1317 37.0574 23.1154 37.029 23.085C37.0005 23.0481 37.0005 22.9912 36.9852 22.9046L36.8493 22.0357H36.2928L36.5369 21.7452H37.9074L38.1182 21.0556H36.8493L37.047 20.425H38.312L38.5466 19.6472H34.7752L34.5444 20.425ZM23.0983 23.0965L23.4146 22.0443H24.7146L24.9522 21.2616H23.6509L23.8496 20.6139H25.1211L25.3567 19.8561H22.1751L21.9444 20.6139H22.6672L22.4744 21.2616H21.7496L21.5094 22.0577H22.232L21.8104 23.4498C21.7535 23.6341 21.8372 23.7044 21.8902 23.79C21.9444 23.8734 21.9993 23.9285 22.1228 23.9599C22.2502 23.9883 22.3375 24.0054 22.4562 24.0054H23.9218L24.1829 23.1384L23.5332 23.2276C23.4078 23.2276 23.0604 23.2125 23.0983 23.0965ZM23.2474 18.0592L22.918 18.6546C22.8474 18.7847 22.784 18.8654 22.7269 18.9026C22.6765 18.934 22.5768 18.9471 22.4324 18.9471H22.2605L22.0308 19.7088H22.6016C22.8761 19.7088 23.0869 19.6082 23.1876 19.5578C23.2958 19.5 23.3242 19.533 23.4079 19.4523L23.6007 19.2853H25.3833L25.6199 18.4922H24.315L24.5428 18.0592H23.2474ZM25.8791 23.1118C25.8487 23.0681 25.8706 22.991 25.9171 22.8305L26.4043 21.2179H28.1376C28.3902 21.2142 28.5725 21.2113 28.6912 21.2028C28.8186 21.1894 28.9572 21.1439 29.1081 21.0623C29.264 20.9767 29.3437 20.8865 29.4111 20.7829C29.4862 20.6796 29.6068 20.4535 29.7104 20.1048L30.3228 18.064L28.5242 18.0744C28.5242 18.0744 27.9703 18.1561 27.7264 18.2463C27.4804 18.347 27.1288 18.628 27.1288 18.628L27.2912 18.0686H26.1801L24.6246 23.2276C24.5694 23.4279 24.5324 23.5733 24.5239 23.6606C24.521 23.7547 24.6426 23.8478 24.7213 23.9181C24.8145 23.9883 24.9521 23.9769 25.0841 23.9883C25.2229 23.9988 25.4204 24.0053 25.6929 24.0053H26.5468L26.8089 23.1203L26.0445 23.1926C25.9628 23.1926 25.9037 23.1488 25.8791 23.1118ZM26.7187 20.1286H28.5392L28.4235 20.4914C28.4072 20.4999 28.3683 20.4734 28.183 20.4953H26.6066L26.7187 20.1286ZM27.0834 18.912H28.9192L28.7872 19.3489C28.7872 19.3489 27.9219 19.3404 27.7833 19.3659C27.1736 19.4714 26.8174 19.7972 26.8174 19.7972L27.0834 18.912ZM28.4642 21.7061C28.4492 21.7604 28.4253 21.7934 28.392 21.8182C28.3551 21.842 28.2953 21.8506 28.206 21.8506H27.9466L27.9619 21.4088H26.8829L26.8392 23.5685C26.8375 23.7244 26.8525 23.8146 26.9666 23.8868C27.0806 23.977 27.4319 23.9884 27.9048 23.9884H28.5809L28.825 23.18L28.2364 23.2123L28.0407 23.2238C28.014 23.2123 27.9884 23.2019 27.96 23.1734C27.9352 23.1489 27.8934 23.1639 27.9002 23.0081L27.9048 22.4545L28.5221 22.429C28.8554 22.429 28.9979 22.3205 29.1195 22.2172C29.2355 22.1182 29.2734 22.0045 29.3171 21.8506L29.4207 21.3604H28.5724L28.4642 21.7061Z" fill="#FEFEFE"/>
</g>
<defs>
<clipPath id="clip0_409_340">
<rect width="50" height="33.3333" fill="white"/>
</clipPath>
</defs>
</svg>
