<svg width="50" height="34" viewBox="0 0 50 34" fill="none" xmlns="http://www.w3.org/2000/svg">
<g clip-path="url(#clip0_409_301)">
<path d="M0 4.16667C0 1.86548 1.86548 0 4.16667 0H45.8333C48.1345 0 50 1.86548 50 4.16667V29.1667C50 31.4679 48.1345 33.3333 45.8333 33.3333H4.16667C1.86548 33.3333 0 31.4679 0 29.1667V4.16667Z" fill="#D8E3F3"/>
<path d="M43.0334 10.4531H40.414C39.6221 10.4531 39.013 10.6968 38.6475 11.4887L33.6523 22.88H37.1855C37.1855 22.88 37.7946 21.3571 37.9165 20.9916C38.282 20.9916 41.7542 20.9916 42.2415 20.9916C42.3634 21.418 42.6679 22.8191 42.6679 22.8191H45.8356L43.0334 10.4531ZM38.8911 18.4331C39.1957 17.7022 40.2313 14.9609 40.2313 14.9609C40.2313 15.0218 40.5359 14.2299 40.6577 13.8035L40.9014 14.9C40.9014 14.9 41.5714 17.8849 41.6933 18.4941H38.8911V18.4331Z" fill="#3362AB"/>
<path d="M33.8966 18.7986C33.8966 21.3571 31.5818 23.0628 27.9877 23.0628C26.4648 23.0628 25.0028 22.7582 24.2109 22.3927L24.6983 19.5906L25.1247 19.7733C26.2212 20.2606 26.9522 20.4434 28.2923 20.4434C29.267 20.4434 30.3026 20.0779 30.3026 19.2251C30.3026 18.6768 29.8761 18.3113 28.536 17.7022C27.2567 17.093 25.5511 16.1183 25.5511 14.3518C25.5511 11.9151 27.9268 10.2704 31.2772 10.2704C32.5565 10.2704 33.6529 10.5141 34.323 10.8186L33.8357 13.4989L33.592 13.2553C32.9829 13.0116 32.191 12.7679 31.0335 12.7679C29.7543 12.8289 29.1451 13.3771 29.1451 13.8644C29.1451 14.4127 29.8761 14.8391 31.0335 15.3873C32.9829 16.3011 33.8966 17.3367 33.8966 18.7986Z" fill="#3362AB"/>
<path d="M4.16797 10.575L4.22888 10.3313H9.46768C10.1987 10.3313 10.7469 10.575 10.9297 11.3669L12.0871 16.8493C10.9297 13.9254 8.24935 11.5496 4.16797 10.575Z" fill="#F9B50B"/>
<path d="M19.4591 10.4531L14.1594 22.8191H10.5653L7.51953 12.4634C9.71251 13.8644 11.54 16.0574 12.2101 17.5803L12.5756 18.8596L15.865 10.3922H19.4591V10.4531Z" fill="#3362AB"/>
<path d="M20.8586 10.3922H24.209L22.077 22.8191H18.7266L20.8586 10.3922Z" fill="#3362AB"/>
</g>
<defs>
<clipPath id="clip0_409_301">
<rect width="50" height="33.3333" fill="white"/>
</clipPath>
</defs>
</svg>
