<svg width="441" height="242" viewBox="0 0 441 342" fill="none" xmlns="http://www.w3.org/2000/svg">
<g clip-path="url(#clip0_456_344)">
<path d="M146.688 88.9553C114.302 97.1082 96.0932 138.987 105.935 183.34C115.841 227.982 150.437 258.333 183.427 251.5C183.631 251.458 230.232 241.119 234.598 240.15C234.838 240.097 235.009 240.054 235.242 239.975C239.504 238.535 285.076 221.291 268.644 147.235C252.108 72.7155 196.201 78.3899 191.712 78.9698C191.498 78.9974 191.349 79.0265 191.139 79.0732C187.344 79.9157 147.091 88.854 146.688 88.9553Z" fill="#3ADBA9"/>
<ellipse cx="199.492" cy="162.58" rx="83.3333" ry="70.8333" transform="rotate(77.4891 199.492 162.58)" fill="#3ADBA9" stroke="#253D35" stroke-width="12" stroke-linejoin="round"/>
<path d="M218.701 243.679C218.476 243.728 186.879 250.738 186.654 250.785C151.877 258.014 115.839 227.983 105.933 183.341C96.0914 138.988 115.724 96.7935 149.881 88.2478C150.326 88.1363 197.967 77.5588 182.372 81.0193" stroke="#253D35" stroke-width="12" stroke-linecap="round" stroke-linejoin="round"/>
<line x1="120.367" y1="160.675" x2="107.675" y2="163.491" stroke="#253D35" stroke-width="12" stroke-linecap="round" stroke-linejoin="round"/>
<line x1="127.587" y1="193.216" x2="114.895" y2="196.032" stroke="#253D35" stroke-width="12" stroke-linecap="round" stroke-linejoin="round"/>
<line x1="151.079" y1="222.15" x2="130.252" y2="226.771" stroke="#253D35" stroke-width="12" stroke-linecap="round" stroke-linejoin="round"/>
<line x1="129.415" y1="124.523" x2="108.589" y2="129.145" stroke="#253D35" stroke-width="12" stroke-linecap="round" stroke-linejoin="round"/>
<path fill-rule="evenodd" clip-rule="evenodd" d="M197.045 123.857C196.327 120.622 193.123 118.581 189.888 119.299C186.653 120.017 184.612 123.221 185.33 126.456L187.146 134.641C183.359 135.889 179.552 137.765 176.615 140.644C173.088 144.101 171.059 148.799 171.63 154.485C172.066 158.824 173.372 162.562 175.678 165.583C177.995 168.617 180.999 170.504 184.124 171.657C189.917 173.796 196.894 173.624 202.303 173.491L202.303 173.491L202.495 173.487L202.967 173.475C205.716 173.407 208.165 173.347 210.421 173.45C212.819 173.559 214.579 173.842 215.839 174.294C217.002 174.71 217.506 175.18 217.799 175.63C218.126 176.131 218.618 177.271 218.565 179.745C218.533 181.176 217.886 182.578 215.939 184.091C213.875 185.694 210.727 187.076 206.829 188.071C198.894 190.097 190.144 189.975 186.445 188.965C183.248 188.092 179.949 189.975 179.076 193.172C178.203 196.369 180.086 199.668 183.283 200.541C187.807 201.777 194.821 202.032 201.907 201.163L203.743 209.438C204.461 212.673 207.666 214.713 210.901 213.996C214.136 213.278 216.176 210.073 215.458 206.838L213.622 198.564C217.094 197.38 220.475 195.762 223.3 193.567C227.276 190.479 230.432 185.98 230.562 180.006C230.651 175.904 229.871 172.173 227.85 169.074C225.796 165.925 222.877 164.067 219.883 162.995C216.987 161.959 213.856 161.594 210.969 161.462C208.271 161.339 205.419 161.41 202.789 161.476L202.201 161.49C196.174 161.638 191.576 161.616 188.28 160.4C186.825 159.863 185.879 159.169 185.215 158.299C184.541 157.416 183.835 155.928 183.57 153.286C183.387 151.463 183.914 150.293 185.015 149.213C186.338 147.917 188.63 146.679 191.924 145.722C198.496 143.812 206.875 143.636 212.285 144.212C215.58 144.563 218.536 142.176 218.886 138.881C219.237 135.586 216.851 132.63 213.556 132.279C209.625 131.861 204.357 131.748 198.915 132.284L197.045 123.857Z" fill="#253D35"/>
</g>
<path d="M88 259L332 259" stroke="#253D35" stroke-width="5" stroke-linecap="square"/>
<path d="M13 256.5C11.6193 256.5 10.5 257.619 10.5 259C10.5 260.381 11.6193 261.5 13 261.5L13 256.5ZM76 261.5L78.5 261.5L78.5 256.5L76 256.5L76 261.5ZM13 261.5L76 261.5L76 256.5L13 256.5L13 261.5Z" fill="#253D35"/>
<path d="M345 256.5L342.5 256.5L342.5 261.5L345 261.5L345 256.5ZM362 261.5C363.381 261.5 364.5 260.381 364.5 259C364.5 257.619 363.381 256.5 362 256.5L362 261.5ZM345 261.5L362 261.5L362 256.5L345 256.5L345 261.5Z" fill="#253D35"/>
<path d="M72.2039 20.468C72.6031 20.2165 72.7264 19.6949 72.4795 19.3027C72.2325 18.9104 71.7087 18.7961 71.3096 19.0473L71.7568 19.7576C71.3096 19.0473 71.3098 19.0472 71.3096 19.0473L71.3049 19.0503L71.2938 19.0573L71.2522 19.0838C71.2162 19.1069 71.1633 19.1409 71.0948 19.1855C70.9578 19.2746 70.758 19.4062 70.5037 19.5778C69.9949 19.921 69.267 20.425 68.3847 21.0719C66.6211 22.3649 64.2349 24.2325 61.7451 26.5318C56.7956 31.1025 51.3107 37.4927 49.6412 44.5489C47.9615 51.6484 50.2591 56.7276 52.9879 60.0084C54.3441 61.639 55.8024 62.8224 56.9207 63.5983C57.4808 63.987 57.9584 64.2754 58.2993 64.4683C58.4698 64.5646 58.6063 64.6373 58.7022 64.6868C58.7503 64.7117 58.7881 64.7306 58.8149 64.7439L58.8469 64.7596L58.8564 64.7641L58.8596 64.7657C58.8599 64.7657 58.8614 64.7666 58.9749 64.5367L58.8617 64.7666C58.9207 64.7946 58.9815 64.8152 59.043 64.8286C59.4625 66.6185 59.9212 68.3772 60.3806 70.0303C61.2156 73.0357 62.0611 75.7213 62.6979 77.6557C63.0164 78.6232 63.2828 79.4032 63.4698 79.9421C63.5634 80.2117 63.6371 80.4209 63.6875 80.563L63.7454 80.7253L63.7604 80.7671L63.7653 80.7808C63.7655 80.7812 63.7658 80.7821 64.5663 80.4859L63.7653 80.7808C63.9232 81.2172 64.41 81.4394 64.8521 81.2759C65.2942 81.1124 65.5246 80.6261 65.3668 80.1898L65.3623 80.1773L65.3481 80.1378L65.292 79.9805C65.2428 79.8416 65.1703 79.6359 65.078 79.3702C64.8935 78.8387 64.63 78.0671 64.3147 77.109C63.6836 75.1923 62.8462 72.5322 62.0199 69.5581C60.3577 63.5756 58.7754 56.4411 58.9442 51.5152C59.1129 46.5973 60.5899 42.4526 62.0303 39.5322C62.7497 38.0734 63.4576 36.9252 63.983 36.1452C64.2454 35.7553 64.4619 35.4581 64.6108 35.2605C64.6854 35.1617 64.7429 35.0879 64.781 35.0399L64.8228 34.9877L64.8322 34.9762L64.8336 34.9745C65.1338 34.612 65.0852 34.0811 64.7249 33.7885C64.3644 33.4958 63.8284 33.5524 63.5277 33.9148L64.1259 34.4006C63.5278 33.9149 63.528 33.9146 63.5277 33.9148L63.5251 33.9179L63.5205 33.9236L63.5052 33.9424C63.4924 33.9582 63.4741 33.9809 63.451 34.01C63.4048 34.0684 63.3387 34.1532 63.2556 34.2633C63.0894 34.4837 62.855 34.806 62.5741 35.2232C62.0125 36.0571 61.2641 37.272 60.5057 38.8098C58.99 41.8828 57.4243 46.2654 57.2452 51.4844C57.1361 54.6684 57.711 58.6544 58.5535 62.637C58.3584 62.5141 58.1421 62.372 57.9096 62.2107C56.8811 61.4971 55.5439 60.4108 54.3059 58.9223C51.8459 55.9646 49.7589 51.4063 51.2959 44.91C52.8431 38.3703 58.0022 32.2747 62.8926 27.7585C65.3228 25.5142 67.6555 23.6882 69.3808 22.4233C70.243 21.7912 70.952 21.3004 71.4442 20.9683C71.6902 20.8023 71.8818 20.6762 72.0112 20.592C72.0758 20.5499 72.1248 20.5184 72.1572 20.4977L72.1933 20.4747L72.2018 20.4693L72.2039 20.468Z" fill="url(#paint0_linear_456_344)" fill-opacity="0.75"/>
<path d="M72.5731 23.2547C73.0273 23.1299 73.4916 23.3926 73.6102 23.8415L72.788 24.0674C73.6102 23.8415 73.6103 23.8412 73.6102 23.8415L73.6115 23.8456L73.6143 23.8566L73.6251 23.898L73.6661 24.0575C73.7017 24.197 73.7532 24.4017 73.8174 24.6648C73.946 25.1907 74.1257 25.9501 74.3317 26.8873C74.7436 28.7609 75.261 31.3502 75.6832 34.2102C76.1048 37.0681 76.4333 40.211 76.4625 43.1887C76.4913 46.1526 76.225 49.0187 75.4149 51.2892C73.8179 55.7644 71.0353 58.396 68.6416 59.9028C67.4486 60.6538 66.3543 61.1245 65.5534 61.4086C65.1526 61.5508 64.824 61.6467 64.5913 61.7079C64.4751 61.7386 64.3827 61.7604 64.317 61.7752C64.2842 61.7824 64.2582 61.788 64.2392 61.7919L64.216 61.7967L64.2085 61.7981L64.2057 61.7987C64.2053 61.7987 64.2037 61.7991 64.057 60.9705L64.2037 61.7991C63.7414 61.8867 63.3008 61.5869 63.2197 61.1292C63.1389 60.6723 63.4471 60.2308 63.9085 60.1424L63.9181 60.1404L63.9673 60.1298C64.0132 60.1195 64.0851 60.1024 64.1803 60.0774C64.3706 60.0274 64.6526 59.9454 65.0037 59.8209C65.7069 59.5714 66.6813 59.1531 67.7472 58.4821C69.8715 57.1449 72.3675 54.8007 73.8134 50.7485C74.5248 48.7552 74.7908 46.1207 74.7626 43.2316C74.7346 40.3565 74.4163 37.2946 74.0011 34.4805C73.5861 31.6687 73.0767 29.1189 72.6706 27.2716C72.4677 26.3484 72.2908 25.6018 72.165 25.0868C72.102 24.8294 72.0519 24.6299 72.0175 24.4954L71.9784 24.3432L71.9686 24.3052L71.9656 24.2939C71.847 23.845 72.119 23.3795 72.5731 23.2547Z" fill="url(#paint1_linear_456_344)" fill-opacity="0.75"/>
<path d="M72.7627 43.1981C72.7974 42.4219 72.192 41.7746 71.4105 41.7523C70.629 41.73 69.967 42.3412 69.9322 43.1173C69.7615 46.9231 69.2987 49.1494 68.519 50.6405C67.7828 52.049 66.6872 52.9448 64.8091 53.8932C64.1074 54.2474 63.8189 55.0948 64.1651 55.7857C64.5109 56.4766 65.3603 56.7496 66.062 56.3951C68.2167 55.3073 69.9047 54.0566 71.0297 51.9042C72.1117 49.8345 72.5884 47.0857 72.7627 43.1981Z" fill="url(#paint2_linear_456_344)" fill-opacity="0.75"/>
<path d="M339.881 84.6006C339.912 83.9929 340.422 83.5254 341.019 83.556C341.616 83.5866 342.075 84.104 342.043 84.7115L340.962 84.656C342.043 84.7115 342.043 84.7112 342.043 84.7115L342.043 84.7187L342.042 84.7355L342.038 84.7991C342.035 84.8542 342.03 84.935 342.023 85.0402C342.009 85.2506 341.987 85.5583 341.955 85.9527C341.889 86.7416 341.781 87.8782 341.609 89.2787C341.266 92.0782 340.668 95.9405 339.65 100.191C337.627 108.642 333.894 118.841 327.006 125.168C320.076 131.532 312.913 132.149 307.501 131.146C304.811 130.648 302.561 129.753 300.982 128.983C300.192 128.598 299.567 128.243 299.135 127.981C298.919 127.85 298.751 127.742 298.635 127.665C298.577 127.627 298.531 127.596 298.5 127.574L298.462 127.548L298.451 127.54L298.447 127.538C298.447 127.537 298.445 127.536 298.632 127.264L298.444 127.536C298.376 127.487 298.314 127.432 298.26 127.371C295.982 128.027 293.714 128.619 291.564 129.145C287.656 130.099 284.101 130.841 281.523 131.343C280.234 131.595 279.188 131.787 278.464 131.916C278.102 131.981 277.82 132.029 277.628 132.062L277.409 132.1L277.352 132.109L277.334 132.112C277.333 132.112 277.332 132.112 277.161 131.025L277.334 132.112C276.743 132.209 276.187 131.802 276.092 131.201C275.997 130.601 276.399 130.035 276.989 129.938L277.006 129.935L277.06 129.926L277.272 129.89C277.459 129.858 277.737 129.81 278.094 129.746C278.808 129.618 279.842 129.429 281.119 129.18C283.674 128.681 287.195 127.947 291.062 127.002C298.842 125.102 307.867 122.385 313.303 119.09C318.731 115.801 322.464 111.526 324.842 108.065C326.03 106.336 326.876 104.816 327.422 103.733C327.696 103.192 327.894 102.761 328.022 102.469C328.086 102.322 328.133 102.211 328.163 102.138L328.195 102.058L328.202 102.04L328.204 102.038C328.422 101.471 329.05 101.191 329.607 101.412C330.163 101.634 330.437 102.272 330.219 102.839L329.295 102.472C330.219 102.839 330.219 102.839 330.219 102.839L330.217 102.844L330.214 102.853L330.202 102.882C330.192 102.906 330.178 102.941 330.16 102.985C330.124 103.074 330.07 103.202 329.998 103.365C329.855 103.691 329.64 104.158 329.348 104.737C328.763 105.894 327.868 107.502 326.616 109.325C324.113 112.967 320.169 117.492 314.409 120.983C310.895 123.113 306.048 124.978 301.035 126.54C301.296 126.682 301.592 126.836 301.921 126.996C303.372 127.704 305.437 128.524 307.892 128.978C312.771 129.882 319.216 129.357 325.557 123.533C331.94 117.67 335.547 108.023 337.547 99.6733C338.54 95.5242 339.125 91.7484 339.46 89.0098C339.628 87.6412 339.734 86.534 339.797 85.7709C339.829 85.3894 339.85 85.0943 339.863 84.8956C339.87 84.7964 339.874 84.7215 339.877 84.6719L339.88 84.6168L339.881 84.6038L339.881 84.6006Z" fill="url(#paint3_linear_456_344)" fill-opacity="0.75"/>
<path d="M336.512 85.9421C336.367 85.3525 335.778 84.9955 335.199 85.145L335.463 86.2126C335.199 85.145 335.199 85.1448 335.199 85.145L335.193 85.1462L335.179 85.15L335.126 85.1639L334.92 85.2184C334.741 85.2662 334.478 85.3373 334.142 85.4308C333.469 85.6176 332.501 85.8941 331.317 86.253C328.949 86.9704 325.709 88.0203 322.225 89.348C318.743 90.675 315 92.2864 311.631 94.1303C308.277 95.9661 305.22 98.0724 303.176 100.415C299.147 105.033 297.94 109.823 297.753 113.466C297.66 115.282 297.82 116.81 298.005 117.89C298.098 118.431 298.197 118.861 298.275 119.161C298.313 119.311 298.347 119.429 298.372 119.512C298.384 119.554 298.394 119.587 298.402 119.61L298.411 119.639L298.414 119.649L298.416 119.652C298.416 119.653 298.416 119.655 299.441 119.298L298.416 119.655C298.609 120.23 299.224 120.537 299.79 120.34C300.355 120.143 300.658 119.518 300.467 118.943L300.463 118.931L300.444 118.869C300.426 118.811 300.4 118.719 300.368 118.596C300.305 118.35 300.219 117.981 300.138 117.508C299.976 116.559 299.832 115.199 299.915 113.577C300.081 110.344 301.145 106.057 304.794 101.876C306.588 99.8194 309.385 97.8595 312.654 96.0702C315.907 94.2895 319.552 92.7176 322.981 91.4111C326.406 90.1057 329.596 89.0718 331.931 88.3644C333.098 88.0107 334.049 87.7392 334.708 87.5561C335.038 87.4648 335.294 87.3955 335.467 87.3493L335.663 87.2974L335.712 87.2845L335.726 87.2808C336.306 87.1313 336.658 86.5318 336.512 85.9421Z" fill="url(#paint4_linear_456_344)" fill-opacity="0.75"/>
<path d="M313.953 98.299C314.804 97.7707 315.914 98.0439 316.432 98.9092C316.949 99.7746 316.679 100.905 315.828 101.433C311.653 104.024 309.439 105.948 308.253 107.765C307.132 109.481 306.815 111.279 306.931 113.99C306.975 115.003 306.203 115.861 305.208 115.908C304.212 115.954 303.37 115.17 303.326 114.157C303.192 111.047 303.536 108.359 305.249 105.737C306.895 103.215 309.688 100.946 313.953 98.299Z" fill="url(#paint5_linear_456_344)" fill-opacity="0.75"/>
<path d="M411.806 173.258C411.572 172.992 411.593 172.59 411.854 172.359C412.115 172.128 412.517 172.156 412.752 172.422L412.279 172.84C412.752 172.422 412.751 172.422 412.752 172.422L412.754 172.425L412.761 172.432L412.785 172.46C412.806 172.485 412.837 172.52 412.877 172.567C412.957 172.66 413.074 172.797 413.221 172.975C413.515 173.33 413.934 173.847 414.433 174.5C415.432 175.805 416.759 177.656 418.069 179.84C420.673 184.182 423.279 189.95 422.993 195.392C422.704 200.867 419.974 204.045 417.313 205.835C415.991 206.724 414.689 207.27 413.718 207.593C413.232 207.755 412.827 207.862 412.54 207.929C412.397 207.963 412.283 207.986 412.204 208.002C412.164 208.01 412.132 208.015 412.11 208.019L412.084 208.024L412.076 208.025L412.073 208.025C412.073 208.025 412.072 208.026 412.039 207.836L412.072 208.026C412.023 208.033 411.975 208.035 411.928 208.032C411.247 209.234 410.545 210.406 409.864 211.501C408.627 213.492 407.45 215.251 406.582 216.511C406.148 217.142 405.791 217.648 405.543 217.997C405.418 218.172 405.321 218.307 405.254 218.399L405.178 218.504L405.159 218.531L405.152 218.54C405.152 218.54 405.152 218.541 404.637 218.158L405.152 218.54C404.946 218.821 404.548 218.879 404.264 218.667C403.98 218.456 403.916 218.057 404.122 217.775L404.128 217.767L404.147 217.742L404.22 217.64C404.285 217.55 404.381 217.417 404.504 217.245C404.749 216.901 405.102 216.4 405.532 215.776C406.392 214.526 407.558 212.785 408.782 210.814C411.244 206.851 413.893 202.039 414.811 198.451C415.729 194.868 415.539 191.567 415.117 189.156C414.906 187.952 414.638 186.975 414.424 186.301C414.317 185.965 414.224 185.704 414.158 185.53C414.125 185.443 414.099 185.378 414.082 185.335L414.063 185.289L414.058 185.279L414.058 185.277C413.918 184.952 414.065 184.58 414.387 184.445C414.709 184.31 415.083 184.464 415.223 184.789L414.689 185.013C415.223 184.789 415.223 184.788 415.223 184.789L415.225 184.791L415.227 184.797L415.234 184.813C415.24 184.827 415.248 184.848 415.259 184.874C415.28 184.925 415.309 185.001 415.346 185.098C415.419 185.292 415.52 185.574 415.635 185.934C415.864 186.654 416.147 187.688 416.369 188.957C416.813 191.494 417.017 194.986 416.043 198.787C415.449 201.107 414.193 203.86 412.744 206.555C412.911 206.507 413.097 206.451 413.298 206.383C414.191 206.086 415.385 205.585 416.592 204.773C418.991 203.159 421.459 200.313 421.723 195.303C421.988 190.259 419.555 184.773 416.982 180.483C415.703 178.351 414.407 176.541 413.43 175.264C412.941 174.626 412.534 174.122 412.249 173.779C412.106 173.607 411.995 173.476 411.919 173.388C411.881 173.344 411.853 173.311 411.834 173.289L411.813 173.265L411.808 173.259L411.806 173.258Z" fill="url(#paint6_linear_456_344)" fill-opacity="0.75"/>
<path d="M410.952 175.19C410.651 175.004 410.26 175.095 410.08 175.394L410.625 175.73C410.08 175.394 410.08 175.394 410.08 175.394L410.078 175.397L410.074 175.404L410.057 175.431L409.994 175.538C409.939 175.631 409.858 175.768 409.757 175.944C409.553 176.296 409.263 176.806 408.916 177.438C408.223 178.702 407.303 180.461 406.395 182.434C405.487 184.406 404.586 186.604 403.936 188.745C403.289 190.877 402.876 193 402.98 194.809C403.187 198.374 404.638 200.86 406.046 202.452C406.748 203.246 407.438 203.816 407.955 204.19C408.214 204.378 408.431 204.516 408.586 204.609C408.663 204.656 408.725 204.691 408.769 204.716C408.792 204.728 408.809 204.738 408.822 204.744L408.838 204.753L408.843 204.755L408.845 204.756C408.845 204.756 408.846 204.757 409.127 204.19L408.846 204.757C409.161 204.918 409.542 204.795 409.697 204.482C409.852 204.169 409.723 203.786 409.409 203.625L409.402 203.621L409.369 203.603C409.338 203.586 409.29 203.558 409.227 203.52C409.1 203.444 408.914 203.325 408.687 203.161C408.233 202.833 407.618 202.325 406.991 201.616C405.741 200.203 404.436 197.985 404.25 194.757C404.158 193.169 404.522 191.213 405.153 189.135C405.78 187.067 406.657 184.926 407.551 182.984C408.444 181.044 409.35 179.313 410.033 178.066C410.374 177.443 410.66 176.942 410.859 176.597C410.959 176.425 411.037 176.292 411.09 176.202L411.151 176.1L411.166 176.075L411.17 176.068C411.351 175.769 411.253 175.376 410.952 175.19Z" fill="url(#paint7_linear_456_344)" fill-opacity="0.75"/>
<path d="M406.603 189.533C406.741 188.966 407.315 188.627 407.883 188.776C408.452 188.925 408.8 189.506 408.661 190.073C407.98 192.854 407.844 194.557 408.091 195.797C408.325 196.969 408.926 197.846 410.08 198.927C410.511 199.331 410.54 200.003 410.144 200.428C409.749 200.853 409.079 200.871 408.648 200.467C407.323 199.227 406.37 197.968 406.013 196.178C405.67 194.457 405.907 192.374 406.603 189.533Z" fill="url(#paint8_linear_456_344)" fill-opacity="0.75"/>
<g clip-path="url(#clip1_456_344)">
<path d="M66.6912 175.237C66.9256 175.29 67.0713 175.528 67.0168 175.768C66.9623 176.008 66.7281 176.16 66.4937 176.107L66.5925 175.672C66.4937 176.107 66.4938 176.107 66.4937 176.107L66.491 176.106L66.4845 176.105L66.46 176.099C66.4387 176.094 66.4076 176.087 66.3671 176.077C66.2862 176.057 66.1679 176.028 66.0167 175.988C65.7142 175.909 65.2793 175.789 64.7462 175.626C63.6805 175.3 62.2191 174.8 60.6364 174.103C57.49 172.718 53.7845 170.522 51.8124 167.304C49.8282 164.067 50.0994 161.117 50.8759 158.987C51.2618 157.929 51.771 157.075 52.1831 156.486C52.3895 156.19 52.5726 155.96 52.7055 155.802C52.7719 155.724 52.8259 155.663 52.8641 155.621C52.8832 155.599 52.8983 155.583 52.9091 155.572L52.9219 155.558L52.9258 155.554L52.9271 155.553C52.9272 155.553 52.9278 155.552 53.0206 155.646L52.9279 155.552C52.9518 155.527 52.9778 155.506 53.0053 155.488C52.9124 154.52 52.8435 153.559 52.7924 152.652C52.6994 151.001 52.6644 149.509 52.6525 148.429C52.6466 147.889 52.6465 147.451 52.6479 147.149C52.6486 146.997 52.6496 146.88 52.6505 146.8L52.6516 146.708L52.652 146.685L52.6521 146.677C52.6521 146.677 52.6521 146.676 53.0878 146.679L52.6521 146.677C52.6563 146.431 52.8548 146.232 53.0954 146.234C53.336 146.235 53.5277 146.436 53.5235 146.682L53.5234 146.689L53.523 146.712L53.5219 146.8C53.5211 146.878 53.52 146.994 53.5193 147.143C53.518 147.442 53.5181 147.874 53.524 148.409C53.5357 149.479 53.5705 150.958 53.6624 152.591C53.8475 155.876 54.2614 159.72 55.1566 162.147C56.0503 164.57 57.4486 166.37 58.6269 167.566C59.2154 168.164 59.7471 168.609 60.1297 168.903C60.3209 169.05 60.4746 169.159 60.5792 169.231C60.6316 169.266 60.6715 169.293 60.6979 169.31L60.7267 169.328L60.7331 169.332L60.7341 169.333C60.939 169.46 61.0032 169.733 60.8775 169.944C60.7516 170.156 60.4833 170.224 60.2782 170.098L60.487 169.747C60.2782 170.098 60.2784 170.098 60.2782 170.098L60.2764 170.097L60.2732 170.095L60.2628 170.088C60.254 170.083 60.2414 170.075 60.2254 170.064C60.1935 170.043 60.1475 170.013 60.0892 169.973C59.9725 169.893 59.806 169.775 59.6013 169.618C59.1922 169.303 58.63 168.832 58.0095 168.202C56.7697 166.944 55.2893 165.041 54.3408 162.47C53.7621 160.901 53.3815 158.809 53.1308 156.67C53.0568 156.767 52.9758 156.876 52.8901 156.999C52.511 157.541 52.0444 158.325 51.6921 159.291C50.992 161.211 50.7366 163.862 52.5522 166.825C54.3799 169.807 57.8794 171.915 60.9882 173.284C62.533 173.964 63.9617 174.453 65.0042 174.772C65.5252 174.931 65.9488 175.048 66.2415 175.124C66.3877 175.163 66.5011 175.191 66.5776 175.21C66.6157 175.219 66.6446 175.226 66.6637 175.23L66.685 175.235L66.6899 175.236L66.6912 175.237Z" fill="url(#paint9_linear_456_344)" fill-opacity="0.75"/>
<path d="M66.4095 173.78C66.6496 173.76 66.8306 173.545 66.8137 173.3L66.3791 173.336C66.8137 173.3 66.8138 173.3 66.8137 173.3L66.8136 173.297L66.8132 173.292L66.8116 173.269L66.805 173.182C66.7992 173.106 66.7902 172.994 66.7778 172.852C66.7531 172.566 66.7145 172.155 66.6592 171.65C66.5488 170.641 66.3711 169.256 66.1027 167.753C65.8343 166.251 65.4739 164.624 64.9962 163.133C64.5206 161.65 63.9185 160.268 63.1521 159.282C61.6413 157.338 59.8622 156.529 58.4568 156.21C57.7564 156.051 57.1499 156.014 56.716 156.017C56.4989 156.019 56.3243 156.03 56.2017 156.042C56.1405 156.048 56.0923 156.053 56.0581 156.058C56.0411 156.06 56.0276 156.062 56.0177 156.064L56.0058 156.066L56.0019 156.066L56.0004 156.066C56.0002 156.066 55.9994 156.067 56.0653 156.506L55.9994 156.067C55.7616 156.106 55.5982 156.336 55.6346 156.579C55.671 156.821 55.8929 156.986 56.1304 156.946L56.1354 156.946L56.1609 156.942C56.1847 156.939 56.2223 156.934 56.2724 156.93C56.3727 156.92 56.5225 156.91 56.7127 156.909C57.0936 156.906 57.6335 156.938 58.2593 157.08C59.5066 157.363 61.0997 158.081 62.4677 159.841C63.1406 160.707 63.7042 161.973 64.1678 163.419C64.6292 164.858 64.9811 166.443 65.2453 167.922C65.5092 169.4 65.6843 170.764 65.7932 171.759C65.8476 172.256 65.8855 172.66 65.9098 172.94C65.9218 173.08 65.9306 173.188 65.9362 173.262L65.9424 173.345L65.944 173.365L65.9444 173.371C65.9612 173.617 66.1695 173.8 66.4095 173.78Z" fill="url(#paint10_linear_456_344)" fill-opacity="0.75"/>
<path d="M63.2069 163.798C63.3519 164.179 63.1663 164.611 62.7924 164.763C62.4184 164.916 61.9977 164.731 61.8527 164.35C61.1416 162.482 60.5502 161.455 59.9273 160.853C59.3389 160.283 58.6616 160.034 57.5975 159.901C57.2 159.851 56.9207 159.481 56.9738 159.073C57.0268 158.666 57.392 158.376 57.7896 158.426C59.0104 158.579 60.0325 158.898 60.9316 159.768C61.7962 160.605 62.4805 161.89 63.2069 163.798Z" fill="url(#paint11_linear_456_344)" fill-opacity="0.75"/>
</g>
<path d="M160.813 318.444C160.788 318.94 160.371 319.322 159.884 319.297C159.396 319.272 159.021 318.849 159.046 318.353L159.93 318.398C159.046 318.353 159.046 318.353 159.046 318.353L159.047 318.347L159.047 318.333L159.05 318.281C159.053 318.236 159.057 318.17 159.063 318.084C159.074 317.913 159.092 317.661 159.119 317.339C159.172 316.694 159.261 315.765 159.401 314.621C159.682 312.334 160.17 309.178 161.002 305.704C162.655 298.8 165.706 290.465 171.333 285.296C176.996 280.095 182.849 279.592 187.271 280.411C189.469 280.818 191.308 281.55 192.597 282.178C193.243 282.493 193.754 282.784 194.107 282.998C194.284 283.105 194.421 283.193 194.516 283.256C194.563 283.287 194.6 283.312 194.626 283.33L194.657 283.351L194.666 283.358L194.669 283.36C194.669 283.36 194.671 283.361 194.518 283.584L194.671 283.361C194.727 283.401 194.777 283.446 194.821 283.496C196.683 282.96 198.536 282.476 200.293 282.047C203.486 281.267 206.391 280.661 208.498 280.25C209.551 280.045 210.406 279.888 210.997 279.782C211.293 279.729 211.524 279.689 211.68 279.663L211.859 279.632L211.906 279.624L211.921 279.622C211.921 279.622 211.922 279.622 212.062 280.51L211.921 279.622C212.403 279.542 212.858 279.875 212.936 280.366C213.013 280.857 212.684 281.319 212.202 281.399L212.188 281.401L212.145 281.408L211.971 281.438C211.818 281.464 211.592 281.503 211.3 281.555C210.716 281.659 209.871 281.815 208.828 282.018C206.74 282.425 203.863 283.025 200.703 283.797C194.347 285.35 186.972 287.57 182.53 290.262C178.095 292.95 175.045 296.443 173.102 299.271C172.131 300.684 171.44 301.926 170.993 302.811C170.77 303.253 170.608 303.605 170.503 303.844C170.451 303.963 170.413 304.054 170.388 304.114L170.361 304.179L170.356 304.194L170.355 304.196C170.176 304.658 169.663 304.887 169.209 304.707C168.754 304.526 168.53 304.004 168.708 303.541L169.463 303.841C168.708 303.541 168.708 303.541 168.708 303.541L168.71 303.537L168.712 303.53L168.722 303.506C168.73 303.486 168.741 303.458 168.756 303.421C168.786 303.349 168.83 303.244 168.888 303.111C169.005 302.845 169.181 302.463 169.42 301.99C169.897 301.044 170.629 299.731 171.652 298.241C173.697 295.265 176.92 291.568 181.626 288.716C184.498 286.975 188.459 285.451 192.554 284.175C192.341 284.059 192.099 283.933 191.831 283.802C190.645 283.224 188.957 282.554 186.951 282.182C182.965 281.444 177.699 281.873 172.518 286.632C167.302 291.422 164.354 299.305 162.721 306.128C161.909 309.518 161.431 312.603 161.157 314.841C161.02 315.959 160.934 316.864 160.882 317.487C160.856 317.799 160.839 318.04 160.828 318.203C160.822 318.284 160.819 318.345 160.816 318.385L160.814 318.43L160.813 318.441L160.813 318.444Z" fill="url(#paint12_linear_456_344)" fill-opacity="0.75"/>
<path d="M163.131 316.885C163.25 317.367 163.731 317.659 164.204 317.537L163.989 316.664C164.204 317.537 164.204 317.537 164.204 317.537L164.209 317.536L164.22 317.533L164.264 317.521L164.432 317.477C164.578 317.438 164.793 317.38 165.068 317.303C165.618 317.15 166.409 316.925 167.376 316.631C169.311 316.045 171.958 315.187 174.805 314.102C177.65 313.018 180.709 311.701 183.462 310.195C186.202 308.695 188.7 306.974 190.37 305.059C193.662 301.286 194.649 297.373 194.801 294.396C194.877 292.912 194.747 291.663 194.595 290.781C194.52 290.339 194.439 289.987 194.375 289.742C194.343 289.619 194.316 289.523 194.296 289.455C194.285 289.421 194.277 289.394 194.271 289.375L194.263 289.351L194.261 289.344L194.26 289.341C194.26 289.34 194.259 289.339 193.422 289.63L194.259 289.339C194.102 288.868 193.599 288.618 193.137 288.779C192.675 288.94 192.428 289.451 192.584 289.92L192.587 289.93L192.603 289.981C192.617 290.028 192.638 290.103 192.664 290.204C192.716 290.404 192.786 290.706 192.852 291.093C192.985 291.868 193.102 292.979 193.035 294.305C192.899 296.947 192.029 300.449 189.048 303.866C187.582 305.546 185.297 307.148 182.626 308.61C179.968 310.065 176.989 311.349 174.187 312.417C171.389 313.483 168.782 314.328 166.874 314.906C165.921 315.195 165.143 315.417 164.605 315.566C164.336 315.641 164.127 315.698 163.985 315.735L163.825 315.778L163.785 315.788L163.773 315.792C163.3 315.914 163.012 316.403 163.131 316.885Z" fill="url(#paint13_linear_456_344)" fill-opacity="0.75"/>
<path d="M181.565 306.788C180.869 307.22 179.962 306.997 179.539 306.29C179.116 305.583 179.337 304.659 180.033 304.228C183.444 302.11 185.253 300.538 186.222 299.054C187.138 297.651 187.397 296.182 187.302 293.967C187.266 293.14 187.897 292.438 188.71 292.4C189.524 292.363 190.212 293.003 190.248 293.831C190.357 296.372 190.076 298.568 188.677 300.711C187.331 302.772 185.049 304.626 181.565 306.788Z" fill="url(#paint14_linear_456_344)" fill-opacity="0.75"/>
<path d="M415.741 48.9058C415.765 48.4515 416.145 48.102 416.592 48.1249C417.038 48.1477 417.381 48.5345 417.358 48.9887L416.55 48.9473C417.358 48.9887 417.358 48.9885 417.358 48.9887L417.358 48.9941L417.357 49.0067L417.354 49.0542C417.352 49.0954 417.348 49.1559 417.343 49.2345C417.333 49.3918 417.316 49.6219 417.292 49.9167C417.243 50.5065 417.162 51.3563 417.033 52.4034C416.776 54.4965 416.33 57.384 415.569 60.5622C414.056 66.8801 411.265 74.5058 406.115 79.2356C400.934 83.9943 395.578 84.455 391.532 83.7054C389.522 83.3329 387.839 82.6637 386.659 82.0886C386.068 81.8005 385.6 81.5347 385.277 81.3388C385.116 81.2408 384.99 81.1602 384.904 81.1028C384.86 81.0741 384.826 81.0512 384.803 81.0349L384.774 81.0154L384.766 81.0095L384.763 81.0076C384.763 81.0074 384.762 81.0065 384.901 80.8027L384.761 81.0063C384.71 80.9698 384.664 80.9283 384.624 80.883C382.92 81.3735 381.225 81.8164 379.617 82.209C376.696 82.9228 374.038 83.4771 372.11 83.853C371.146 84.0409 370.364 84.1844 369.823 84.281C369.552 84.3293 369.341 84.3659 369.198 84.3905L369.034 84.4183L368.992 84.4254L368.978 84.4277C368.978 84.4277 368.977 84.4279 368.849 83.6149L368.978 84.4277C368.537 84.5005 368.12 84.1957 368.049 83.7467C367.979 83.2977 368.279 82.8747 368.721 82.8019L368.733 82.7998L368.773 82.7931L368.932 82.7661C369.072 82.7421 369.279 82.7062 369.546 82.6586C370.08 82.5633 370.854 82.4214 371.808 82.2352C373.718 81.8628 376.351 81.3137 379.242 80.6073C385.058 79.1864 391.806 77.1554 395.871 74.6921C399.928 72.2326 402.719 69.0368 404.497 66.4488C405.386 65.1561 406.018 64.0195 406.427 63.2099C406.631 62.8054 406.779 62.4832 406.875 62.2648C406.923 62.1554 406.958 62.0724 406.98 62.0177L407.005 61.9579L407.01 61.9446L407.011 61.9426C407.174 61.5192 407.644 61.3099 408.06 61.4751C408.476 61.6405 408.681 62.1181 408.517 62.5418L407.827 62.2675C408.517 62.5418 408.518 62.5414 408.517 62.5418L408.516 62.5455L408.514 62.552L408.505 62.5737C408.498 62.592 408.487 62.618 408.474 62.6512C408.446 62.7176 408.406 62.8132 408.353 62.9349C408.245 63.1786 408.085 63.5277 407.866 63.9607C407.429 64.8261 406.76 66.0282 405.824 67.391C403.953 70.1142 401.003 73.4968 396.697 76.1069C394.07 77.6992 390.446 79.0939 386.698 80.2619C386.894 80.3681 387.115 80.4832 387.36 80.6028C388.445 81.1317 389.989 81.7448 391.825 82.0848C395.473 82.7606 400.291 82.3682 405.032 78.0137C409.804 73.6302 412.501 66.4174 413.996 60.1749C414.739 57.0729 415.176 54.2499 415.427 52.2024C415.552 51.1791 415.631 50.3513 415.679 49.7808C415.702 49.4956 415.718 49.275 415.728 49.1264C415.733 49.0522 415.736 48.9962 415.738 48.9591L415.741 48.9179L415.741 48.9083L415.741 48.9058Z" fill="url(#paint15_linear_456_344)" fill-opacity="0.75"/>
<path d="M413.223 49.909C413.114 49.4681 412.674 49.2013 412.241 49.313L412.438 50.1112C412.241 49.313 412.241 49.3128 412.241 49.313L412.237 49.3139L412.226 49.3167L412.186 49.3272L412.033 49.3679C411.898 49.4036 411.702 49.4568 411.45 49.5267C410.947 49.6664 410.224 49.8731 409.338 50.1414C407.568 50.6778 405.146 51.4627 402.541 52.4554C399.938 53.4475 397.139 54.6522 394.62 56.0308C392.113 57.4034 389.827 58.9782 388.299 60.7297C385.287 64.1821 384.384 67.7631 384.244 70.4871C384.175 71.8446 384.295 72.987 384.433 73.7947C384.502 74.1989 384.576 74.5205 384.635 74.7451C384.664 74.8574 384.689 74.9454 384.707 75.0075C384.717 75.0385 384.724 75.0631 384.73 75.0809L384.737 75.1027L384.739 75.1097L384.74 75.1123C384.74 75.1127 384.741 75.1142 385.507 74.8472L384.741 75.1142C384.885 75.5444 385.345 75.7738 385.768 75.6263C386.19 75.479 386.416 75.0116 386.273 74.5818L386.271 74.5728L386.256 74.5264C386.243 74.483 386.224 74.4144 386.2 74.3226C386.152 74.1389 386.088 73.863 386.028 73.5089C385.906 72.7998 385.799 71.7829 385.861 70.5699C385.985 68.1526 386.781 64.9482 389.509 61.8221C390.85 60.2843 392.941 58.819 395.385 57.4812C397.817 56.1499 400.543 54.9747 403.106 53.9979C405.667 53.0219 408.052 52.2489 409.798 51.72C410.67 51.4556 411.382 51.2525 411.874 51.1157C412.12 51.0474 412.312 50.9956 412.441 50.9611L412.588 50.9223L412.624 50.9126L412.635 50.9098C413.069 50.798 413.332 50.3499 413.223 49.909Z" fill="url(#paint16_linear_456_344)" fill-opacity="0.75"/>
<path d="M396.356 59.1475C396.993 58.7525 397.823 58.9567 398.21 59.6037C398.597 60.2507 398.395 61.0956 397.758 61.4906C394.637 63.4277 392.982 64.8662 392.095 66.2248C391.257 67.508 391.02 68.8518 391.107 70.8788C391.14 71.636 390.563 72.278 389.818 72.3124C389.074 72.347 388.444 71.7611 388.412 71.0037C388.311 68.6784 388.568 66.6689 389.849 64.7082C391.08 62.8226 393.168 61.1262 396.356 59.1475Z" fill="url(#paint17_linear_456_344)" fill-opacity="0.75"/>
<path d="M399.741 321.478C399.765 321.932 400.145 322.282 400.592 322.259C401.038 322.236 401.381 321.849 401.358 321.395L400.55 321.437C401.358 321.395 401.358 321.395 401.358 321.395L401.358 321.39L401.357 321.377L401.354 321.33C401.352 321.288 401.348 321.228 401.343 321.149C401.333 320.992 401.316 320.762 401.292 320.467C401.243 319.877 401.162 319.027 401.033 317.98C400.776 315.887 400.33 313 399.569 309.822C398.056 303.504 395.265 295.878 390.115 291.148C384.934 286.389 379.578 285.929 375.532 286.678C373.522 287.051 371.839 287.72 370.659 288.295C370.068 288.583 369.6 288.849 369.277 289.045C369.116 289.143 368.99 289.224 368.904 289.281C368.86 289.31 368.826 289.333 368.803 289.349L368.774 289.368L368.766 289.374L368.763 289.376C368.763 289.376 368.762 289.377 368.901 289.581L368.761 289.377C368.71 289.414 368.664 289.455 368.624 289.501C366.92 289.01 365.225 288.567 363.617 288.175C360.696 287.461 358.038 286.907 356.11 286.531C355.146 286.343 354.364 286.199 353.823 286.103C353.552 286.054 353.341 286.018 353.198 285.993L353.034 285.965L352.992 285.958L352.978 285.956C352.978 285.956 352.977 285.956 352.849 286.769L352.978 285.956C352.537 285.883 352.12 286.188 352.049 286.637C351.979 287.086 352.279 287.509 352.721 287.582L352.733 287.584L352.773 287.591L352.932 287.618C353.072 287.642 353.279 287.678 353.546 287.725C354.08 287.82 354.854 287.962 355.808 288.149C357.718 288.521 360.351 289.07 363.242 289.776C369.058 291.197 375.806 293.228 379.871 295.692C383.928 298.151 386.719 301.347 388.497 303.935C389.386 305.228 390.018 306.364 390.427 307.174C390.631 307.578 390.779 307.901 390.875 308.119C390.923 308.228 390.958 308.311 390.98 308.366L391.005 308.426L391.01 308.439L391.011 308.441C391.174 308.865 391.644 309.074 392.06 308.909C392.476 308.743 392.681 308.266 392.517 307.842L391.827 308.116C392.517 307.842 392.518 307.842 392.517 307.842L392.516 307.838L392.514 307.832L392.505 307.81C392.498 307.792 392.487 307.766 392.474 307.733C392.446 307.666 392.406 307.571 392.353 307.449C392.245 307.205 392.085 306.856 391.866 306.423C391.429 305.558 390.76 304.356 389.824 302.993C387.953 300.27 385.003 296.887 380.697 294.277C378.07 292.685 374.446 291.29 370.698 290.122C370.894 290.016 371.115 289.901 371.36 289.781C372.445 289.252 373.989 288.639 375.825 288.299C379.473 287.623 384.291 288.016 389.032 292.37C393.804 296.754 396.501 303.966 397.996 310.209C398.739 313.311 399.176 316.134 399.427 318.181C399.552 319.205 399.631 320.032 399.679 320.603C399.702 320.888 399.718 321.109 399.728 321.257C399.733 321.332 399.736 321.388 399.738 321.425L399.741 321.466L399.741 321.476L399.741 321.478Z" fill="url(#paint18_linear_456_344)" fill-opacity="0.75"/>
<path d="M397.223 320.475C397.114 320.916 396.674 321.183 396.241 321.071L396.438 320.273C396.241 321.071 396.241 321.071 396.241 321.071L396.237 321.07L396.226 321.067L396.186 321.057L396.033 321.016C395.898 320.98 395.702 320.927 395.45 320.857C394.947 320.717 394.224 320.511 393.338 320.242C391.568 319.706 389.146 318.921 386.541 317.928C383.938 316.936 381.139 315.732 378.62 314.353C376.113 312.98 373.827 311.406 372.299 309.654C369.287 306.202 368.384 302.621 368.244 299.897C368.175 298.539 368.295 297.397 368.433 296.589C368.502 296.185 368.576 295.863 368.635 295.639C368.664 295.526 368.689 295.438 368.707 295.376C368.717 295.345 368.724 295.321 368.73 295.303L368.737 295.281L368.739 295.274L368.74 295.271C368.74 295.271 368.741 295.27 369.507 295.537L368.741 295.27C368.885 294.839 369.345 294.61 369.768 294.757C370.19 294.905 370.416 295.372 370.273 295.802L370.271 295.811L370.256 295.857C370.243 295.901 370.224 295.969 370.2 296.061C370.152 296.245 370.088 296.521 370.028 296.875C369.906 297.584 369.799 298.601 369.861 299.814C369.985 302.231 370.781 305.436 373.509 308.562C374.85 310.099 376.941 311.565 379.385 312.903C381.817 314.234 384.543 315.409 387.106 316.386C389.667 317.362 392.052 318.135 393.798 318.664C394.67 318.928 395.382 319.131 395.874 319.268C396.12 319.336 396.312 319.388 396.441 319.423L396.588 319.462L396.624 319.471L396.635 319.474C397.069 319.586 397.332 320.034 397.223 320.475Z" fill="url(#paint19_linear_456_344)" fill-opacity="0.75"/>
<path d="M380.356 311.236C380.993 311.631 381.823 311.427 382.21 310.78C382.597 310.133 382.395 309.288 381.758 308.893C378.637 306.956 376.982 305.518 376.095 304.159C375.257 302.876 375.02 301.532 375.107 299.505C375.14 298.748 374.563 298.106 373.818 298.071C373.074 298.037 372.444 298.623 372.412 299.38C372.311 301.705 372.568 303.715 373.849 305.676C375.08 307.561 377.168 309.258 380.356 311.236Z" fill="url(#paint20_linear_456_344)" fill-opacity="0.75"/>
<defs>
<linearGradient id="paint0_linear_456_344" x1="55.0452" y1="29.2857" x2="81.2779" y2="70.9581" gradientUnits="userSpaceOnUse">
<stop stop-color="#233730"/>
<stop offset="1" stop-color="#234237" stop-opacity="0"/>
</linearGradient>
<linearGradient id="paint1_linear_456_344" x1="60.8954" y1="30.5618" x2="76.322" y2="55.0681" gradientUnits="userSpaceOnUse">
<stop stop-color="#233730"/>
<stop offset="1" stop-color="#234237" stop-opacity="0"/>
</linearGradient>
<linearGradient id="paint2_linear_456_344" x1="65.7831" y1="45.0073" x2="71.043" y2="53.363" gradientUnits="userSpaceOnUse">
<stop stop-color="#233730"/>
<stop offset="1" stop-color="#234237" stop-opacity="0"/>
</linearGradient>
<linearGradient id="paint3_linear_456_344" x1="340.775" y1="109.466" x2="277.348" y2="106.215" gradientUnits="userSpaceOnUse">
<stop stop-color="#233730"/>
<stop offset="1" stop-color="#234237" stop-opacity="0"/>
</linearGradient>
<linearGradient id="paint4_linear_456_344" x1="335.651" y1="103.688" x2="298.352" y2="101.776" gradientUnits="userSpaceOnUse">
<stop stop-color="#233730"/>
<stop offset="1" stop-color="#234237" stop-opacity="0"/>
</linearGradient>
<linearGradient id="paint5_linear_456_344" x1="316.316" y1="107.293" x2="303.599" y2="106.641" gradientUnits="userSpaceOnUse">
<stop stop-color="#233730"/>
<stop offset="1" stop-color="#234237" stop-opacity="0"/>
</linearGradient>
<linearGradient id="paint6_linear_456_344" x1="422.319" y1="183.242" x2="394.597" y2="207.756" gradientUnits="userSpaceOnUse">
<stop stop-color="#233730"/>
<stop offset="1" stop-color="#234237" stop-opacity="0"/>
</linearGradient>
<linearGradient id="paint7_linear_456_344" x1="417.831" y1="182.927" x2="401.528" y2="197.343" gradientUnits="userSpaceOnUse">
<stop stop-color="#233730"/>
<stop offset="1" stop-color="#234237" stop-opacity="0"/>
</linearGradient>
<linearGradient id="paint8_linear_456_344" x1="411.254" y1="192.312" x2="405.696" y2="197.228" gradientUnits="userSpaceOnUse">
<stop stop-color="#233730"/>
<stop offset="1" stop-color="#234237" stop-opacity="0"/>
</linearGradient>
<linearGradient id="paint9_linear_456_344" x1="56.9444" y1="173.941" x2="62.7358" y2="148.41" gradientUnits="userSpaceOnUse">
<stop stop-color="#233730"/>
<stop offset="1" stop-color="#234237" stop-opacity="0"/>
</linearGradient>
<linearGradient id="paint10_linear_456_344" x1="59.5604" y1="172.247" x2="62.9662" y2="157.233" gradientUnits="userSpaceOnUse">
<stop stop-color="#233730"/>
<stop offset="1" stop-color="#234237" stop-opacity="0"/>
</linearGradient>
<linearGradient id="paint11_linear_456_344" x1="59.5358" y1="164.157" x2="60.6971" y2="159.038" gradientUnits="userSpaceOnUse">
<stop stop-color="#233730"/>
<stop offset="1" stop-color="#234237" stop-opacity="0"/>
</linearGradient>
<linearGradient id="paint12_linear_456_344" x1="160.083" y1="298.126" x2="211.909" y2="300.782" gradientUnits="userSpaceOnUse">
<stop stop-color="#233730"/>
<stop offset="1" stop-color="#234237" stop-opacity="0"/>
</linearGradient>
<linearGradient id="paint13_linear_456_344" x1="163.835" y1="302.385" x2="194.312" y2="303.947" gradientUnits="userSpaceOnUse">
<stop stop-color="#233730"/>
<stop offset="1" stop-color="#234237" stop-opacity="0"/>
</linearGradient>
<linearGradient id="paint14_linear_456_344" x1="179.634" y1="299.439" x2="190.025" y2="299.972" gradientUnits="userSpaceOnUse">
<stop stop-color="#233730"/>
<stop offset="1" stop-color="#234237" stop-opacity="0"/>
</linearGradient>
<linearGradient id="paint15_linear_456_344" x1="416.409" y1="67.4965" x2="368.989" y2="65.0658" gradientUnits="userSpaceOnUse">
<stop stop-color="#233730"/>
<stop offset="1" stop-color="#234237" stop-opacity="0"/>
</linearGradient>
<linearGradient id="paint16_linear_456_344" x1="412.579" y1="63.1767" x2="384.692" y2="61.7473" gradientUnits="userSpaceOnUse">
<stop stop-color="#233730"/>
<stop offset="1" stop-color="#234237" stop-opacity="0"/>
</linearGradient>
<linearGradient id="paint17_linear_456_344" x1="398.123" y1="65.8718" x2="388.615" y2="65.3844" gradientUnits="userSpaceOnUse">
<stop stop-color="#233730"/>
<stop offset="1" stop-color="#234237" stop-opacity="0"/>
</linearGradient>
<linearGradient id="paint18_linear_456_344" x1="400.409" y1="302.887" x2="352.989" y2="305.318" gradientUnits="userSpaceOnUse">
<stop stop-color="#233730"/>
<stop offset="1" stop-color="#234237" stop-opacity="0"/>
</linearGradient>
<linearGradient id="paint19_linear_456_344" x1="396.579" y1="307.207" x2="368.692" y2="308.636" gradientUnits="userSpaceOnUse">
<stop stop-color="#233730"/>
<stop offset="1" stop-color="#234237" stop-opacity="0"/>
</linearGradient>
<linearGradient id="paint20_linear_456_344" x1="382.123" y1="304.512" x2="372.615" y2="304.999" gradientUnits="userSpaceOnUse">
<stop stop-color="#233730"/>
<stop offset="1" stop-color="#234237" stop-opacity="0"/>
</linearGradient>
<clipPath id="clip0_456_344">
<rect width="200" height="200" fill="white" transform="translate(68 89.3252) rotate(-12.5109)"/>
</clipPath>
<clipPath id="clip1_456_344">
<rect width="31.4235" height="32.2205" fill="white" transform="matrix(0.975223 0.221224 0.221224 -0.975223 41 173.421)"/>
</clipPath>
</defs>
</svg>
