<svg width="1384" height="400" viewBox="0 0 1584 445" fill="none" xmlns="http://www.w3.org/2000/svg">
<path d="M1475.03 7.83295L1460.19 0.341875L1459.81 17.6581L1474.97 10.8322L1475.03 7.83295ZM2.0332 344.838L3.53281 344.804L2.0332 344.838ZM132.531 436L117.578 427.258L117.484 444.578L132.531 436ZM123.557 434.451C122.728 434.439 122.047 435.101 122.035 435.929C122.023 436.758 122.685 437.439 123.513 437.451L123.557 434.451ZM105.359 436.663C106.185 436.727 106.906 436.108 106.969 435.282C107.033 434.456 106.414 433.735 105.588 433.672L105.359 436.663ZM87.7639 431.581C86.9461 431.448 86.1757 432.004 86.0431 432.822C85.9104 433.639 86.4658 434.41 87.2836 434.542L87.7639 431.581ZM69.4729 430.689C70.2713 430.91 71.0977 430.442 71.3187 429.644C71.5397 428.845 71.0717 428.019 70.2733 427.798L69.4729 430.689ZM53.4419 421.879C52.683 421.547 51.7985 421.893 51.4663 422.652C51.1341 423.411 51.48 424.295 52.2389 424.628L53.4419 421.879ZM36.1735 415.827C36.8586 416.293 37.7916 416.115 38.2573 415.43C38.723 414.745 38.5452 413.812 37.8601 413.346L36.1735 415.827ZM24.4083 401.858C23.8446 401.251 22.8955 401.215 22.2884 401.779C21.6813 402.343 21.6461 403.292 22.2098 403.899L24.4083 401.858ZM11.4328 389.011C11.8335 389.736 12.7461 389.999 13.4712 389.598C14.1963 389.197 14.4592 388.285 14.0585 387.56L11.4328 389.011ZM7.34372 371.214C7.11424 370.418 6.28292 369.959 5.48691 370.189C4.6909 370.418 4.23163 371.249 4.46111 372.045L7.34372 371.214ZM1.07813 354.02C1.15903 354.844 1.89298 355.447 2.71745 355.366C3.54192 355.285 4.14469 354.551 4.06379 353.727L1.07813 354.02ZM3.67876 335.332C3.72397 334.505 3.09004 333.798 2.26285 333.753C1.43566 333.707 0.728438 334.341 0.68323 335.169L3.67876 335.332ZM3.3515 315.995C3.16646 316.802 3.67106 317.607 4.47855 317.792C5.28605 317.977 6.09066 317.472 6.2757 316.665L3.3515 315.995ZM12.154 298.789C12.4859 298.03 12.1395 297.146 11.3805 296.814C10.6214 296.482 9.73707 296.829 9.40522 297.588L12.154 298.789ZM18.8524 280.65C18.3807 281.331 18.5505 282.266 19.2316 282.737C19.9126 283.209 20.8471 283.039 21.3187 282.358L18.8524 280.65ZM33.4693 267.988C34.0621 267.409 34.0735 266.459 33.4948 265.867C32.9161 265.274 31.9664 265.263 31.3736 265.841L33.4693 267.988ZM46.4588 253.666C45.768 254.123 45.5789 255.054 46.0362 255.745C46.4936 256.435 47.4243 256.624 48.1151 256.167L46.4588 253.666ZM64.73 247.334C65.4963 247.019 65.8625 246.143 65.5478 245.376C65.2332 244.61 64.3568 244.244 63.5905 244.559L64.73 247.334ZM82.2823 239.214C81.464 239.343 80.9053 240.111 81.0343 240.929C81.1634 241.748 81.9314 242.306 82.7497 242.177L82.2823 239.214ZM101.031 241.415C101.86 241.415 102.531 240.744 102.531 239.915C102.531 239.087 101.86 238.415 101.031 238.415V241.415ZM119.031 238.415C118.202 238.415 117.531 239.087 117.531 239.915C117.531 240.744 118.202 241.415 119.031 241.415V238.415ZM137.03 241.415C137.859 241.415 138.53 240.744 138.53 239.915C138.53 239.087 137.859 238.415 137.03 238.415V241.415ZM155.03 238.415C154.202 238.415 153.53 239.087 153.53 239.915C153.53 240.744 154.202 241.415 155.03 241.415V238.415ZM173.03 241.415C173.858 241.415 174.53 240.744 174.53 239.915C174.53 239.087 173.858 238.415 173.03 238.415V241.415ZM191.029 238.415C190.201 238.415 189.529 239.087 189.529 239.915C189.529 240.744 190.201 241.415 191.029 241.415V238.415ZM209.029 241.415C209.857 241.415 210.529 240.744 210.529 239.915C210.529 239.087 209.857 238.415 209.029 238.415V241.415ZM227.028 238.415C226.2 238.415 225.528 239.087 225.528 239.915C225.528 240.744 226.2 241.415 227.028 241.415V238.415ZM245.028 241.415C245.857 241.415 246.528 240.744 246.528 239.915C246.528 239.087 245.857 238.415 245.028 238.415V241.415ZM263.028 238.415C262.199 238.415 261.528 239.087 261.528 239.915C261.528 240.744 262.199 241.415 263.028 241.415V238.415ZM281.027 241.415C281.856 241.415 282.527 240.744 282.527 239.915C282.527 239.087 281.856 238.415 281.027 238.415V241.415ZM299.027 238.415C298.199 238.415 297.527 239.087 297.527 239.915C297.527 240.744 298.199 241.415 299.027 241.415V238.415ZM317.027 241.415C317.855 241.415 318.527 240.744 318.527 239.915C318.527 239.087 317.855 238.415 317.027 238.415V241.415ZM335.026 238.415C334.198 238.415 333.526 239.087 333.526 239.915C333.526 240.744 334.198 241.415 335.026 241.415V238.415ZM353.026 241.415C353.854 241.415 354.526 240.744 354.526 239.915C354.526 239.087 353.854 238.415 353.026 238.415V241.415ZM371.025 238.415C370.197 238.415 369.525 239.087 369.525 239.915C369.525 240.744 370.197 241.415 371.025 241.415V238.415ZM389.025 241.415C389.854 241.415 390.525 240.744 390.525 239.915C390.525 239.087 389.854 238.415 389.025 238.415V241.415ZM407.025 238.415C406.196 238.415 405.525 239.087 405.525 239.915C405.525 240.744 406.196 241.415 407.025 241.415V238.415ZM425.024 241.415C425.853 241.415 426.524 240.744 426.524 239.915C426.524 239.087 425.853 238.415 425.024 238.415V241.415ZM443.024 238.415C442.196 238.415 441.524 239.087 441.524 239.915C441.524 240.744 442.196 241.415 443.024 241.415V238.415ZM461.024 241.415C461.852 241.415 462.524 240.744 462.524 239.915C462.524 239.087 461.852 238.415 461.024 238.415V241.415ZM479.023 238.415C478.195 238.415 477.523 239.087 477.523 239.915C477.523 240.744 478.195 241.415 479.023 241.415V238.415ZM497.023 241.415C497.851 241.415 498.523 240.744 498.523 239.915C498.523 239.087 497.851 238.415 497.023 238.415V241.415ZM515.023 238.415C514.194 238.415 513.523 239.087 513.523 239.915C513.523 240.744 514.194 241.415 515.023 241.415V238.415ZM533.022 241.415C533.851 241.415 534.522 240.744 534.522 239.915C534.522 239.087 533.851 238.415 533.022 238.415V241.415ZM551.022 238.415C550.193 238.415 549.522 239.087 549.522 239.915C549.522 240.744 550.193 241.415 551.022 241.415V238.415ZM569.021 241.415C569.85 241.415 570.521 240.744 570.521 239.915C570.521 239.087 569.85 238.415 569.021 238.415V241.415ZM587.021 238.415C586.193 238.415 585.521 239.087 585.521 239.915C585.521 240.744 586.193 241.415 587.021 241.415V238.415ZM605.021 241.415C605.849 241.415 606.521 240.744 606.521 239.915C606.521 239.087 605.849 238.415 605.021 238.415V241.415ZM623.02 238.415C622.192 238.415 621.52 239.087 621.52 239.915C621.52 240.744 622.192 241.415 623.02 241.415V238.415ZM641.02 241.415C641.848 241.415 642.52 240.744 642.52 239.915C642.52 239.087 641.848 238.415 641.02 238.415V241.415ZM659.02 238.415C658.191 238.415 657.52 239.087 657.52 239.915C657.52 240.744 658.191 241.415 659.02 241.415V238.415ZM677.019 241.415C677.848 241.415 678.519 240.744 678.519 239.915C678.519 239.087 677.848 238.415 677.019 238.415V241.415ZM695.019 238.415C694.19 238.415 693.519 239.087 693.519 239.915C693.519 240.744 694.19 241.415 695.019 241.415V238.415ZM713.018 241.415C713.847 241.415 714.518 240.744 714.518 239.915C714.518 239.087 713.847 238.415 713.018 238.415V241.415ZM731.018 238.415C730.19 238.415 729.518 239.087 729.518 239.915C729.518 240.744 730.19 241.415 731.018 241.415V238.415ZM749.018 241.415C749.846 241.415 750.518 240.744 750.518 239.915C750.518 239.087 749.846 238.415 749.018 238.415V241.415ZM767.017 238.415C766.189 238.415 765.517 239.087 765.517 239.915C765.517 240.744 766.189 241.415 767.017 241.415V238.415ZM785.017 241.415C785.845 241.415 786.517 240.744 786.517 239.915C786.517 239.087 785.845 238.415 785.017 238.415V241.415ZM803.017 238.415C802.188 238.415 801.517 239.087 801.517 239.915C801.517 240.744 802.188 241.415 803.017 241.415V238.415ZM821.016 241.415C821.845 241.415 822.516 240.744 822.516 239.915C822.516 239.087 821.845 238.415 821.016 238.415V241.415ZM839.016 238.415C838.187 238.415 837.516 239.087 837.516 239.915C837.516 240.744 838.187 241.415 839.016 241.415V238.415ZM857.016 241.415C857.844 241.415 858.516 240.744 858.516 239.915C858.516 239.087 857.844 238.415 857.016 238.415V241.415ZM875.015 238.415C874.187 238.415 873.515 239.087 873.515 239.915C873.515 240.744 874.187 241.415 875.015 241.415V238.415ZM893.015 241.415C893.843 241.415 894.515 240.744 894.515 239.915C894.515 239.087 893.843 238.415 893.015 238.415V241.415ZM911.014 238.415C910.186 238.415 909.514 239.087 909.514 239.915C909.514 240.744 910.186 241.415 911.014 241.415V238.415ZM929.014 241.415C929.842 241.415 930.514 240.744 930.514 239.915C930.514 239.087 929.842 238.415 929.014 238.415V241.415ZM947.014 238.415C946.185 238.415 945.514 239.087 945.514 239.915C945.514 240.744 946.185 241.415 947.014 241.415V238.415ZM965.013 241.415C965.842 241.415 966.513 240.744 966.513 239.915C966.513 239.087 965.842 238.415 965.013 238.415V241.415ZM983.013 238.415C982.185 238.415 981.513 239.087 981.513 239.915C981.513 240.744 982.185 241.415 983.013 241.415V238.415ZM1001.01 241.415C1001.84 241.415 1002.51 240.744 1002.51 239.915C1002.51 239.087 1001.84 238.415 1001.01 238.415V241.415ZM1019.01 238.415C1018.18 238.415 1017.51 239.087 1017.51 239.915C1017.51 240.744 1018.18 241.415 1019.01 241.415V238.415ZM1037.01 241.415C1037.84 241.415 1038.51 240.744 1038.51 239.915C1038.51 239.087 1037.84 238.415 1037.01 238.415V241.415ZM1055.01 238.415C1054.18 238.415 1053.51 239.087 1053.51 239.915C1053.51 240.744 1054.18 241.415 1055.01 241.415V238.415ZM1073.01 241.415C1073.84 241.415 1074.51 240.744 1074.51 239.915C1074.51 239.087 1073.84 238.415 1073.01 238.415V241.415ZM1091.01 238.415C1090.18 238.415 1089.51 239.087 1089.51 239.915C1089.51 240.744 1090.18 241.415 1091.01 241.415V238.415ZM1109.01 241.415C1109.84 241.415 1110.51 240.744 1110.51 239.915C1110.51 239.087 1109.84 238.415 1109.01 238.415V241.415ZM1127.01 238.415C1126.18 238.415 1125.51 239.087 1125.51 239.915C1125.51 240.744 1126.18 241.415 1127.01 241.415V238.415ZM1145.01 241.415C1145.84 241.415 1146.51 240.744 1146.51 239.915C1146.51 239.087 1145.84 238.415 1145.01 238.415V241.415ZM1163.01 238.415C1162.18 238.415 1161.51 239.087 1161.51 239.915C1161.51 240.744 1162.18 241.415 1163.01 241.415V238.415ZM1181.01 241.415C1181.84 241.415 1182.51 240.744 1182.51 239.915C1182.51 239.087 1181.84 238.415 1181.01 238.415V241.415ZM1199.01 238.415C1198.18 238.415 1197.51 239.087 1197.51 239.915C1197.51 240.744 1198.18 241.415 1199.01 241.415V238.415ZM1217.01 241.415C1217.84 241.415 1218.51 240.744 1218.51 239.915C1218.51 239.087 1217.84 238.415 1217.01 238.415V241.415ZM1235.01 238.415C1234.18 238.415 1233.51 239.087 1233.51 239.915C1233.51 240.744 1234.18 241.415 1235.01 241.415V238.415ZM1253.01 241.415C1253.84 241.415 1254.51 240.744 1254.51 239.915C1254.51 239.087 1253.84 238.415 1253.01 238.415V241.415ZM1271.01 238.415C1270.18 238.415 1269.51 239.087 1269.51 239.915C1269.51 240.744 1270.18 241.415 1271.01 241.415V238.415ZM1289.01 241.415C1289.84 241.415 1290.51 240.744 1290.51 239.915C1290.51 239.087 1289.84 238.415 1289.01 238.415V241.415ZM1307.01 238.415C1306.18 238.415 1305.51 239.087 1305.51 239.915C1305.51 240.744 1306.18 241.415 1307.01 241.415V238.415ZM1325.01 241.415C1325.83 241.415 1326.51 240.744 1326.51 239.915C1326.51 239.087 1325.83 238.415 1325.01 238.415V241.415ZM1343.01 238.415C1342.18 238.415 1341.51 239.087 1341.51 239.915C1341.51 240.744 1342.18 241.415 1343.01 241.415V238.415ZM1361.01 241.415C1361.83 241.415 1362.51 240.744 1362.51 239.915C1362.51 239.087 1361.83 238.415 1361.01 238.415V241.415ZM1379 238.415C1378.18 238.415 1377.5 239.087 1377.5 239.915C1377.5 240.744 1378.18 241.415 1379 241.415V238.415ZM1397 241.415C1397.83 241.415 1398.5 240.744 1398.5 239.915C1398.5 239.087 1397.83 238.415 1397 238.415V241.415ZM1415 238.415C1414.18 238.415 1413.5 239.087 1413.5 239.915C1413.5 240.744 1414.18 241.415 1415 241.415V238.415ZM1433 241.415C1433.83 241.415 1434.5 240.744 1434.5 239.915C1434.5 239.087 1433.83 238.415 1433 238.415V241.415ZM1451 238.415C1450.18 238.415 1449.5 239.087 1449.5 239.915C1449.5 240.744 1450.18 241.415 1451 241.415V238.415ZM1469.58 241.148C1470.41 241.102 1471.04 240.394 1471 239.567C1470.95 238.74 1470.24 238.107 1469.41 238.153L1469.58 241.148ZM1488.17 236.064C1487.35 236.203 1486.8 236.977 1486.94 237.794C1487.08 238.611 1487.86 239.16 1488.67 239.022L1488.17 236.064ZM1507.4 234.638C1508.19 234.396 1508.64 233.558 1508.4 232.766C1508.16 231.973 1507.32 231.526 1506.53 231.768L1507.4 234.638ZM1524.06 224.986C1523.31 225.345 1522.99 226.241 1523.35 226.987C1523.71 227.734 1524.61 228.049 1525.35 227.691L1524.06 224.986ZM1541.95 217.853C1542.62 217.366 1542.77 216.429 1542.29 215.758C1541.8 215.087 1540.86 214.938 1540.19 215.424L1541.95 217.853ZM1554.16 202.992C1553.6 203.603 1553.64 204.552 1554.25 205.111C1554.87 205.671 1555.81 205.629 1556.37 205.017L1554.16 202.992ZM1567.86 189.493C1568.28 188.78 1568.05 187.86 1567.33 187.438C1566.62 187.016 1565.7 187.253 1565.28 187.966L1567.86 189.493ZM1573.21 170.99C1572.93 171.77 1573.33 172.628 1574.11 172.908C1574.89 173.187 1575.75 172.782 1576.03 172.002L1573.21 170.99ZM1581 153.408C1581.15 152.593 1580.62 151.81 1579.8 151.659C1578.99 151.508 1578.2 152.045 1578.05 152.86L1581 153.408ZM1580.25 134.118C1580.2 134.946 1580.84 135.653 1581.66 135.698C1582.49 135.743 1583.2 135.109 1583.24 134.281L1580.25 134.118ZM1583.26 114.992C1583.22 114.164 1582.52 113.527 1581.69 113.569C1580.86 113.611 1580.22 114.315 1580.27 115.143L1583.26 114.992ZM1578.21 96.2161C1578.35 97.0324 1579.13 97.5797 1579.94 97.4386C1580.76 97.2974 1581.31 96.5213 1581.16 95.7049L1578.21 96.2161ZM1576.47 76.9015C1576.2 76.1163 1575.35 75.6938 1574.57 75.9578C1573.78 76.2219 1573.36 77.0725 1573.62 77.8577L1576.47 76.9015ZM1565.99 60.574C1566.4 61.2959 1567.31 61.5515 1568.03 61.145C1568.76 60.7386 1569.01 59.8239 1568.6 59.102L1565.99 60.574ZM1557.32 43.2387C1556.77 42.6194 1555.82 42.5635 1555.2 43.1138C1554.58 43.6641 1554.52 44.6122 1555.07 45.2315L1557.32 43.2387ZM1541.1 32.5892C1541.77 33.0765 1542.71 32.9284 1543.2 32.2584C1543.69 31.5885 1543.54 30.6504 1542.87 30.1631L1541.1 32.5892ZM1526.08 20.3282C1525.33 19.9782 1524.44 20.3031 1524.09 21.054C1523.74 21.8048 1524.06 22.6973 1524.82 23.0473L1526.08 20.3282ZM1507.05 16.4869C1507.84 16.7133 1508.67 16.2509 1508.9 15.454C1509.13 14.6571 1508.66 13.8276 1507.87 13.6011L1507.05 16.4869ZM1488.92 9.55305C1488.1 9.43025 1487.34 9.99486 1487.21 10.8141C1487.09 11.6334 1487.66 12.3971 1488.48 12.5199L1488.92 9.55305ZM1469.53 10.7112C1470.35 10.7484 1471.05 10.1078 1471.09 9.28018C1471.13 8.45259 1470.49 7.75149 1469.66 7.71422L1469.53 10.7112ZM105.588 433.672C99.9429 433.24 93.9332 432.582 87.7639 431.581L87.2836 434.542C93.5505 435.559 99.6455 436.226 105.359 436.663L105.588 433.672ZM70.2733 427.798C64.5808 426.222 58.9204 424.278 53.4419 421.879L52.2389 424.628C57.8659 427.091 63.6632 429.081 69.4729 430.689L70.2733 427.798ZM37.8601 413.346C33.0153 410.053 28.4861 406.25 24.4083 401.858L22.2098 403.899C26.4546 408.471 31.1592 412.418 36.1735 415.827L37.8601 413.346ZM14.0585 387.56C11.3466 382.653 9.076 377.223 7.34372 371.214L4.46111 372.045C6.25399 378.265 8.60961 383.902 11.4328 389.011L14.0585 387.56ZM4.06379 353.727C3.78226 350.858 3.60305 347.885 3.53281 344.804L0.533589 344.872C0.60548 348.025 0.78901 351.073 1.07813 354.02L4.06379 353.727ZM3.53281 344.804C3.45906 341.569 3.51045 338.412 3.67876 335.332L0.68323 335.169C0.510639 338.327 0.458103 341.561 0.533589 344.872L3.53281 344.804ZM6.2757 316.665C7.73465 310.298 9.72732 304.34 12.154 298.789L9.40522 297.588C6.90405 303.309 4.85247 309.444 3.3515 315.995L6.2757 316.665ZM21.3187 282.358C24.9937 277.051 29.0916 272.262 33.4693 267.988L31.3736 265.841C26.8639 270.244 22.6407 275.18 18.8524 280.65L21.3187 282.358ZM48.1151 256.167C53.5631 252.56 59.1718 249.616 64.73 247.334L63.5905 244.559C57.8513 246.915 52.0696 249.95 46.4588 253.666L48.1151 256.167ZM82.7497 242.177C85.9784 241.668 89.089 241.415 92.0313 241.415V238.415C88.9189 238.415 85.6515 238.683 82.2823 239.214L82.7497 242.177ZM92.0313 241.415H101.031V238.415H92.0313V241.415ZM119.031 241.415H137.03V238.415H119.031V241.415ZM155.03 241.415H173.03V238.415H155.03V241.415ZM191.029 241.415H209.029V238.415H191.029V241.415ZM227.028 241.415H245.028V238.415H227.028V241.415ZM263.028 241.415H281.027V238.415H263.028V241.415ZM299.027 241.415H317.027V238.415H299.027V241.415ZM335.026 241.415H353.026V238.415H335.026V241.415ZM371.025 241.415H389.025V238.415H371.025V241.415ZM407.025 241.415H425.024V238.415H407.025V241.415ZM443.024 241.415H461.024V238.415H443.024V241.415ZM479.023 241.415H497.023V238.415H479.023V241.415ZM515.023 241.415H533.022V238.415H515.023V241.415ZM551.022 241.415H569.021V238.415H551.022V241.415ZM587.021 241.415H605.021V238.415H587.021V241.415ZM623.02 241.415H641.02V238.415H623.02V241.415ZM659.02 241.415H677.019V238.415H659.02V241.415ZM695.019 241.415H713.018V238.415H695.019V241.415ZM731.018 241.415H749.018V238.415H731.018V241.415ZM767.017 241.415H785.017V238.415H767.017V241.415ZM803.017 241.415H821.016V238.415H803.017V241.415ZM839.016 241.415H857.016V238.415H839.016V241.415ZM875.015 241.415H893.015V238.415H875.015V241.415ZM911.014 241.415H929.014V238.415H911.014V241.415ZM947.014 241.415H965.013V238.415H947.014V241.415ZM983.013 241.415H1001.01V238.415H983.013V241.415ZM1019.01 241.415H1037.01V238.415H1019.01V241.415ZM1055.01 241.415H1073.01V238.415H1055.01V241.415ZM1091.01 241.415H1109.01V238.415H1091.01V241.415ZM1127.01 241.415H1145.01V238.415H1127.01V241.415ZM1163.01 241.415H1181.01V238.415H1163.01V241.415ZM1199.01 241.415H1217.01V238.415H1199.01V241.415ZM1235.01 241.415H1253.01V238.415H1235.01V241.415ZM1271.01 241.415H1289.01V238.415H1271.01V241.415ZM1307.01 241.415H1325.01V238.415H1307.01V241.415ZM1343.01 241.415H1361.01V238.415H1343.01V241.415ZM1379 241.415H1397V238.415H1379V241.415ZM1415 241.415H1433V238.415H1415V241.415ZM1451 241.415H1460V238.415H1451V241.415ZM1460 241.415C1462.99 241.415 1466.2 241.336 1469.58 241.148L1469.41 238.153C1466.09 238.337 1462.94 238.415 1460 238.415V241.415ZM1488.67 239.022C1494.75 237.992 1501.06 236.568 1507.4 234.638L1506.53 231.768C1500.32 233.656 1494.14 235.053 1488.17 236.064L1488.67 239.022ZM1525.35 227.691C1531.06 224.955 1536.64 221.704 1541.95 217.853L1540.19 215.424C1535.04 219.16 1529.61 222.32 1524.06 224.986L1525.35 227.691ZM1556.37 205.017C1560.58 200.419 1564.45 195.265 1567.86 189.493L1565.28 187.966C1561.97 193.555 1558.23 198.543 1554.16 202.992L1556.37 205.017ZM1576.03 172.002C1578.08 166.268 1579.76 160.081 1581 153.408L1578.05 152.86C1576.84 159.382 1575.2 165.414 1573.21 170.99L1576.03 172.002ZM1583.24 134.281C1583.41 131.167 1583.5 127.965 1583.5 124.673H1580.5C1580.5 127.912 1580.41 131.06 1580.25 134.118L1583.24 134.281ZM1583.5 124.673C1583.5 121.356 1583.42 118.13 1583.26 114.992L1580.27 115.143C1580.42 118.229 1580.5 121.405 1580.5 124.673H1583.5ZM1581.16 95.7049C1580 88.9525 1578.41 82.6962 1576.47 76.9015L1573.62 77.8577C1575.52 83.499 1577.07 89.606 1578.21 96.2161L1581.16 95.7049ZM1568.6 59.102C1565.27 53.1865 1561.48 47.9208 1557.32 43.2387L1555.07 45.2315C1559.09 49.7545 1562.76 54.8458 1565.99 60.574L1568.6 59.102ZM1542.87 30.1631C1537.54 26.2849 1531.9 23.0381 1526.08 20.3282L1524.82 23.0473C1530.47 25.6835 1535.94 28.8348 1541.1 32.5892L1542.87 30.1631ZM1507.87 13.6011C1501.54 11.8034 1495.17 10.4902 1488.92 9.55305L1488.48 12.5199C1494.62 13.4406 1500.86 14.7286 1507.05 16.4869L1507.87 13.6011Z" fill="#3CBDA6"/>
</svg>
